{
.appVersion = "3151";
DisplayStrings = (
SMSCmssc
);
copyright = "Copyright © 2023 by Giulio Puccini. All rights reserved.";
customParameters = (
{
name = "Use Typo Metrics";
value = 1;
},
{
name = "Use Extension Kerning";
value = 1;
},
{
name = "Get Hints From Master";
value = "A40D6D23-B1DA-4472-8F2A-1C08CC11B4FE";
},
{
name = TTFOvershootSuppressionBelowPPM;
value = 40;
},
{
name = blueFuzz;
value = 1;
},
{
name = Axes;
value = (
{
Name = Weight;
Tag = wght;
}
);
}
);
date = "2023-08-12 07:30:56 +0000";
designer = "Giulio Puccini";
designerURL = "https://www.instagram.com/giulio__puccini/";
familyName = "Regesto Grotesk";
featurePrefixes = (
{
automatic = 1;
code = "languagesystem DFLT dflt;\012languagesystem DFLT MAH;\012\012languagesystem latn dflt;\012languagesystem latn AZE;\012languagesystem latn CRT;\012languagesystem latn KAZ;\012languagesystem latn TAT;\012languagesystem latn TRK;\012languagesystem latn ROM;\012languagesystem latn MOL;\012languagesystem latn MAH;\012languagesystem latn NLD;\012";
name = Languagesystems;
}
);
features = (
{
automatic = 1;
code = "feature locl;\012feature subs;\012feature sinf;\012feature sups;\012feature frac;\012feature ordn;\012feature ss01;\012";
name = aalt;
},
{
automatic = 1;
code = "lookup ccmp_Other_1 {\012	@CombiningTopAccents = [acutecomb brevecomb caroncomb circumflexcomb commaturnedabovecomb dieresiscomb dotaccentcomb gravecomb hungarumlautcomb macroncomb ringcomb tildecomb];\012	@CombiningNonTopAccents = [cedillacomb ogonekcomb];\012	sub [i j]' @CombiningTopAccents by [idotless jdotless];\012	sub [i j]' @CombiningNonTopAccents @CombiningTopAccents by [idotless jdotless];\012} ccmp_Other_1;\012\012lookup ccmp_latn_1 {\012	sub fi by f i;\012	sub fl by f l;\012} ccmp_latn_1;\012\012script latn;\012lookup ccmp_latn_1;\012";
name = ccmp;
},
{
automatic = 1;

glyphs = (
{
glyphname = A;
lastChange = "2023-10-25 08:07:10 +0000";
layers = (
{
anchors = (
{
name = bottom;
position = "{324, 0}";
},
{
name = ogonek;
position = "{820, 10}";
},
{
name = top;
position = "{324, 710}";
}
);
hints = (
{
horizontal = 1;
origin = "{1, 3}";
type = Anchor;
},
{
horizontal = 1;
origin = "{1, 2}";
type = Anchor;
},
{
horizontal = 1;
origin = "{2, 3}";
target = "{2, 2}";
type = TTStem;
stem = -1;
options = 4;
},
{
horizontal = 1;
origin = "{1, 3}";
target = "{0, 3}";
type = Align;
options = 4;
},
{
horizontal = 1;
origin = "{2, 3}";
type = Anchor;
}
);
layerId = "A40D6D23-B1DA-4472-8F2A-1C08CC11B4FE";
paths = (
{
closed = 1;
nodes = (
"640 0 LINE",
"377 710 LINE",
"283 710 LINE",
"532 0 LINE"
);
},
{
closed = 1;
nodes = (
"115 0 LINE",
"364 710 LINE",
"270 710 LINE",
"7 0 LINE"
);
},
{
closed = 1;
nodes = (
"504 203 LINE",
"504 286 LINE",
"153 286 LINE",
"153 203 LINE"
);
}
);
width = 647;
},
{
anchors = (
{
name = bottom;
position = "{298, 0}";
},
{
name = ogonek;
position = "{798, 10}";
},
{
name = top;
position = "{298, 710}";
}
);
layerId = m002;
paths = (
{
closed = 1;
nodes = (
"588 0 LINE",
"325 710 LINE",
"281 710 LINE",
"535 0 LINE"
);
},
{
closed = 1;
nodes = (
"60 0 LINE",
"314 710 LINE",
"270 710 LINE",
"7 0 LINE"
);
},
{
closed = 1;
nodes = (
"478 223 LINE",
"478 267 LINE",
"127 267 LINE",
"127 223 LINE"
);
}
);
width = 595;
},
{
anchors = (
{
name = bottom;
position = "{366, 0}";
},
{
name = ogonek;
position = "{882, 10}";
},
{
name = top;
position = "{366, 710}";
}
);
layerId = "5BCD9238-7200-4447-A55E-E4A4B2A2A7AE";
paths = (
{
closed = 1;
nodes = (
"723 0 LINE",
"461 710 LINE",
"303 710 LINE",
"545 0 LINE"
);
},
{
closed = 1;
nodes = (
"185 0 LINE",
"428 710 LINE",
"270 710 LINE",
"7 0 LINE"
);
},
{
closed = 1;
nodes = (
"546 151 LINE",
"546 291 LINE",
"195 291 LINE",
"195 151 LINE"
);
}
);
width = 730;
}
);
leftKerningGroup = A;
leftMetricsKey = v;
rightKerningGroup = A;
rightMetricsKey = v;
unicode = 0041;
},
{
glyphname = AE;
lastChange = "2023-10-23 16:45:39 +0000";
layers = (
{
anchors = (
{
name = bottom;
position = "{522, 0}";
},
{
name = top;
position = "{522, 710}";
}
);
components = (
{
name = E;
transform = "{1, 0, 0, 1, 452, 0}";
}
);
hints = (
{
horizontal = 1;
origin = "{0, 3}";
type = Anchor;
},
{
horizontal = 1;
origin = "{0, 2}";
type = Anchor;
},
{
horizontal = 1;
origin = "{1, 3}";
type = Anchor;
},
{
horizontal = 1;
origin = "{1, 3}";
target = "{1, 2}";
type = TTStem;
stem = -1;
options = 4;
}
);
layerId = "A40D6D23-B1DA-4472-8F2A-1C08CC11B4FE";
paths = (
{
closed = 1;
nodes = (
"113 0 LINE",
"570 710 LINE",
"468 710 LINE",
"3 0 LINE"
);
},
{
closed = 1;
nodes = (
"597 203 LINE",
"597 286 LINE",
"216 286 LINE",
"216 203 LINE"
);
}
);
width = 1041;
},
{
anchors = (
{
name = bottom;
position = "{499, 0}";
},
{
name = top;
position = "{499, 710}";
}
);
components = (
{
name = E;
transform = "{1, 0, 0, 1, 428, 0}";
}
);
layerId = m002;
paths = (
{
closed = 1;
nodes = (
"57 0 LINE",
"517 710 LINE",
"465 710 LINE",
"3 0 LINE"
);
},
{
closed = 1;
nodes = (
"514 223 LINE",
"514 267 LINE",
"193 267 LINE",
"193 223 LINE"
);
}
);
width = 965;
},
{
anchors = (
{
name = bottom;
position = "{591, 0}";
},
{
name = top;
position = "{591, 710}";
}
);
components = (
{
name = E;
transform = "{1, 0, 0, 1, 520, 0}";
}
);
layerId = "5BCD9238-7200-4447-A55E-E4A4B2A2A7AE";
paths = (
{
closed = 1;
nodes = (
"182 0 LINE",
"639 710 LINE",
"468 710 LINE",
"3 0 LINE"
);
},
{
closed = 1;
nodes = (
"666 149 LINE",
"666 289 LINE",
"265 289 LINE",
"265 149 LINE"
);
}
);
width = 1150;
}
);
leftKerningGroup = A;
rightKerningGroup = E;
rightMetricsKey = E;
unicode = 00C6;
},
{
glyphname = B;
lastChange = "2023-10-23 16:45:39 +0000";
layers = (
{
anchors = (
{
name = bottom;
position = "{301, 0}";
},
{
name = center;
position = "{301, 355}";
},
{
name = top;
position = "{301, 710}";
}
);
hints = (
{
horizontal = 1;
origin = "{0, 14}";
target = "{1, 9}";
type = TTStem;
stem = -1;
options = 4;
},
{
horizontal = 1;
origin = "{1, 1}";
target = "{2, 9}";
type = TTStem;
stem = -1;
options = 4;
},
{
horizontal = 1;
origin = "{0, 13}";
target = "{2, 1}";
type = TTStem;
stem = -1;
options = 4;
},
{
horizontal = 1;
origin = "{1, 9}";
target = "{2, 1}";
other1 = "{1, 1}";
type = Interpolate;
options = 4;
}
);
layerId = "A40D6D23-B1DA-4472-8F2A-1C08CC11B4FE";
paths = (
{
closed = 1;
nodes = (
"301 0 LINE SMOOTH",
"492 0 OFFCURVE",
"574 62 OFFCURVE",
"574 204 CURVE SMOOTH",
"574 310 OFFCURVE",
"528 359 OFFCURVE",
"415 375 CURVE",
"511 392 OFFCURVE",
"551 434 OFFCURVE",
"551 518 CURVE SMOOTH",
"551 660 OFFCURVE",
"483 710 OFFCURVE",
"291 710 CURVE SMOOTH",
"57 710 LINE",
"57 0 LINE"
);
},
{
closed = 1;
nodes = (
"149 373 LINE",
"104 328 LINE",
"301 328 LINE SMOOTH",
"416 328 OFFCURVE",
"476 286 OFFCURVE",
"476 204 CURVE SMOOTH",
"476 125 OFFCURVE",
"418 86 OFFCURVE",
"301 86 CURVE SMOOTH",
"104 86 LINE",
"149 41 LINE"
);
},
{
closed = 1;
nodes = (
"149 670 LINE",
"104 625 LINE",
"291 625 LINE SMOOTH",
"410 625 OFFCURVE",
"453 596 OFFCURVE",
"453 517 CURVE SMOOTH",
"453 438 OFFCURVE",
"409 408 OFFCURVE",
"291 408 CURVE SMOOTH",
"104 408 LINE",
"149 363 LINE"
);
}
);
width = 593;
},
{
anchors = (
{
name = bottom;
position = "{254, 0}";
},
{
name = center;
position = "{254, 355}";
},
{
name = top;
position = "{254, 710}";
}
);
layerId = m002;
paths = (
{
closed = 1;
nodes = (
"268 0 LINE SMOOTH",
"432 0 OFFCURVE",
"517 67 OFFCURVE",
"517 196 CURVE SMOOTH",
"517 298 OFFCURVE",
"467 358 OFFCURVE",
"371 371 CURVE",
"452 385 OFFCURVE",
"494 438 OFFCURVE",
"494 525 CURVE SMOOTH",
"494 647 OFFCURVE",
"413 710 OFFCURVE",
"258 710 CURVE SMOOTH",
"53 710 LINE",
"53 0 LINE"
);
},
{
closed = 1;
nodes = (
"102 373 LINE",
"77 347 LINE",
"268 347 LINE SMOOTH",
"399 347 OFFCURVE",
"468 295 OFFCURVE",
"468 196 CURVE SMOOTH",
"468 95 OFFCURVE",
"399 43 OFFCURVE",
"268 43 CURVE SMOOTH",
"57 43 LINE",
"102 11 LINE"
);
},
{
closed = 1;
nodes = (
"102 670 LINE",
"77 667 LINE",
"258 667 LINE SMOOTH",
"381 667 OFFCURVE",
"445 618 OFFCURVE",
"445 524 CURVE SMOOTH",
"445 435 OFFCURVE",
"381 389 OFFCURVE",
"258 389 CURVE SMOOTH",
"77 389 LINE",
"102 363 LINE"
);
}
);
width = 536;
},
{
anchors = (
{
name = bottom;
position = "{364, 0}";
},
{
name = center;
position = "{364, 355}";
},
{
name = top;
position = "{364, 710}";
}
);
layerId = "5BCD9238-7200-4447-A55E-E4A4B2A2A7AE";
paths = (
{
closed = 1;
nodes = (
"345 0 LINE SMOOTH",
"543 0 OFFCURVE",
"627 61 OFFCURVE",
"627 205 CURVE SMOOTH",
"627 302 OFFCURVE",
"574 355 OFFCURVE",
"464 370 CURVE",
"558 387 OFFCURVE",
"604 436 OFFCURVE",
"604 519 CURVE SMOOTH",
"604 653 OFFCURVE",
"524 710 OFFCURVE",
"335 710 CURVE SMOOTH",
"52 710 LINE",
"52 0 LINE"
);
},
{
closed = 1;
nodes = (
"212 373 LINE",
"140 300 LINE",
"345 300 LINE SMOOTH",
"435 300 OFFCURVE",
"467 280 OFFCURVE",
"467 226 CURVE SMOOTH",
"467 168 OFFCURVE",
"429 142 OFFCURVE",
"345 142 CURVE SMOOTH",
"167 142 LINE",
"212 81 LINE"
);
},
{
closed = 1;
nodes = (
"212 670 LINE",
"140 570 LINE",
"335 570 LINE SMOOTH",
"410 570 OFFCURVE",
"444 547 OFFCURVE",
"444 498 CURVE SMOOTH",
"444 445 OFFCURVE",
"405 416 OFFCURVE",
"335 416 CURVE SMOOTH",
"140 416 LINE",
"212 363 LINE"
);
}
);
width = 644;
}
);
leftKerningGroup = H;
leftMetricsKey = H;
rightKerningGroup = B;
rightMetricsKey = "=o-10";
unicode = 0042;
},
{
glyphname = C;
lastChange = "2023-10-24 09:22:37 +0000";
layers = (
{
anchors = (
{
name = bottom;
position = "{349, 0}";
},
{
name = top;
position = "{349, 710}";
}
);
hints = (
{
horizontal = 1;
origin = "{0, 25}";
target = "{0, 6}";
type = TTStem;
stem = -1;
options = 4;
},
{
horizontal = 1;
origin = "{0, 19}";
target = "{0, 12}";
type = TTStem;
stem = -1;
options = 4;
}
);
layerId = "A40D6D23-B1DA-4472-8F2A-1C08CC11B4FE";
paths = (
{
closed = 1;
nodes = (
"522 -14 OFFCURVE",
"636 81 OFFCURVE",
"660 242 CURVE",
"561 242 LINE",
"540 138 OFFCURVE",
"462 76 OFFCURVE",
"352 76 CURVE SMOOTH",
"215 76 OFFCURVE",
"134 180 OFFCURVE",
"134 356 CURVE SMOOTH",
"134 533 OFFCURVE",
"215 637 OFFCURVE",
"352 637 CURVE SMOOTH",
"463 637 OFFCURVE",
"541 570 OFFCURVE",
"562 456 CURVE",
"662 456 LINE",
"640 625 OFFCURVE",
"525 725 OFFCURVE",
"352 725 CURVE SMOOTH",
"153 725 OFFCURVE",
"35 588 OFFCURVE",
"35 356 CURVE SMOOTH",
"35 123 OFFCURVE",
"153 -14 OFFCURVE",
"352 -14 CURVE SMOOTH"
);
}
);
width = 697;
},
{
anchors = (
{
name = bottom;
position = "{337, 0}";
},
{
name = top;
position = "{337, 710}";
}
);
guideLines = (
{
angle = 180;
position = "{592, 456}";
},
{
position = "{590, 242}";
}
);
layerId = m002;
paths = (
{
closed = 1;
nodes = (
"495 -14 OFFCURVE",
"605 81 OFFCURVE",
"635 242 CURVE",
"585 242 LINE",
"558 109 OFFCURVE",
"467 30 OFFCURVE",
"340 30 CURVE SMOOTH",
"179 30 OFFCURVE",
"84 151 OFFCURVE",
"84 355 CURVE SMOOTH",
"84 561 OFFCURVE",
"179 683 OFFCURVE",
"340 683 CURVE SMOOTH",
"470 683 OFFCURVE",
"562 599 OFFCURVE",
"587 456 CURVE",
"637 456 LINE",
"610 625 OFFCURVE",
"500 725 OFFCURVE",
"340 725 CURVE SMOOTH",
"148 725 OFFCURVE",
"35 588 OFFCURVE",
"35 355 CURVE SMOOTH",
"35 123 OFFCURVE",
"148 -14 OFFCURVE",
"340 -14 CURVE SMOOTH"
);
}
);
width = 672;
},
{
anchors = (
{
name = bottom;
position = "{354, 0}";
},
{
name = top;
position = "{354, 710}";
}
);
layerId = "5BCD9238-7200-4447-A55E-E4A4B2A2A7AE";
paths = (
{
closed = 1;
nodes = (
"532 -14 OFFCURVE",
"653 87 OFFCURVE",
"681 258 CURVE",
"517 261 LINE",
"499 178 OFFCURVE",
"439 129 OFFCURVE",
"356 129 CURVE SMOOTH",
"254 129 OFFCURVE",
"193 214 OFFCURVE",
"193 357 CURVE SMOOTH",
"193 499 OFFCURVE",
"254 583 OFFCURVE",
"356 583 CURVE SMOOTH",
"435 583 OFFCURVE",
"495 530 OFFCURVE",
"518 441 CURVE",
"682 441 LINE",
"666 620 OFFCURVE",
"545 725 OFFCURVE",
"356 725 CURVE SMOOTH",
"153 725 OFFCURVE",
"33 588 OFFCURVE",
"33 357 CURVE SMOOTH",
"33 124 OFFCURVE",
"153 -14 OFFCURVE",
"356 -14 CURVE SMOOTH"
);
}
);
width = 715;
}
);
leftKerningGroup = O;
leftMetricsKey = O;
rightKerningGroup = C;
rightMetricsKey = O;
unicode = 0043;
},
{
glyphname = D;
lastChange = "2023-10-23 16:45:39 +0000";
layers = (
{
anchors = (
{
name = bottom;
position = "{336, 0}";
},
{
name = center;
position = "{336, 355}";
},
{
name = top;
position = "{336, 710}";
}
);
hints = (
{
horizontal = 1;
origin = "{0, 8}";
target = "{1, 9}";
type = TTStem;
stem = -1;
options = 4;
},
{
horizontal = 1;
origin = "{0, 7}";
target = "{1, 1}";
type = TTStem;
stem = -1;
options = 4;
},
{
horizontal = 1;
origin = "{1, 9}";
target = "{1, 1}";
other1 = "{1, 5}";
type = Interpolate;
options = 4;
}
);
layerId = "A40D6D23-B1DA-4472-8F2A-1C08CC11B4FE";
paths = (
{
closed = 1;
nodes = (
"302 0 LINE SMOOTH",
"521 0 OFFCURVE",
"636 122 OFFCURVE",
"636 355 CURVE SMOOTH",
"636 588 OFFCURVE",
"521 710 OFFCURVE",
"302 710 CURVE SMOOTH",
"57 710 LINE",
"57 0 LINE"
);
},
{
closed = 1;
nodes = (
"151 671 LINE",
"106 626 LINE",
"302 626 LINE SMOOTH",
"458 626 OFFCURVE",
"540 533 OFFCURVE",
"540 355 CURVE SMOOTH",
"540 177 OFFCURVE",
"458 84 OFFCURVE",
"302 84 CURVE SMOOTH",
"106 84 LINE",
"151 39 LINE"
);
}
);
width = 671;
},
{
anchors = (
{
name = bottom;
position = "{287, 0}";
},
{
name = center;
position = "{287, 355}";
},
{
name = top;
position = "{287, 710}";
}
);
layerId = m002;
paths = (
{
closed = 1;
nodes = (
"253 0 LINE SMOOTH",
"472 0 OFFCURVE",
"587 122 OFFCURVE",
"587 355 CURVE SMOOTH",
"587 588 OFFCURVE",
"472 710 OFFCURVE",
"253 710 CURVE SMOOTH",
"53 710 LINE",
"53 0 LINE"
);
},
{
closed = 1;
nodes = (
"102 691 LINE",
"57 667 LINE",
"253 667 LINE SMOOTH",
"440 667 OFFCURVE",
"537 560 OFFCURVE",
"537 355 CURVE SMOOTH",
"537 150 OFFCURVE",
"440 43 OFFCURVE",
"253 43 CURVE SMOOTH",
"57 43 LINE",
"102 19 LINE"
);
}
);
width = 622;
},
{
anchors = (
{
name = bottom;
position = "{392, 0}";
},
{
name = center;
position = "{391, 355}";
},
{
name = top;
position = "{342, 710}";
}
);
layerId = "5BCD9238-7200-4447-A55E-E4A4B2A2A7AE";
paths = (
{
closed = 1;
nodes = (
"346 0 LINE SMOOTH",
"575 0 OFFCURVE",
"680 112 OFFCURVE",
"680 355 CURVE SMOOTH",
"680 598 OFFCURVE",
"575 710 OFFCURVE",
"346 710 CURVE SMOOTH",
"52 710 LINE",
"52 0 LINE"
);
},
{
closed = 1;
nodes = (
"212 644 LINE",
"167 570 LINE",
"346 570 LINE SMOOTH",
"465 570 OFFCURVE",
"520 502 OFFCURVE",
"520 355 CURVE SMOOTH",
"520 208 OFFCURVE",
"465 140 OFFCURVE",
"346 140 CURVE SMOOTH",
"167 140 LINE",
"212 66 LINE"
);
}
);
width = 713;
}
);
leftKerningGroup = H;
leftMetricsKey = H;
rightKerningGroup = O;
rightMetricsKey = O;
unicode = 0044;
},
{
glyphname = Eth;
lastChange = "2023-10-23 16:45:39 +0000";
layers = (
{
components = (
{
name = D;
transform = "{1, 0, 0, 1, 36, 0}";
}
);
hints = (
{
horizontal = 1;
origin = "{0, 3}";
target = "{0, 2}";
type = TTStem;
stem = -1;
options = 4;
},
{
horizontal = 1;
origin = "{0, 3}";
target = "{0, 0}";
type = Align;
options = 4;
}
);
layerId = "A40D6D23-B1DA-4472-8F2A-1C08CC11B4FE";
paths = (
{
closed = 1;
nodes = (
"384 312 LINE",
"384 399 LINE",
"32 399 LINE",
"32 312 LINE"
);
}
);
width = 707;
},
{
components = (
{
name = D;
transform = "{1, 0, 0, 1, 31, 0}";
}
);
layerId = m002;
paths = (
{
closed = 1;
nodes = (
"380 334 LINE",
"380 377 LINE",
"28 377 LINE",
"28 334 LINE"
);
}
);
width = 653;
},
{
components = (
{
name = D;
transform = "{1, 0, 0, 1, 30, 0}";
}
);
layerId = "5BCD9238-7200-4447-A55E-E4A4B2A2A7AE";
paths = (
{
closed = 1;
nodes = (
"379 292 LINE",
"379 419 LINE",
"27 419 LINE",
"27 292 LINE"
);
}
);
width = 743;
}
);
leftKerningGroup = H;
leftMetricsKey = "=D-25";
rightKerningGroup = O;
rightMetricsKey = D;
unicode = 00D0;
},
{
glyphname = E;
lastChange = "2023-10-23 16:45:39 +0000";
layers = (
{
anchors = (
{
name = bottom;
position = "{293, 0}";
},
{
name = ogonek;
position = "{729, 10}";
},
{
name = top;
position = "{293, 710}";
},
{
name = topleft;
position = "{17, 710}";
}
);
hints = (
{
horizontal = 1;
origin = "{0, 15}";
target = "{0, 2}";
type = TTStem;
stem = -1;
options = 4;
},
{
horizontal = 1;
origin = "{0, 14}";
target = "{0, 11}";
type = TTStem;
stem = -1;
options = 4;
},
{
horizontal = 1;
origin = "{0, 5}";
target = "{0, 8}";
type = TTStem;
stem = -1;
options = 4;
}
);
layerId = "A40D6D23-B1DA-4472-8F2A-1C08CC11B4FE";
paths = (
{
closed = 1;
nodes = (
"549 0 LINE",
"549 88 LINE",
"109 88 LINE",
"154 42 LINE",
"154 370 LINE",
"109 325 LINE",
"523 325 LINE",
"523 412 LINE",
"109 412 LINE",
"154 367 LINE",
"154 668 LINE",
"109 623 LINE",
"547 623 LINE",
"547 710 LINE",
"60 710 LINE",
"60 0 LINE"
);
}
);
width = 589;
},
{
anchors = (
{
name = bottom;
position = "{272, 0}";
},
{
name = ogonek;
position = "{710, 10}";
},
{
name = top;
position = "{284, 710}";
},
{
name = topleft;
position = "{-22, 710}";
}
);
layerId = m002;
paths = (
{
closed = 1;
nodes = (
"500 0 LINE",
"500 45 LINE",
"70 45 LINE",
"105 32 LINE",
"105 370 LINE",
"70 345 LINE",
"474 345 LINE",
"474 390 LINE",
"70 390 LINE",
"105 367 LINE",
"105 668 LINE",
"70 665 LINE",
"498 665 LINE",
"498 710 LINE",
"56 710 LINE",
"56 0 LINE"
);
}
);
width = 537;
},
{
anchors = (
{
name = bottom;
position = "{316, 0}";
},
{
name = ogonek;
position = "{752, 10}";
},
{
name = top;
position = "{318, 710}";
},
{
name = topleft;
position = "{64, 710}";
}
);
layerId = "5BCD9238-7200-4447-A55E-E4A4B2A2A7AE";
paths = (
{
closed = 1;
nodes = (
"593 0 LINE",
"593 143 LINE",
"156 143 LINE",
"215 55 LINE",
"215 370 LINE",
"156 295 LINE",
"566 295 LINE",
"566 438 LINE",
"156 438 LINE",
"215 367 LINE",
"215 668 LINE",
"156 567 LINE",
"591 567 LINE",
"591 710 LINE",
"55 710 LINE",
"55 0 LINE"
);
}
);
width = 630;
}
);
leftKerningGroup = H;
leftMetricsKey = N;
rightKerningGroup = E;
unicode = 0045;
},
{
glyphname = Schwa;
lastChange = "2023-10-23 16:45:39 +0000";
layers = (
{
anchors = (
{
name = bottom;
position = "{344, 0}";
},
{
name = top;
position = "{354, 710}";
}
);
hints = (
{
horizontal = 1;
origin = "{0, 20}";
target = "{1, 6}";
type = TTStem;
stem = -1;
options = 4;
},
{
horizontal = 1;
origin = "{1, 2}";
target = "{0, 16}";
type = TTStem;
stem = -1;
options = 4;
},
{
horizontal = 1;
origin = "{0, 12}";
target = "{0, 5}";
type = TTStem;
stem = -1;
options = 4;
},
{
horizontal = 1;
origin = "{1, 6}";
target = "{0, 12}";
other1 = "{0, 15}";
type = Interpolate;
options = 4;
},
{
horizontal = 1;
origin = "{1, 6}";
target = "{0, 12}";
other1 = "{0, 16}";
type = Interpolate;
options = 4;
},
{
horizontal = 1;
origin = "{0, 16}";
target = "{0, 12}";
other1 = "{0, 9}";
type = Interpolate;
options = 4;
}
);
layerId = "A40D6D23-B1DA-4472-8F2A-1C08CC11B4FE";
paths = (
{
closed = 1;
nodes = (
"550 -13 OFFCURVE",
"671 124 OFFCURVE",
"671 356 CURVE SMOOTH",
"671 589 OFFCURVE",
"553 726 OFFCURVE",
"354 726 CURVE SMOOTH",
"184 726 OFFCURVE",
"71 641 OFFCURVE",
"50 497 CURVE",
"150 497 LINE",
"168 584 OFFCURVE",
"243 635 OFFCURVE",
"354 635 CURVE SMOOTH",
"480 635 OFFCURVE",
"559 546 OFFCURVE",
"570 393 CURVE",
"35 393 LINE",
"35 377 LINE SMOOTH",
"35 132 OFFCURVE",
"149 -13 OFFCURVE",
"344 -13 CURVE SMOOTH"
);
},
{
closed = 1;
nodes = (
"223 76 OFFCURVE",
"145 161 OFFCURVE",
"142 304 CURVE",
"568 304 LINE",
"553 160 OFFCURVE",
"472 76 OFFCURVE",
"344 76 CURVE SMOOTH"
);
}
);
width = 706;
},
{
anchors = (
{
name = bottom;
position = "{344, 0}";
},
{
name = top;
position = "{354, 710}";
}
);
layerId = m002;
paths = (
{
closed = 1;
nodes = (
"532 -14 OFFCURVE",
"645 123 OFFCURVE",
"645 356 CURVE SMOOTH",
"645 588 OFFCURVE",
"532 725 OFFCURVE",
"340 725 CURVE SMOOTH",
"185 725 OFFCURVE",
"75 630 OFFCURVE",
"45 469 CURVE",
"95 469 LINE",
"122 604 OFFCURVE",
"213 683 OFFCURVE",
"340 683 CURVE SMOOTH",
"497 683 OFFCURVE",
"592 565 OFFCURVE",
"595 365 CURVE",
"35 365 LINE",
"35 341 LINE SMOOTH",
"35 118 OFFCURVE",
"148 -14 OFFCURVE",
"340 -14 CURVE SMOOTH"
);
},
{
closed = 1;
nodes = (
"180 26 OFFCURVE",
"86 136 OFFCURVE",
"86 322 CURVE",
"594 322 LINE",
"584 136 OFFCURVE",
"490 26 OFFCURVE",
"340 26 CURVE SMOOTH"
);
}
);
width = 680;
},
{
anchors = (
{
name = bottom;
position = "{318, 0}";
},
{
name = top;
position = "{328, 710}";
}
);
layerId = "5BCD9238-7200-4447-A55E-E4A4B2A2A7AE";
paths = (
{
closed = 1;
nodes = (
"564 -14 OFFCURVE",
"685 123 OFFCURVE",
"685 355 CURVE SMOOTH",
"685 588 OFFCURVE",
"564 725 OFFCURVE",
"358 725 CURVE SMOOTH",
"196 725 OFFCURVE",
"79 627 OFFCURVE",
"43 461 CURVE",
"222 461 LINE",
"243 531 OFFCURVE",
"294 573 OFFCURVE",
"358 573 CURVE SMOOTH",
"452 573 OFFCURVE",
"510 508 OFFCURVE",
"514 397 CURVE",
"33 397 LINE",
"33 354 LINE SMOOTH",
"33 123 OFFCURVE",
"154 -14 OFFCURVE",
"358 -14 CURVE SMOOTH"
);
},
{
closed = 1;
nodes = (
"275 128 OFFCURVE",
"222 177 OFFCURVE",
"216 259 CURVE",
"503 259 LINE",
"498 177 OFFCURVE",
"444 128 OFFCURVE",
"358 128 CURVE SMOOTH"
);
}
);
width = 718;
}
);
leftKerningGroup = O;
leftMetricsKey = O;
rightKerningGroup = O;
rightMetricsKey = O;
unicode = 018F;
},
{
glyphname = F;
lastChange = "2023-10-23 16:45:39 +0000";
layers = (
{
anchors = (
{
name = bottom;
position = "{282, 0}";
},
{
name = top;
position = "{282, 710}";
}
);
hints = (
{
horizontal = 1;
origin = "{0, 2}";
target = "{0, 5}";
type = TTStem;
stem = -1;
options = 4;
},
{
horizontal = 1;
origin = "{0, 11}";
target = "{0, 8}";
type = TTStem;
stem = -1;
options = 4;
},
{
horizontal = 1;
origin = "{0, 12}";
type = Anchor;
}
);
layerId = "A40D6D23-B1DA-4472-8F2A-1C08CC11B4FE";
paths = (
{
closed = 1;
nodes = (
"151 0 LINE",
"151 368 LINE",
"106 323 LINE",
"505 323 LINE",
"505 412 LINE",
"106 412 LINE",
"151 367 LINE",
"151 667 LINE",
"106 622 LINE",
"539 622 LINE",
"539 710 LINE",
"57 710 LINE",
"57 0 LINE"
);
}
);
width = 569;
},
{
anchors = (
{
name = bottom;
position = "{279, 0}";
},
{
name = top;
position = "{279, 710}";
}
);
layerId = m002;
paths = (
{
closed = 1;
nodes = (
"102 0 LINE",
"102 370 LINE",
"67 345 LINE",
"451 345 LINE",
"451 391 LINE",
"67 391 LINE",
"102 367 LINE",
"102 668 LINE",
"67 664 LINE",
"485 664 LINE",
"485 710 LINE",
"53 710 LINE",
"53 0 LINE"
);
}
);
width = 510;
},
{
anchors = (
{
name = bottom;
position = "{281, 0}";
},
{
name = top;
position = "{281, 710}";
}
);
layerId = "5BCD9238-7200-4447-A55E-E4A4B2A2A7AE";
paths = (
{
closed = 1;
nodes = (
"212 0 LINE",
"212 365 LINE",
"153 294 LINE",
"550 294 LINE",
"550 440 LINE",
"153 440 LINE",
"212 367 LINE",
"212 666 LINE",
"153 566 LINE",
"584 566 LINE",
"584 710 LINE",
"52 710 LINE",
"52 0 LINE"
);
}
);
width = 611;
}
);
leftKerningGroup = H;
leftMetricsKey = H;
rightKerningGroup = F;
unicode = 0046;
},
{
glyphname = G;
lastChange = "2023-10-25 09:42:38 +0000";
layers = (
{
anchors = (
{
name = bottom;
position = "{353, 0}";
},
{
name = top;
position = "{353, 710}";
}
);
guideLines = (
{
angle = 180;
position = "{618, 486}";
}
);
hints = (
{
horizontal = 1;
origin = "{0, 25}";
target = "{0, 6}";
type = TTStem;
stem = -1;
options = 4;
},
{
horizontal = 1;
origin = "{0, 19}";
target = "{0, 12}";
type = TTStem;
stem = -1;
options = 4;
},
{
horizontal = 1;
origin = "{0, 6}";
target = "{0, 12}";
other1 = "{0, 15}";
type = Interpolate;
options = 4;
},
{
horizontal = 1;
origin = "{1, 6}";
type = Anchor;
},
{
horizontal = 1;
origin = "{1, 4}";
target = "{1, 1}";
type = TTStem;
stem = -1;
options = 4;
}
);
layerId = "A40D6D23-B1DA-4472-8F2A-1C08CC11B4FE";
paths = (
{
closed = 1;
nodes = (
"513 -14 OFFCURVE",
"613 96 OFFCURVE",
"626 282 CURVE",
"576 282 LINE",
"566 153 OFFCURVE",
"485 76 OFFCURVE",
"357 76 CURVE SMOOTH",
"216 76 OFFCURVE",
"133 180 OFFCURVE",
"133 356 CURVE SMOOTH",
"133 533 OFFCURVE",
"216 638 OFFCURVE",
"357 638 CURVE SMOOTH",
"473 638 OFFCURVE",
"551 582 OFFCURVE",
"568 486 CURVE",
"667 486 LINE",
"648 636 OFFCURVE",
"533 725 OFFCURVE",
"357 725 CURVE SMOOTH",
"155 725 OFFCURVE",
"35 588 OFFCURVE",
"35 356 CURVE SMOOTH",
"35 123 OFFCURVE",
"155 -14 OFFCURVE",
"357 -14 CURVE SMOOTH"
);
},
{
closed = 1;
nodes = (
"671 0 LINE",
"671 366 LINE",
"359 366 LINE",
"359 282 LINE",
"576 282 LINE",
"588 242 LINE",
"588 0 LINE"
);
}
);
width = 706;
},
{
anchors = (
{
name = bottom;
position = "{339, 0}";
},
{
name = top;
position = "{338, 710}";
}
);
layerId = m002;
paths = (
{
closed = 1;
nodes = (
"503 -14 OFFCURVE",
"609 100 OFFCURVE",
"625 292 CURVE",
"585 292 LINE",
"571 127 OFFCURVE",
"480 30 OFFCURVE",
"340 30 CURVE SMOOTH",
"180 30 OFFCURVE",
"84 151 OFFCURVE",
"84 355 CURVE SMOOTH",
"84 561 OFFCURVE",
"180 683 OFFCURVE",
"340 683 CURVE SMOOTH",
"470 683 OFFCURVE",
"562 599 OFFCURVE",
"587 456 CURVE",
"637 456 LINE",
"610 625 OFFCURVE",
"500 725 OFFCURVE",
"340 725 CURVE SMOOTH",
"148 725 OFFCURVE",
"35 588 OFFCURVE",
"35 355 CURVE SMOOTH",
"35 123 OFFCURVE",
"148 -14 OFFCURVE",
"340 -14 CURVE SMOOTH"
);
},
{
closed = 1;
nodes = (
"629 0 LINE",
"629 336 LINE",
"359 336 LINE",
"359 292 LINE",
"585 292 LINE",
"585 265 LINE",
"585 0 LINE"
);
}
);
width = 672;
},
{
anchors = (
{
name = bottom;
position = "{368, 0}";
},
{
name = top;
position = "{370, 710}";
}
);
guideLines = (
{
angle = 180;
position = "{605, 486}";
}
);
layerId = "5BCD9238-7200-4447-A55E-E4A4B2A2A7AE";
paths = (
{
closed = 1;
nodes = (
"501 -14 OFFCURVE",
"589 92 OFFCURVE",
"589 271 CURVE",
"522 271 LINE",
"503 182 OFFCURVE",
"440 129 OFFCURVE",
"353 129 CURVE SMOOTH",
"252 129 OFFCURVE",
"193 214 OFFCURVE",
"193 357 CURVE SMOOTH",
"193 499 OFFCURVE",
"255 583 OFFCURVE",
"361 583 CURVE SMOOTH",
"443 583 OFFCURVE",
"504 534 OFFCURVE",
"525 452 CURVE",
"689 452 LINE",
"674 624 OFFCURVE",
"552 725 OFFCURVE",
"361 725 CURVE SMOOTH",
"155 725 OFFCURVE",
"33 588 OFFCURVE",
"33 357 CURVE SMOOTH",
"33 124 OFFCURVE",
"152 -14 OFFCURVE",
"353 -14 CURVE SMOOTH"
);
},
{
closed = 1;
nodes = (
"694 0 LINE",
"694 401 LINE",
"336 401 LINE",
"336 271 LINE",
"522 271 LINE",
"569 229 LINE",
"569 0 LINE"
);
}
);
width = 727;
}
);
leftKerningGroup = O;
leftMetricsKey = O;
rightKerningGroup = G;
rightMetricsKey = O;
unicode = 0047;
},
{
glyphname = H;
lastChange = "2023-10-23 16:45:39 +0000";
layers = (
{
anchors = (
{
name = bottom;
position = "{328, 0}";
},
{
name = center;
position = "{328, 355}";
},
{
name = top;
position = "{328, 710}";
},
{
name = topleft;
position = "{13, 710}";
}
);
hints = (
{
horizontal = 1;
origin = "{0, 2}";
target = "{0, 11}";
type = TTStem;
stem = -1;
options = 4;
},
{
horizontal = 1;
origin = "{0, 15}";
target = "{0, 5}";
type = Align;
options = 4;
},
{
horizontal = 1;
origin = "{0, 15}";
target = "{0, 14}";
other1 = "{0, 2}";
type = Interpolate;
options = 4;
},
{
horizontal = 1;
origin = "{0, 14}";
type = Anchor;
},
{
horizontal = 1;
origin = "{0, 14}";
target = "{0, 8}";
type = Align;
options = 4;
},
{
horizontal = 1;
origin = "{0, 15}";
type = Anchor;
}
);
layerId = "A40D6D23-B1DA-4472-8F2A-1C08CC11B4FE";
paths = (
{
closed = 1;
nodes = (
"151 0 LINE",
"151 372 LINE",
"106 327 LINE",
"549 327 LINE",
"504 372 LINE",
"504 0 LINE",
"598 0 LINE",
"598 710 LINE",
"504 710 LINE",
"504 370 LINE",
"549 415 LINE",
"106 415 LINE",
"151 370 LINE",
"151 710 LINE",
"57 710 LINE",
"57 0 LINE"
);
}
);
width = 655;
},
{
anchors = (
{
name = bottom;
position = "{304, 0}";
},
{
name = center;
position = "{304, 355}";
},
{
name = top;
position = "{304, 710}";
},
{
name = topleft;
position = "{-6, 710}";
}
);
layerId = m002;
paths = (
{
closed = 1;
nodes = (
"102 0 LINE",
"102 362 LINE",
"77 347 LINE",
"530 347 LINE",
"505 362 LINE",
"505 0 LINE",
"554 0 LINE",
"554 710 LINE",
"505 710 LINE",
"505 380 LINE",
"530 393 LINE",
"77 393 LINE",
"102 380 LINE",
"102 710 LINE",
"53 710 LINE",
"53 0 LINE"
);
}
);
width = 607;
},
{
anchors = (
{
name = bottom;
position = "{340, 0}";
},
{
name = center;
position = "{340, 355}";
},
{
name = top;
position = "{340, 710}";
},
{
name = topleft;
position = "{25, 710}";
}
);
layerId = "5BCD9238-7200-4447-A55E-E4A4B2A2A7AE";
paths = (
{
closed = 1;
nodes = (
"212 0 LINE",
"212 372 LINE",
"118 299 LINE",
"561 299 LINE",
"467 372 LINE",
"467 0 LINE",
"627 0 LINE",
"627 710 LINE",
"467 710 LINE",
"467 370 LINE",
"561 443 LINE",
"118 443 LINE",
"212 370 LINE",
"212 710 LINE",
"52 710 LINE",
"52 0 LINE"
);
}
);
width = 679;
}
);
leftKerningGroup = H;
leftMetricsKey = "=l+7";
rightKerningGroup = H;
rightMetricsKey = "=l+7";
unicode = 0048;
},
{
glyphname = Hbar;
lastChange = "2023-10-23 16:45:39 +0000";
layers = (
{
components = (
{
name = H;
transform = "{1, 0, 0, 1, 31, 0}";
}
);
hints = (
{
horizontal = 1;
origin = "{0, 3}";
target = "{0, 2}";
type = TTStem;
stem = -1;
options = 4;
}
);
layerId = "A40D6D23-B1DA-4472-8F2A-1C08CC11B4FE";
paths = (
{
closed = 1;
nodes = (
"691 510 LINE",
"691 595 LINE",
"40 595 LINE",
"40 510 LINE"
);
}
);
width = 731;
},
{
components = (
{
name = H;
transform = "{1, 0, 0, 1, 45, 0}";
}
);
layerId = m002;
paths = (
{
closed = 1;
nodes = (
"647 493 LINE",
"647 537 LINE",
"36 537 LINE",
"36 493 LINE"
);
}
);
width = 683;
},
{
components = (
{
name = H;
transform = "{1, 0, 0, 1, 35, 0}";
}
);
layerId = "5BCD9238-7200-4447-A55E-E4A4B2A2A7AE";
paths = (
{
closed = 1;
nodes = (
"706 500 LINE",
"706 625 LINE",
"35 625 LINE",
"35 500 LINE"
);
}
);
width = 741;
}
);
leftKerningGroup = H;
leftMetricsKey = "=l-10";
rightKerningGroup = H;
rightMetricsKey = "=l-10";
unicode = 0126;
},
{
glyphname = I;
lastChange = "2023-10-23 17:17:45 +0000";
layers = (
{
anchors = (
{
name = bottom;
position = "{104, 0}";
},
{
name = ogonek;
position = "{332, 10}";
},
{
name = top;
position = "{104, 710}";
},
{
name = topleft;
position = "{14, 710}";
}
);
hints = (
{
horizontal = 1;
origin = "{0, 2}";
type = Anchor;
},
{
horizontal = 1;
origin = "{0, 3}";
type = Anchor;
}
);
layerId = "A40D6D23-B1DA-4472-8F2A-1C08CC11B4FE";
paths = (
{
closed = 1;
nodes = (
"151 0 LINE",
"151 710 LINE",
"57 710 LINE",
"57 0 LINE"
);
}
);
width = 208;
},
{
anchors = (
{
name = bottom;
position = "{77, 0}";
},
{
name = ogonek;
position = "{312, 10}";
},
{
name = top;
position = "{77, 710}";
},
{
name = topleft;
position = "{-13, 710}";
}
);
layerId = m002;
paths = (
{
closed = 1;
nodes = (
"102 0 LINE",
"102 710 LINE",
"53 710 LINE",
"53 0 LINE"
);
}
);
width = 155;
},
{
anchors = (
{
name = bottom;
position = "{132, 0}";
},
{
name = ogonek;
position = "{371, 10}";
},
{
name = top;
position = "{132, 710}";
},
{
name = topleft;
position = "{42, 710}";
}
);
layerId = "5BCD9238-7200-4447-A55E-E4A4B2A2A7AE";
paths = (
{
closed = 1;
nodes = (
"212 0 LINE",
"212 710 LINE",
"52 710 LINE",
"52 0 LINE"
);
}
);
width = 264;
}
);
leftKerningGroup = H;
leftMetricsKey = H;
rightKerningGroup = H;
rightMetricsKey = H;
unicode = 0049;
},
{
glyphname = J;
lastChange = "2023-10-23 16:45:39 +0000";
layers = (
{
anchors = (
{
name = bottom;
position = "{251, 0}";
},
{
name = top;
position = "{398, 710}";
}
);
hints = (
{
horizontal = 1;
origin = "{0, 15}";
target = "{0, 8}";
type = TTStem;
stem = -1;
options = 4;
},
{
horizontal = 1;
origin = "{0, 4}";
type = Anchor;
},
{
horizontal = 1;
origin = "{0, 12}";
type = Anchor;
}
);
layerId = "A40D6D23-B1DA-4472-8F2A-1C08CC11B4FE";
paths = (
{
closed = 1;
nodes = (
"378 -14 OFFCURVE",
"445 62 OFFCURVE",
"445 228 CURVE SMOOTH",
"445 710 LINE",
"350 710 LINE",
"350 247 LINE SMOOTH",
"350 126 OFFCURVE",
"313 71 OFFCURVE",
"232 71 CURVE SMOOTH",
"150 71 OFFCURVE",
"112 121 OFFCURVE",
"112 231 CURVE",
"20 231 LINE",
"20 63 OFFCURVE",
"87 -14 OFFCURVE",
"232 -14 CURVE SMOOTH"
);
}
);
width = 500;
},
{
anchors = (
{
name = bottom;
position = "{226, 0}";
},
{
name = top;
position = "{373, 710}";
}
);
layerId = m002;
paths = (
{
closed = 1;
nodes = (
"337 -14 OFFCURVE",
"397 62 OFFCURVE",
"397 228 CURVE SMOOTH",
"397 710 LINE",
"348 710 LINE",
"348 237 LINE SMOOTH",
"348 94 OFFCURVE",
"304 28 OFFCURVE",
"207 28 CURVE SMOOTH",
"110 28 OFFCURVE",
"66 92 OFFCURVE",
"66 231 CURVE",
"17 231 LINE",
"17 63 OFFCURVE",
"77 -14 OFFCURVE",
"207 -14 CURVE SMOOTH"
);
}
);
width = 448;
},
{
anchors = (
{
name = bottom;
position = "{285, 0}";
},
{
name = top;
position = "{432, 710}";
}
);
layerId = "5BCD9238-7200-4447-A55E-E4A4B2A2A7AE";
paths = (
{
closed = 1;
nodes = (
"434 -14 OFFCURVE",
"511 62 OFFCURVE",
"511 228 CURVE SMOOTH",
"511 710 LINE",
"351 710 LINE",
"351 260 LINE SMOOTH",
"351 172 OFFCURVE",
"324 131 OFFCURVE",
"266 131 CURVE SMOOTH",
"204 131 OFFCURVE",
"176 162 OFFCURVE",
"176 231 CURVE",
"20 233 LINE",
"20 64 OFFCURVE",
"97 -14 OFFCURVE",
"266 -14 CURVE SMOOTH"
);
}
);
width = 561;
}
);
leftKerningGroup = J;
rightKerningGroup = J;
rightMetricsKey = U;
unicode = 004A;
},
{
glyphname = K;
lastChange = "2023-10-23 16:45:39 +0000";
layers = (
{
anchors = (
{
name = bottom;
position = "{307, 0}";
},
{
name = top;
position = "{307, 710}";
}
);
hints = (
{
horizontal = 1;
origin = "{2, 3}";
target = "{2, 2}";
type = TTStem;
stem = -1;
options = 4;
},
{
horizontal = 1;
origin = "{1, 2}";
type = Anchor;
},
{
horizontal = 1;
origin = "{1, 2}";
target = "{3, 1}";
type = Align;
options = 4;
},
{
horizontal = 1;
origin = "{1, 3}";
type = Anchor;
},
{
horizontal = 1;
origin = "{1, 3}";
target = "{0, 3}";
type = Align;
options = 4;
},
{
horizontal = 1;
origin = "{1, 3}";
target = "{1, 2}";
other1 = "{2, 3}";
type = Interpolate;
options = 4;
}
);
layerId = "A40D6D23-B1DA-4472-8F2A-1C08CC11B4FE";
paths = (
{
closed = 1;
nodes = (
"612 0 LINE",
"296 393 LINE",
"177 393 LINE",
"492 0 LINE"
);
},
{
closed = 1;
nodes = (
"151 0 LINE",
"151 710 LINE",
"57 710 LINE",
"57 0 LINE"
);
},
{
closed = 1;
nodes = (
"290 312 LINE",
"290 398 LINE",
"89 398 LINE",
"89 312 LINE"
);
},
{
closed = 1;
nodes = (
"608 711 LINE",
"491 711 LINE",
"218 371 LINE",
"304 332 LINE"
);
}
);
width = 619;
},
{
anchors = (
{
name = bottom;
position = "{258, 0}";
},
{
name = top;
position = "{258, 710}";
}
);
layerId = m002;
paths = (
{
closed = 1;
nodes = (
"533 0 LINE",
"233 372 LINE",
"174 372 LINE",
"473 0 LINE"
);
},
{
closed = 1;
nodes = (
"102 0 LINE",
"102 710 LINE",
"53 710 LINE",
"53 0 LINE"
);
},
{
closed = 1;
nodes = (
"211 333 LINE",
"211 378 LINE",
"80 378 LINE",
"80 333 LINE"
);
},
{
closed = 1;
nodes = (
"531 711 LINE",
"472 711 LINE",
"199 371 LINE",
"235 342 LINE"
);
}
);
width = 540;
},
{
anchors = (
{
name = bottom;
position = "{368, 0}";
},
{
name = top;
position = "{368, 710}";
}
);
layerId = "5BCD9238-7200-4447-A55E-E4A4B2A2A7AE";
paths = (
{
closed = 1;
nodes = (
"700 0 LINE",
"363 421 LINE",
"166 421 LINE",
"503 0 LINE"
);
},
{
closed = 1;
nodes = (
"212 0 LINE",
"212 710 LINE",
"52 710 LINE",
"52 0 LINE"
);
},
{
closed = 1;
nodes = (
"391 283 LINE",
"391 426 LINE",
"96 426 LINE",
"96 283 LINE"
);
},
{
closed = 1;
nodes = (
"693 711 LINE",
"502 711 LINE",
"229 371 LINE",
"379 319 LINE"
);
}
);
width = 707;
}
);
leftKerningGroup = H;
leftMetricsKey = H;
rightKerningGroup = K;
rightMetricsKey = k;
unicode = 004B;
},
{
glyphname = L;
lastChange = "2023-10-23 16:45:39 +0000";
layers = (
{
anchors = (
{
name = bottom;
position = "{263, 0}";
},
{
name = center;
position = "{263, 355}";
},
{
name = top;
position = "{263, 710}";
},
{
name = topright;
position = "{305, 800}";
}
);
hints = (
{
horizontal = 1;
origin = "{0, 6}";
target = "{0, 2}";
type = TTStem;
stem = -1;
options = 4;
},
{
horizontal = 1;
origin = "{0, 5}";
type = Anchor;
}
);
layerId = "A40D6D23-B1DA-4472-8F2A-1C08CC11B4FE";
paths = (
{
closed = 1;
nodes = (
"502 0 LINE",
"502 88 LINE",
"106 88 LINE",
"151 43 LINE",
"151 710 LINE",
"57 710 LINE",
"57 0 LINE"
);
}
);
width = 532;
},
{
anchors = (
{
name = bottom;
position = "{225, 0}";
},
{
name = center;
position = "{250, 355}";
},
{
name = top;
position = "{250, 710}";
},
{
name = topright;
position = "{292, 800}";
}
);
layerId = m002;
paths = (
{
closed = 1;
nodes = (
"450 0 LINE",
"450 46 LINE",
"77 46 LINE",
"102 32 LINE",
"102 710 LINE",
"53 710 LINE",
"53 0 LINE"
);
}
);
width = 475;
},
{
anchors = (
{
name = bottom;
position = "{311, 0}";
},
{
name = center;
position = "{278, 355}";
},
{
name = top;
position = "{138, 710}";
},
{
name = topright;
position = "{310, 800}";
}
);
layerId = "5BCD9238-7200-4447-A55E-E4A4B2A2A7AE";
paths = (
{
closed = 1;
nodes = (
"529 0 LINE",
"529 144 LINE",
"142 144 LINE",
"212 58 LINE",
"212 710 LINE",
"52 710 LINE",
"52 0 LINE"
);
}
);
width = 556;
}
);
leftKerningGroup = H;
leftMetricsKey = H;
rightKerningGroup = L;
unicode = 004C;
},
{
glyphname = Lslash;
lastChange = "2023-10-23 09:36:54 +0000";
layers = (
{
components = (
{
name = L;
transform = "{1, 0, 0, 1, 30, 0}";
}
);
hints = (
{
horizontal = 1;
origin = "{0, 1}";
type = Anchor;
options = 4;
}
);
layerId = "A40D6D23-B1DA-4472-8F2A-1C08CC11B4FE";
paths = (
{
closed = 1;
nodes = (
"454 426 LINE",
"454 514 LINE",
"0 350 LINE",
"0 262 LINE"
);
}
);
width = 568;
},
{
components = (
{
name = L;
transform = "{1, 0, 0, 1, 15, 0}";
}
);
layerId = m002;
paths = (
{
closed = 1;
nodes = (
"379 426 LINE",
"379 472 LINE",
"0 334 LINE",
"0 288 LINE"
);
}
);
width = 501;
},
{
components = (
{
name = L;
transform = "{1, 0, 0, 1, 29, 0}";
}
);
layerId = "5BCD9238-7200-4447-A55E-E4A4B2A2A7AE";
paths = (
{
closed = 1;
nodes = (
"454 426 LINE",
"454 554 LINE",
"0 390 LINE",
"0 262 LINE"
);
}
);
width = 592;
}
);
leftKerningGroup = H;
rightKerningGroup = L;
unicode = 0141;
},
{
glyphname = M;
lastChange = "2023-10-24 09:04:42 +0000";
layers = (
{
anchors = (
{
name = bottom;
position = "{394, 0}";
},
{
name = top;
position = "{394, 710}";
}
);
hints = (
{
horizontal = 1;
origin = "{1, 3}";
type = Anchor;
},
{
horizontal = 1;
origin = "{1, 3}";
target = "{2, 3}";
type = Align;
options = 4;
},
{
horizontal = 1;
origin = "{1, 3}";
target = "{3, 3}";
type = Align;
options = 4;
},
{
horizontal = 1;
origin = "{1, 2}";
target = "{0, 2}";
type = Align;
options = 4;
},
{
horizontal = 1;
origin = "{1, 2}";
target = "{1, 1, 2, 3}";
type = TTStem;
stem = -1;
options = 4;
},
{
horizontal = 1;
origin = "{0, 2}";
target = "{0, 1, 3, 3}";
type = TTStem;
stem = -1;
options = 4;
},
{
horizontal = 1;
origin = "{2, 3}";
target = "{0, 3, 2, 1}";
type = TTStem;
stem = -1;
options = 4;
},
{
horizontal = 1;
origin = "{1, 2}";
target = "{2, 1}";
type = Align;
options = 4;
},
{
horizontal = 1;
origin = "{0, 2}";
target = "{3, 1}";
type = Align;
options = 4;
}
);
layerId = "A40D6D23-B1DA-4472-8F2A-1C08CC11B4FE";
paths = (
{
closed = 1;
nodes = (
"446 0 LINE",
"670 710 LINE",
"571 710 LINE",
"356 0 LINE"
);
},
{
closed = 1;
nodes = (
"154 0 LINE",
"154 710 LINE",
"60 710 LINE",
"60 0 LINE"
);
},
{
closed = 1;
nodes = (
"431 0 LINE",
"216 710 LINE",
"117 710 LINE",
"341 0 LINE"
);
},
{
closed = 1;
nodes = (
"727 0 LINE",
"727 710 LINE",
"633 710 LINE",
"633 0 LINE"
);
}
);
width = 787;
},
{
anchors = (
{
name = bottom;
position = "{351, 0}";
},
{
name = top;
position = "{351, 710}";
}
);
layerId = m002;
paths = (
{
closed = 1;
nodes = (
"379 0 LINE",
"624 710 LINE",
"575 710 LINE",
"330 0 LINE"
);
},
{
closed = 1;
nodes = (
"105 0 LINE",
"105 710 LINE",
"56 710 LINE",
"56 0 LINE"
);
},
{
closed = 1;
nodes = (
"372 0 LINE",
"127 710 LINE",
"78 710 LINE",
"323 0 LINE"
);
},
{
closed = 1;
nodes = (
"646 0 LINE",
"646 710 LINE",
"597 710 LINE",
"597 0 LINE"
);
}
);
width = 702;
},
{
anchors = (
{
name = bottom;
position = "{434, 0}";
},
{
name = top;
position = "{434, 710}";
}
);
layerId = "5BCD9238-7200-4447-A55E-E4A4B2A2A7AE";
paths = (
{
closed = 1;
nodes = (
"514 0 LINE",
"710 710 LINE",
"554 710 LINE",
"379 0 LINE"
);
},
{
closed = 1;
nodes = (
"215 0 LINE",
"215 710 LINE",
"55 710 LINE",
"55 0 LINE"
);
},
{
closed = 1;
nodes = (
"488 0 LINE",
"313 710 LINE",
"157 710 LINE",
"353 0 LINE"
);
},
{
closed = 1;
nodes = (
"812 0 LINE",
"812 710 LINE",
"652 710 LINE",
"652 0 LINE"
);
}
);
width = 867;
}
);
leftKerningGroup = H;
leftMetricsKey = "=l+10";
rightKerningGroup = H;
rightMetricsKey = "=l+10";
unicode = 004D;
},
{
glyphname = N;
lastChange = "2023-10-24 09:06:11 +0000";
layers = (
{
anchors = (
{
name = bottom;
position = "{329, 0}";
},
{
name = top;
position = "{329, 710}";
}
);
hints = (
{
horizontal = 1;
origin = "{1, 3}";
type = Anchor;
},
{
horizontal = 1;
origin = "{1, 3}";
type = Anchor;
},
{
horizontal = 1;
origin = "{1, 2}";
type = Anchor;
},
{
horizontal = 1;
origin = "{1, 3}";
target = "{0, 3}";
type = Align;
options = 4;
},
{
horizontal = 1;
origin = "{1, 2}";
target = "{2, 2}";
type = Align;
options = 4;
},
{
horizontal = 1;
origin = "{1, 2}";
target = "{0, 3, 1, 1}";
type = TTStem;
stem = -1;
options = 4;
},
{
horizontal = 1;
origin = "{0, 3}";
target = "{0, 1, 2, 3}";
type = TTStem;
stem = -1;
options = 4;
},
{
horizontal = 1;
origin = "{0, 3}";
target = "{2, 0}";
type = Align;
options = 4;
},
{
horizontal = 1;
origin = "{1, 2}";
target = "{0, 1}";
type = Align;
options = 4;
}
);
layerId = "A40D6D23-B1DA-4472-8F2A-1C08CC11B4FE";
paths = (
{
closed = 1;
nodes = (
"567 0 LINE",
"189 710 LINE",
"88 710 LINE",
"466 0 LINE"
);
},
{
closed = 1;
nodes = (
"154 0 LINE",
"154 710 LINE",
"60 710 LINE",
"60 0 LINE"
);
},
{
closed = 1;
nodes = (
"597 0 LINE",
"597 710 LINE",
"503 710 LINE",
"503 0 LINE"
);
}
);
width = 657;
},
{
anchors = (
{
name = bottom;
position = "{282, 0}";
},
{
name = top;
position = "{304, 710}";
}
);
guideLines = (
{
angle = 270;
position = "{286, 0}";
}
);
layerId = m002;
paths = (
{
closed = 1;
nodes = (
"520 0 LINE",
"124 710 LINE",
"72 710 LINE",
"468 0 LINE"
);
},
{
closed = 1;
nodes = (
"105 0 LINE",
"105 710 LINE",
"56 710 LINE",
"56 0 LINE"
);
},
{
closed = 1;
nodes = (
"536 0 LINE",
"536 710 LINE",
"487 710 LINE",
"487 0 LINE"
);
}
);
width = 592;
},
{
anchors = (
{
name = bottom;
position = "{365, 0}";
},
{
name = top;
position = "{353, 710}";
}
);
layerId = "5BCD9238-7200-4447-A55E-E4A4B2A2A7AE";
paths = (
{
closed = 1;
nodes = (
"603 0 LINE",
"247 710 LINE",
"82 710 LINE",
"438 0 LINE"
);
},
{
closed = 1;
nodes = (
"215 0 LINE",
"215 710 LINE",
"55 710 LINE",
"55 0 LINE"
);
},
{
closed = 1;
nodes = (
"635 0 LINE",
"635 710 LINE",
"475 710 LINE",
"475 0 LINE"
);
}
);
width = 690;
}
);
leftKerningGroup = H;
leftMetricsKey = "=l+10";
rightKerningGroup = H;
rightMetricsKey = "=l+10";
unicode = 004E;
},
{
glyphname = O;
lastChange = "2023-10-23 16:45:39 +0000";
layers = (
{
anchors = (
{
name = bottom;
position = "{370, 0}";
},
{
name = center;
position = "{370, 355}";
},
{
name = ogonek;
position = "{672, 10}";
},
{
name = top;
position = "{370, 710}";
},
{
name = topleft;
position = "{13, 710}";
},
{
name = topright;
position = "{727, 710}";
}
);
hints = (
{
horizontal = 1;
origin = "{0, 11}";
target = "{1, 11}";
type = TTStem;
stem = -1;
options = 4;
},
{
horizontal = 1;
origin = "{0, 5}";
target = "{1, 5}";
type = TTStem;
stem = -1;
options = 4;
}
);
layerId = "A40D6D23-B1DA-4472-8F2A-1C08CC11B4FE";
paths = (
{
closed = 1;
nodes = (
"581 -14 OFFCURVE",
"705 123 OFFCURVE",
"705 355 CURVE SMOOTH",
"705 588 OFFCURVE",
"581 725 OFFCURVE",
"370 725 CURVE SMOOTH",
"159 725 OFFCURVE",
"35 588 OFFCURVE",
"35 355 CURVE SMOOTH",
"35 123 OFFCURVE",
"159 -14 OFFCURVE",
"370 -14 CURVE SMOOTH"
);
},
{
closed = 1;
nodes = (
"219 72 OFFCURVE",
"130 177 OFFCURVE",
"130 355 CURVE SMOOTH",
"130 535 OFFCURVE",
"219 641 OFFCURVE",
"370 641 CURVE SMOOTH",
"521 641 OFFCURVE",
"610 535 OFFCURVE",
"610 355 CURVE SMOOTH",
"610 177 OFFCURVE",
"521 72 OFFCURVE",
"370 72 CURVE SMOOTH"
);
}
);
width = 740;
},
{
anchors = (
{
name = bottom;
position = "{350, 0}";
},
{
name = center;
position = "{350, 355}";
},
{
name = ogonek;
position = "{652, 10}";
},
{
name = top;
position = "{350, 710}";
},
{
name = topleft;
position = "{-7, 710}";
},
{
name = topright;
position = "{707, 710}";
}
);
layerId = m002;
paths = (
{
closed = 1;
nodes = (
"548 -14 OFFCURVE",
"665 123 OFFCURVE",
"665 355 CURVE SMOOTH",
"665 588 OFFCURVE",
"548 725 OFFCURVE",
"350 725 CURVE SMOOTH",
"152 725 OFFCURVE",
"35 588 OFFCURVE",
"35 355 CURVE SMOOTH",
"35 123 OFFCURVE",
"152 -14 OFFCURVE",
"350 -14 CURVE SMOOTH"
);
},
{
closed = 1;
nodes = (
"183 30 OFFCURVE",
"84 151 OFFCURVE",
"84 355 CURVE SMOOTH",
"84 561 OFFCURVE",
"183 683 OFFCURVE",
"350 683 CURVE SMOOTH",
"517 683 OFFCURVE",
"616 561 OFFCURVE",
"616 355 CURVE SMOOTH",
"616 151 OFFCURVE",
"517 30 OFFCURVE",
"350 30 CURVE SMOOTH"
);
}
);
width = 700;
},
{
anchors = (
{
name = bottom;
position = "{372, 0}";
},
{
name = center;
position = "{372, 355}";
},
{
name = ogonek;
position = "{674, 10}";
},
{
name = top;
position = "{372, 710}";
},
{
name = topleft;
position = "{15, 710}";
},
{
name = topright;
position = "{729, 710}";
}
);
layerId = "5BCD9238-7200-4447-A55E-E4A4B2A2A7AE";
paths = (
{
closed = 1;
nodes = (
"586 -14 OFFCURVE",
"712 123 OFFCURVE",
"712 355 CURVE SMOOTH",
"712 588 OFFCURVE",
"586 725 OFFCURVE",
"372 725 CURVE SMOOTH",
"159 725 OFFCURVE",
"33 588 OFFCURVE",
"33 355 CURVE SMOOTH",
"33 123 OFFCURVE",
"159 -14 OFFCURVE",
"372 -14 CURVE SMOOTH"
);
},
{
closed = 1;
nodes = (
"259 128 OFFCURVE",
"193 212 OFFCURVE",
"193 355 CURVE SMOOTH",
"193 498 OFFCURVE",
"259 583 OFFCURVE",
"372 583 CURVE SMOOTH",
"485 583 OFFCURVE",
"552 498 OFFCURVE",
"552 355 CURVE SMOOTH",
"552 212 OFFCURVE",
"485 128 OFFCURVE",
"372 128 CURVE SMOOTH"
);
}
);
width = 745;
}
);
leftKerningGroup = O;
leftMetricsKey = "=o+6";
rightKerningGroup = O;
rightMetricsKey = "=o+6";
unicode = 004F;
},
{
glyphname = Oslash;
lastChange = "2023-10-23 09:44:22 +0000";
layers = (
{
anchors = (
{
name = bottom;
position = "{377, 0}";
},
{
name = top;
position = "{377, 710}";
}
);
components = (
{
name = O;
}
);
hints = (
{
horizontal = 1;
origin = "{0, 2}";
type = Anchor;
options = 4;
},
{
horizontal = 1;
origin = "{0, 0}";
type = Anchor;
options = 4;
}
);
layerId = "A40D6D23-B1DA-4472-8F2A-1C08CC11B4FE";
paths = (
{
closed = 1;
nodes = (
"658 710 LINE",
"590 755 LINE",
"99 0 LINE",
"168 -45 LINE"
);
}
);
width = 740;
},
{
anchors = (
{
name = bottom;
position = "{378, 0}";
},
{
name = top;
position = "{378, 710}";
}
);
components = (
{
name = O;
}
);
layerId = m002;
paths = (
{
closed = 1;
nodes = (
"641 722 LINE",
"609 743 LINE",
"119 -12 LINE",
"151 -33 LINE"
);
}
);
width = 700;
},
{
anchors = (
{
name = bottom;
position = "{378, 0}";
},
{
name = top;
position = "{378, 710}";
}
);
components = (
{
name = O;
}
);
layerId = "5BCD9238-7200-4447-A55E-E4A4B2A2A7AE";
paths = (
{
closed = 1;
nodes = (
"679 694 LINE",
"558 772 LINE",
"67 17 LINE",
"189 -61 LINE"
);
}
);
width = 745;
}
);
leftKerningGroup = O;
leftMetricsKey = O;
rightKerningGroup = O;
rightMetricsKey = O;
unicode = 00D8;
},
{
glyphname = OE;
lastChange = "2023-10-23 16:45:39 +0000";
layers = (
{
anchors = (
{
name = bottom;
position = "{564, 0}";
},
{
name = top;
position = "{564, 710}";
}
);
guideLines = (
{
angle = -90;
position = "{697, 412}";
}
);
hints = (
{
horizontal = 1;
origin = "{0, 11}";
target = "{1, 11}";
type = TTStem;
stem = -1;
options = 4;
},
{
horizontal = 1;
origin = "{2, 17}";
target = "{2, 16}";
type = TTStem;
stem = -1;
options = 4;
},
{
horizontal = 1;
origin = "{2, 14}";
target = "{2, 11}";
type = TTStem;
stem = -1;
options = 4;
},
{
horizontal = 1;
origin = "{2, 19}";
target = "{2, 2}";
type = TTStem;
stem = -1;
options = 4;
},
{
horizontal = 1;
origin = "{0, 5}";
target = "{1, 5}";
type = TTStem;
stem = -1;
options = 4;
},
{
horizontal = 1;
origin = "{2, 14}";
target = "{2, 19}";
other1 = "{2, 5}";
type = Interpolate;
options = 4;
}
);
layerId = "A40D6D23-B1DA-4472-8F2A-1C08CC11B4FE";
paths = (
{
closed = 1;
nodes = (
"581 -14 OFFCURVE",
"655 123 OFFCURVE",
"655 355 CURVE SMOOTH",
"655 587 OFFCURVE",
"581 725 OFFCURVE",
"370 725 CURVE SMOOTH",
"159 725 OFFCURVE",
"35 587 OFFCURVE",
"35 355 CURVE SMOOTH",
"35 123 OFFCURVE",
"159 -14 OFFCURVE",
"370 -14 CURVE SMOOTH"
);
},
{
closed = 1;
nodes = (
"220 73 OFFCURVE",
"131 190 OFFCURVE",
"131 355 CURVE SMOOTH",
"131 520 OFFCURVE",
"220 640 OFFCURVE",
"370 640 CURVE SMOOTH",
"520 640 OFFCURVE",
"609 520 OFFCURVE",
"609 355 CURVE SMOOTH",
"609 190 OFFCURVE",
"520 73 OFFCURVE",
"370 73 CURVE SMOOTH"
);
},
{
closed = 1;
nodes = (
"1094 0 LINE",
"1094 87 LINE",
"654 87 LINE",
"699 42 LINE",
"699 370 LINE",
"654 325 LINE",
"1068 325 LINE",
"1068 412 LINE",
"654 412 LINE",
"699 367 LINE",
"699 668 LINE",
"654 623 LINE",
"1092 623 LINE",
"1092 710 LINE",
"604 710 LINE",
"604 560 LINE",
"627 412 LINE",
"630 325 LINE",
"604 160 LINE",
"604 0 LINE"
);
}
);
width = 1134;
},
{
anchors = (
{
name = bottom;
position = "{554, 0}";
},
{
name = top;
position = "{554, 710}";
}
);
guideLines = (
{
angle = -90;
position = "{686, 412}";
}
);
layerId = m002;
paths = (
{
closed = 1;
nodes = (
"545 -14 OFFCURVE",
"662 123 OFFCURVE",
"662 355 CURVE SMOOTH",
"662 588 OFFCURVE",
"545 725 OFFCURVE",
"350 725 CURVE SMOOTH",
"152 725 OFFCURVE",
"35 588 OFFCURVE",
"35 355 CURVE SMOOTH",
"35 123 OFFCURVE",
"152 -14 OFFCURVE",
"350 -14 CURVE SMOOTH"
);
},
{
closed = 1;
nodes = (
"183 28 OFFCURVE",
"85 149 OFFCURVE",
"85 355 CURVE SMOOTH",
"85 562 OFFCURVE",
"183 685 OFFCURVE",
"350 685 CURVE SMOOTH",
"517 685 OFFCURVE",
"615 562 OFFCURVE",
"615 355 CURVE SMOOTH",
"615 149 OFFCURVE",
"517 28 OFFCURVE",
"350 28 CURVE SMOOTH"
);
},
{
closed = 1;
nodes = (
"1058 0 LINE",
"1058 44 LINE",
"628 44 LINE",
"663 32 LINE",
"663 370 LINE",
"628 346 LINE",
"1032 346 LINE",
"1032 390 LINE",
"628 390 LINE",
"663 367 LINE",
"663 668 LINE",
"628 666 LINE",
"1056 666 LINE",
"1056 710 LINE",
"614 710 LINE",
"614 518 LINE",
"621 424 LINE",
"621 300 LINE",
"614 212 LINE",
"614 0 LINE"
);
}
);
width = 1095;
},
{
anchors = (
{
name = bottom;
position = "{562, 0}";
},
{
name = top;
position = "{562, 710}";
}
);
guideLines = (
{
angle = -90;
position = "{694, 412}";
}
);
layerId = "5BCD9238-7200-4447-A55E-E4A4B2A2A7AE";
paths = (
{
closed = 1;
nodes = (
"540 -14 OFFCURVE",
"642 123 OFFCURVE",
"642 355 CURVE SMOOTH",
"642 588 OFFCURVE",
"540 725 OFFCURVE",
"367 725 CURVE SMOOTH",
"157 725 OFFCURVE",
"33 588 OFFCURVE",
"33 355 CURVE SMOOTH",
"33 123 OFFCURVE",
"157 -14 OFFCURVE",
"367 -14 CURVE SMOOTH"
);
},
{
closed = 1;
nodes = (
"259 128 OFFCURVE",
"193 212 OFFCURVE",
"193 355 CURVE SMOOTH",
"193 498 OFFCURVE",
"259 583 OFFCURVE",
"372 583 CURVE SMOOTH",
"485 583 OFFCURVE",
"552 498 OFFCURVE",
"552 355 CURVE SMOOTH",
"552 212 OFFCURVE",
"485 128 OFFCURVE",
"372 128 CURVE SMOOTH"
);
},
{
closed = 1;
nodes = (
"1083 0 LINE",
"1083 143 LINE",
"639 143 LINE",
"698 55 LINE",
"698 370 LINE",
"639 295 LINE",
"1056 295 LINE",
"1056 438 LINE",
"639 438 LINE",
"698 367 LINE",
"698 668 LINE",
"639 567 LINE",
"1081 567 LINE",
"1081 710 LINE",
"538 710 LINE",
"538 565 LINE",
"588 445 LINE",
"588 278 LINE",
"538 186 LINE",
"538 0 LINE"
);
}
);
width = 1120;
}
);
leftKerningGroup = O;
leftMetricsKey = O;
rightKerningGroup = E;
rightMetricsKey = E;
unicode = 0152;
},
{
glyphname = P;
lastChange = "2023-10-25 08:05:17 +0000";
layers = (
{
anchors = (
{
name = bottom;
position = "{302, 0}";
},
{
name = top;
position = "{302, 710}";
}
);
hints = (
{
horizontal = 1;
origin = "{0, 2}";
target = "{1, 9}";
type = TTStem;
stem = -1;
options = 4;
},
{
horizontal = 1;
origin = "{0, 10}";
target = "{1, 1}";
type = TTStem;
stem = -1;
options = 4;
},
{
horizontal = 1;
origin = "{0, 11}";
type = Anchor;
},
{
horizontal = 1;
origin = "{0, 11}";
target = "{0, 10}";
other1 = "{0, 2}";
type = Interpolate;
options = 4;
}
);
layerId = "A40D6D23-B1DA-4472-8F2A-1C08CC11B4FE";
paths = (
{
closed = 1;
nodes = (
"152 0 LINE",
"152 331 LINE",
"107 286 LINE",
"304 286 LINE SMOOTH",
"491 286 OFFCURVE",
"567 352 OFFCURVE",
"567 497 CURVE SMOOTH",
"567 642 OFFCURVE",
"491 710 OFFCURVE",
"304 710 CURVE SMOOTH",
"57 710 LINE",
"57 0 LINE"
);
},
{
closed = 1;
nodes = (
"152 670 LINE",
"107 625 LINE",
"304 625 LINE SMOOTH",
"419 625 OFFCURVE",
"471 584 OFFCURVE",
"471 496 CURVE SMOOTH",
"471 411 OFFCURVE",
"419 372 OFFCURVE",
"304 372 CURVE SMOOTH",
"107 372 LINE",
"152 327 LINE"
);
}
);
width = 602;
},
{
anchors = (
{
name = bottom;
position = "{252, 0}";
},
{
name = top;
position = "{252, 710}";
}
);
layerId = m002;
paths = (
{
closed = 1;
nodes = (
"102 0 LINE",
"102 321 LINE",
"67 306 LINE",
"264 306 LINE SMOOTH",
"429 306 OFFCURVE",
"504 369 OFFCURVE",
"504 507 CURVE SMOOTH",
"504 646 OFFCURVE",
"429 710 OFFCURVE",
"264 710 CURVE SMOOTH",
"53 710 LINE",
"53 0 LINE"
);
},
{
closed = 1;
nodes = (
"102 690 LINE",
"67 666 LINE",
"264 666 LINE SMOOTH",
"395 666 OFFCURVE",
"454 616 OFFCURVE",
"454 506 CURVE SMOOTH",
"454 399 OFFCURVE",
"395 350 OFFCURVE",
"264 350 CURVE SMOOTH",
"67 350 LINE",
"102 337 LINE"
);
}
);
width = 539;
},
{
anchors = (
{
name = bottom;
position = "{362, 0}";
},
{
name = top;
position = "{362, 710}";
}
);
layerId = "5BCD9238-7200-4447-A55E-E4A4B2A2A7AE";
paths = (
{
closed = 1;
nodes = (
"212 0 LINE",
"212 344 LINE",
"153 259 LINE",
"330 259 LINE SMOOTH",
"533 259 OFFCURVE",
"614 323 OFFCURVE",
"614 484 CURVE SMOOTH",
"614 645 OFFCURVE",
"533 710 OFFCURVE",
"330 710 CURVE SMOOTH",
"52 710 LINE",
"52 0 LINE"
);
},
{
closed = 1;
nodes = (
"212 643 LINE",
"153 570 LINE",
"330 570 LINE SMOOTH",
"419 570 OFFCURVE",
"454 545 OFFCURVE",
"454 484 CURVE SMOOTH",
"454 425 OFFCURVE",
"419 401 OFFCURVE",
"330 401 CURVE SMOOTH",
"153 401 LINE",
"212 314 LINE"
);
}
);
width = 647;
}
);
leftKerningGroup = H;
leftMetricsKey = H;
rightKerningGroup = P;
rightMetricsKey = O;
unicode = 0050;
},
{
glyphname = Thorn;
lastChange = "2023-10-23 16:45:39 +0000";
layers = (
{
anchors = (
{
name = bottom;
position = "{301, 0}";
},
{
name = top;
position = "{301, 710}";
}
);
hints = (
{
horizontal = 1;
origin = "{0, 2}";
target = "{1, 9}";
type = TTStem;
stem = -1;
options = 4;
},
{
horizontal = 1;
origin = "{1, 1}";
target = "{0, 10}";
type = TTStem;
stem = -1;
options = 4;
},
{
horizontal = 1;
origin = "{0, 14}";
type = Anchor;
},
{
horizontal = 1;
origin = "{0, 13}";
type = Anchor;
}
);
layerId = "A40D6D23-B1DA-4472-8F2A-1C08CC11B4FE";
paths = (
{
closed = 1;
nodes = (
"151 0 LINE",
"151 202 LINE",
"106 157 LINE",
"303 157 LINE SMOOTH",
"490 157 OFFCURVE",
"566 223 OFFCURVE",
"566 368 CURVE SMOOTH",
"566 513 OFFCURVE",
"490 581 OFFCURVE",
"303 581 CURVE SMOOTH",
"106 581 LINE",
"151 536 LINE",
"151 710 LINE",
"57 710 LINE",
"57 0 LINE"
);
},
{
closed = 1;
nodes = (
"151 541 LINE",
"106 496 LINE",
"303 496 LINE SMOOTH",
"418 496 OFFCURVE",
"469 449 OFFCURVE",
"469 367 CURVE SMOOTH",
"469 286 OFFCURVE",
"418 243 OFFCURVE",
"303 243 CURVE SMOOTH",
"106 243 LINE",
"151 198 LINE"
);
}
);
width = 601;
},
{
anchors = (
{
name = bottom;
position = "{268, 0}";
},
{
name = top;
position = "{268, 710}";
}
);
layerId = m002;
paths = (
{
closed = 1;
nodes = (
"102 -10 LINE",
"102 211 LINE",
"67 166 LINE",
"264 166 LINE SMOOTH",
"429 166 OFFCURVE",
"504 229 OFFCURVE",
"504 367 CURVE SMOOTH",
"504 506 OFFCURVE",
"429 570 OFFCURVE",
"264 570 CURVE SMOOTH",
"67 570 LINE",
"102 525 LINE",
"102 710 LINE",
"53 710 LINE",
"53 -10 LINE"
);
},
{
closed = 1;
nodes = (
"102 570 LINE",
"67 525 LINE",
"264 525 LINE SMOOTH",
"394 525 OFFCURVE",
"454 475 OFFCURVE",
"454 366 CURVE SMOOTH",
"454 260 OFFCURVE",
"394 211 OFFCURVE",
"264 211 CURVE SMOOTH",
"67 211 LINE",
"102 197 LINE"
);
}
);
width = 539;
},
{
anchors = (
{
name = bottom;
position = "{297, 0}";
},
{
name = top;
position = "{297, 710}";
}
);
layerId = "5BCD9238-7200-4447-A55E-E4A4B2A2A7AE";
paths = (
{
closed = 1;
nodes = (
"212 0 LINE",
"212 228 LINE",
"153 143 LINE",
"330 143 LINE SMOOTH",
"533 143 OFFCURVE",
"614 207 OFFCURVE",
"614 368 CURVE SMOOTH",
"614 529 OFFCURVE",
"533 594 OFFCURVE",
"330 594 CURVE SMOOTH",
"167 594 LINE",
"212 549 LINE",
"212 710 LINE",
"52 710 LINE",
"52 0 LINE"
);
},
{
closed = 1;
nodes = (
"212 527 LINE",
"153 454 LINE",
"330 454 LINE SMOOTH",
"419 454 OFFCURVE",
"454 429 OFFCURVE",
"454 368 CURVE SMOOTH",
"454 309 OFFCURVE",
"419 285 OFFCURVE",
"330 285 CURVE SMOOTH",
"153 285 LINE",
"212 198 LINE"
);
}
);
width = 647;
}
);
leftKerningGroup = H;
leftMetricsKey = H;
rightKerningGroup = Thorn;
rightMetricsKey = O;
unicode = 00DE;
},
{
glyphname = Q;
lastChange = "2023-10-23 09:46:41 +0000";
layers = (
{
anchors = (
{
name = bottom;
position = "{381, 0}";
},
{
name = top;
position = "{381, 710}";
}
);
components = (
{
name = O;
}
);
hints = (
{
horizontal = 1;
origin = "{0, 5}";
type = Anchor;
}
);
layerId = "A40D6D23-B1DA-4472-8F2A-1C08CC11B4FE";
paths = (
{
closed = 1;
nodes = (
"721 93 LINE",
"600 158 LINE",
"375 284 LINE",
"375 184 LINE",
"565 81 LINE",
"721 -7 LINE"
);
}
);
width = 756;
},
{
anchors = (
{
name = bottom;
position = "{382, 0}";
},
{
name = top;
position = "{382, 710}";
}
);
components = (
{
name = O;
}
);
layerId = m002;
paths = (
{
closed = 1;
nodes = (
"689 60 LINE",
"583 118 LINE",
"376 234 LINE",
"376 184 LINE",
"566 81 LINE",
"689 10 LINE"
);
}
);
width = 724;
},
{
anchors = (
{
name = bottom;
position = "{382, 0}";
},
{
name = top;
position = "{382, 710}";
}
);
components = (
{
name = O;
}
);
layerId = "5BCD9238-7200-4447-A55E-E4A4B2A2A7AE";
paths = (
{
closed = 1;
nodes = (
"722 153 LINE",
"601 218 LINE",
"376 344 LINE",
"376 184 LINE",
"566 81 LINE",
"722 -7 LINE"
);
}
);
width = 755;
}
);
leftKerningGroup = O;
leftMetricsKey = O;
rightKerningGroup = O;
rightMetricsKey = O;
unicode = 0051;
},
{
glyphname = R;
lastChange = "2023-10-25 10:45:55 +0000";
layers = (
{
anchors = (
{
name = bottom;
position = "{310, 0}";
},
{
name = top;
position = "{310, 710}";
}
);
guideLines = (
{
angle = 270;
position = "{572, 499}";
}
);
hints = (
{
horizontal = 1;
origin = "{0, 2}";
target = "{1, 9}";
type = TTStem;
stem = -1;
options = 4;
},
{
horizontal = 1;
origin = "{0, 23}";
target = "{1, 1}";
type = TTStem;
stem = -1;
options = 4;
},
{
horizontal = 1;
origin = "{0, 24}";
type = Anchor;
},
{
horizontal = 1;
origin = "{0, 24}";
target = "{0, 9}";
type = Align;
options = 4;
},
{
horizontal = 1;
origin = "{0, 24}";
target = "{1, 1}";
other1 = "{0, 2}";
type = Interpolate;
options = 4;
},
{
horizontal = 1;
origin = "{1, 9}";
target = "{1, 8}";
type = Align;
options = 4;
},
{
horizontal = 1;
origin = "{0, 2}";
target = "{0, 3}";
type = Align;
options = 4;
},
{
horizontal = 1;
origin = "{1, 8}";
target = "{0, 3}";
type = TTStem;
stem = -1;
}
);
layerId = "A40D6D23-B1DA-4472-8F2A-1C08CC11B4FE";
paths = (
{
closed = 1;
nodes = (
"152 0 LINE",
"152 335 LINE",
"107 290 LINE",
"262 290 LINE SMOOTH",
"459 290 OFFCURVE",
"459 274 OFFCURVE",
"459 145 CURVE SMOOTH",
"459 87 OFFCURVE",
"460 36 OFFCURVE",
"486 0 CURVE",
"592 0 LINE",
"556 60 OFFCURVE",
"556 141 OFFCURVE",
"556 238 CURVE SMOOTH",
"556 306 OFFCURVE",
"516 334 OFFCURVE",
"465 345 CURVE",
"526 372 OFFCURVE",
"571 420 OFFCURVE",
"571 499 CURVE SMOOTH",
"571 644 OFFCURVE",
"495 710 OFFCURVE",
"308 710 CURVE SMOOTH",
"57 710 LINE",
"57 0 LINE"
);
},
{
closed = 1;
nodes = (
"152 669 LINE",
"107 624 LINE",
"308 624 LINE SMOOTH",
"423 624 OFFCURVE",
"474 581 OFFCURVE",
"474 499 CURVE SMOOTH",
"474 418 OFFCURVE",
"423 376 OFFCURVE",
"308 376 CURVE SMOOTH",
"107 376 LINE",
"152 331 LINE"
);
}
);
width = 627;
},
{
anchors = (
{
name = bottom;
position = "{265, 0}";
},
{
name = top;
position = "{265, 710}";
}
);
guideLines = (
{
angle = 270;
position = "{494, 507}";
}
);
layerId = m002;
paths = (
{
closed = 1;
nodes = (
"102 0 LINE",
"102 321 LINE",
"57 306 LINE",
"251 306 LINE SMOOTH",
"448 306 OFFCURVE",
"448 274 OFFCURVE",
"448 145 CURVE SMOOTH",
"448 87 OFFCURVE",
"454 38 OFFCURVE",
"474 0 CURVE",
"531 0 LINE",
"501 60 OFFCURVE",
"495 121 OFFCURVE",
"495 218 CURVE SMOOTH",
"495 295 OFFCURVE",
"458 322 OFFCURVE",
"416 333 CURVE",
"478 363 OFFCURVE",
"508 420 OFFCURVE",
"508 507 CURVE SMOOTH",
"508 646 OFFCURVE",
"433 710 OFFCURVE",
"268 710 CURVE SMOOTH",
"53 710 LINE",
"53 0 LINE"
);
},
{
closed = 1;
nodes = (
"102 690 LINE",
"67 666 LINE",
"268 666 LINE SMOOTH",
"398 666 OFFCURVE",
"458 616 OFFCURVE",
"458 506 CURVE SMOOTH",
"458 399 OFFCURVE",
"398 351 OFFCURVE",
"268 351 CURVE SMOOTH",
"67 351 LINE",
"102 337 LINE"
);
}
);
width = 566;
},
{
anchors = (
{
name = bottom;
position = "{323, 0}";
},
{
name = top;
position = "{333, 710}";
}
);
guideLines = (
{
angle = 270;
position = "{550, 499}";
}
);
layerId = "5BCD9238-7200-4447-A55E-E4A4B2A2A7AE";
paths = (
{
closed = 1;
nodes = (
"212 0 LINE",
"212 354 LINE",
"167 269 LINE",
"265 269 LINE SMOOTH",
"428 269 OFFCURVE",
"433 267 OFFCURVE",
"433 145 CURVE SMOOTH",
"433 85 OFFCURVE",
"436 37 OFFCURVE",
"450 0 CURVE",
"620 0 LINE",
"601 54 OFFCURVE",
"595 126 OFFCURVE",
"595 245 CURVE SMOOTH",
"595 294 OFFCURVE",
"575 330 OFFCURVE",
"489 345 CURVE",
"562 357 OFFCURVE",
"614 417 OFFCURVE",
"614 489 CURVE SMOOTH",
"614 650 OFFCURVE",
"537 710 OFFCURVE",
"330 710 CURVE SMOOTH",
"52 710 LINE",
"52 0 LINE"
);
},
{
closed = 1;
nodes = (
"212 641 LINE",
"153 570 LINE",
"330 570 LINE SMOOTH",
"421 570 OFFCURVE",
"454 548 OFFCURVE",
"454 489 CURVE SMOOTH",
"454 430 OFFCURVE",
"422 409 OFFCURVE",
"330 409 CURVE SMOOTH",
"153 409 LINE",
"212 323 LINE"
);
}
);
width = 653;
}
);
leftKerningGroup = H;
leftMetricsKey = H;
rightKerningGroup = R;
rightMetricsKey = O;
unicode = 0052;
},
{
glyphname = S;
lastChange = "2023-12-04 09:44:12 +0000";
layers = (
{
anchors = (
{
name = bottom;
position = "{317, 0}";
},
{
name = top;
position = "{317, 710}";
}
);
hints = (
{
horizontal = 1;
origin = "{0, 37}";
target = "{0, 30}";
type = TTStem;
stem = -1;
options = 4;
},
{
horizontal = 1;
origin = "{0, 18}";
target = "{0, 11}";
type = TTStem;
stem = -1;
options = 4;
},
{
horizontal = 1;
origin = "{0, 30}";
target = "{0, 11}";
other1 = "{0, 24}";
type = Interpolate;
options = 4;
},
{
horizontal = 1;
origin = "{0, 11}";
target = "{0, 24}";
other1 = "{0, 14}";
type = Interpolate;
options = 4;
},
{
horizontal = 1;
origin = "{0, 30}";
target = "{0, 24}";
other1 = "{0, 33}";
type = Interpolate;
options = 4;
}
);
layerId = "A40D6D23-B1DA-4472-8F2A-1C08CC11B4FE";
paths = (
{
closed = 1;
nodes = (
"489 -14 OFFCURVE",
"599 74 OFFCURVE",
"599 210 CURVE SMOOTH",
"599 348 OFFCURVE",
"468 392 OFFCURVE",
"331 407 CURVE SMOOTH",
"236 417 OFFCURVE",
"141 427 OFFCURVE",
"141 522 CURVE SMOOTH",
"141 592 OFFCURVE",
"208 638 OFFCURVE",
"312 638 CURVE SMOOTH",
"408 638 OFFCURVE",
"472 583 OFFCURVE",
"476 497 CURVE",
"574 497 LINE",
"570 635 OFFCURVE",
"467 725 OFFCURVE",
"312 725 CURVE SMOOTH",
"149 725 OFFCURVE",
"43 638 OFFCURVE",
"43 504 CURVE SMOOTH",
"43 369 OFFCURVE",
"172 329 OFFCURVE",
"306 313 CURVE SMOOTH",
"401 302 OFFCURVE",
"497 290 OFFCURVE",
"497 194 CURVE",
"497 123 OFFCURVE",
"427 77 OFFCURVE",
"319 77 CURVE SMOOTH",
"205 77 OFFCURVE",
"132 134 OFFCURVE",
"132 221 CURVE",
"32 221 LINE",
"35 78 OFFCURVE",
"148 -14 OFFCURVE",
"319 -14 CURVE SMOOTH"
);
}
);
width = 631;
},
{
anchors = (
{
name = bottom;
position = "{297, 0}";
},
{
name = top;
position = "{288, 710}";
}
);
layerId = m002;
paths = (
{
closed = 1;
nodes = (
"438 -14 OFFCURVE",
"561 56 OFFCURVE",
"561 197 CURVE SMOOTH",
"561 325 OFFCURVE",
"438 364 OFFCURVE",
"311 385 CURVE SMOOTH",
"206 402 OFFCURVE",
"93 425 OFFCURVE",
"93 523 CURVE SMOOTH",
"93 630 OFFCURVE",
"181 681 OFFCURVE",
"288 681 CURVE SMOOTH",
"398 681 OFFCURVE",
"479 606 OFFCURVE",
"484 497 CURVE",
"534 497 LINE",
"530 634 OFFCURVE",
"425 725 OFFCURVE",
"288 725 CURVE SMOOTH",
"154 725 OFFCURVE",
"43 657 OFFCURVE",
"43 523 CURVE SMOOTH",
"43 398 OFFCURVE",
"163 360 OFFCURVE",
"286 338 CURVE SMOOTH",
"394 319 OFFCURVE",
"511 297 OFFCURVE",
"511 197 CURVE",
"511 83 OFFCURVE",
"411 32 OFFCURVE",
"297 32 CURVE SMOOTH",
"178 32 OFFCURVE",
"84 102 OFFCURVE",
"84 221 CURVE",
"32 221 LINE",
"35 75 OFFCURVE",
"151 -14 OFFCURVE",
"297 -14 CURVE SMOOTH"
);
}
);
width = 593;
},
{
anchors = (
{
name = bottom;
position = "{336, 0}";
},
{
name = top;
position = "{324, 710}";
}
);
layerId = "5BCD9238-7200-4447-A55E-E4A4B2A2A7AE";
paths = (
{
closed = 1;
nodes = (
"528 -14 OFFCURVE",
"633 68 OFFCURVE",
"633 218 CURVE SMOOTH",
"633 404 OFFCURVE",
"468 426 OFFCURVE",
"343 442 CURVE SMOOTH",
"253 454 OFFCURVE",
"204 466 OFFCURVE",
"204 510 CURVE SMOOTH",
"204 555 OFFCURVE",
"247 579 OFFCURVE",
"325 579 CURVE SMOOTH",
"404 579 OFFCURVE",
"448 541 OFFCURVE",
"448 472 CURVE",
"616 472 LINE",
"612 635 OFFCURVE",
"509 725 OFFCURVE",
"325 725 CURVE SMOOTH",
"138 725 OFFCURVE",
"36 641 OFFCURVE",
"36 489 CURVE SMOOTH",
"36 328 OFFCURVE",
"196 295 OFFCURVE",
"319 277 CURVE SMOOTH",
"395 266 OFFCURVE",
"461 256 OFFCURVE",
"461 206 CURVE",
"461 158 OFFCURVE",
"417 132 OFFCURVE",
"336 132 CURVE SMOOTH",
"252 132 OFFCURVE",
"202 173 OFFCURVE",
"196 248 CURVE",
"28 248 LINE",
"32 79 OFFCURVE",
"141 -14 OFFCURVE",
"336 -14 CURVE SMOOTH"
);
}
);
width = 661;
}
);
leftKerningGroup = S;
leftMetricsKey = s;
rightKerningGroup = S;
rightMetricsKey = s;
unicode = 0053;
},
{
glyphname = Saltillo;
lastChange = "2023-10-23 09:53:17 +0000";
layers = (
{
guideLines = (
{
position = "{477, 730}";
},
{
position = "{512, 237}";
}
);
hints = (
{
horizontal = 1;
origin = "{0, 3}";
type = Anchor;
},
{
horizontal = 1;
origin = "{0, 2}";
type = Anchor;
}
);
layerId = "A40D6D23-B1DA-4472-8F2A-1C08CC11B4FE";
paths = (
{
closed = 1;
nodes = (
"293 237 LINE",
"299 730 LINE",
"199 730 LINE",
"205 237 LINE"
);
}
);
width = 498;
},
{
guideLines = (
{
position = "{435, 730}";
},
{
position = "{470, 237}";
}
);
layerId = m002;
paths = (
{
closed = 1;
nodes = (
"230 237 LINE",
"236 730 LINE",
"180 730 LINE",
"186 237 LINE"
);
}
);
width = 416;
},
{
guideLines = (
{
position = "{490, 730}";
},
{
position = "{525, 237}";
}
);
layerId = "5BCD9238-7200-4447-A55E-E4A4B2A2A7AE";
paths = (
{
closed = 1;
nodes = (
"340 237 LINE",
"346 730 LINE",
"180 730 LINE",
"186 237 LINE"
);
}
);
width = 526;
}
);
leftKerningGroup = Saltillo;
rightKerningGroup = Saltillo;
unicode = A78B;
},
{
glyphname = Scommaaccent;
lastChange = "2023-10-20 17:55:12 +0000";
layers = (
{
components = (
{
name = S;
}
);
layerId = "A40D6D23-B1DA-4472-8F2A-1C08CC11B4FE";
paths = (
{
closed = 1;
nodes = (
"324 -251 LINE",
"381 -78 LINE",
"294 -78 LINE",
"257 -251 LINE"
);
}
);
width = 633;
},
{
components = (
{
name = S;
}
);
layerId = m002;
paths = (
{
closed = 1;
nodes = (
"305 -251 LINE",
"362 -78 LINE",
"315 -78 LINE",
"278 -251 LINE"
);
}
);
width = 593;
},
{
components = (
{
name = S;
}
);
layerId = "5BCD9238-7200-4447-A55E-E4A4B2A2A7AE";
paths = (
{
closed = 1;
nodes = (
"361 -251 LINE",
"418 -78 LINE",
"273 -78 LINE",
"236 -251 LINE"
);
}
);
width = 663;
}
);
leftKerningGroup = S;
leftMetricsKey = S;
rightKerningGroup = S;
rightMetricsKey = S;
unicode = 0218;
},
{
glyphname = Germandbls;
lastChange = "2023-10-23 16:45:39 +0000";
layers = (
{
anchors = (
{
name = bottom;
position = "{325, 0}";
},
{
name = top;
position = "{325, 710}";
}
);
hints = (
{
horizontal = 1;
origin = "{0, 39}";
target = "{0, 32}";
type = TTStem;
stem = -1;
options = 4;
},
{
horizontal = 1;
origin = "{0, 11}";
target = "{0, 20}";
type = TTStem;
stem = -1;
options = 4;
},
{
horizontal = 1;
origin = "{0, 15}";
target = "{0, 36}";
type = TTStem;
stem = -1;
options = 4;
}
);
layerId = "A40D6D23-B1DA-4472-8F2A-1C08CC11B4FE";
paths = (
{
closed = 1;
nodes = (
"558 -14 OFFCURVE",
"621 41 OFFCURVE",
"621 160 CURVE SMOOTH",
"621 352 OFFCURVE",
"351 272 OFFCURVE",
"351 373 CURVE SMOOTH",
"351 392 OFFCURVE",
"366 417 OFFCURVE",
"399 453 CURVE SMOOTH",
"563 632 LINE",
"563 710 LINE",
"265 710 LINE SMOOTH",
"128 710 OFFCURVE",
"60 637 OFFCURVE",
"60 490 CURVE SMOOTH",
"60 0 LINE",
"154 0 LINE",
"154 463 LINE SMOOTH",
"154 595 OFFCURVE",
"181 625 OFFCURVE",
"296 625 CURVE SMOOTH",
"490 625 LINE",
"473 661 LINE",
"326 498 LINE SMOOTH",
"277 443 OFFCURVE",
"255 404 OFFCURVE",
"255 373 CURVE SMOOTH",
"255 176 OFFCURVE",
"531 281 OFFCURVE",
"531 148 CURVE SMOOTH",
"531 93 OFFCURVE",
"496 68 OFFCURVE",
"421 68 CURVE SMOOTH",
"343 68 OFFCURVE",
"307 98 OFFCURVE",
"307 164 CURVE",
"219 164 LINE",
"219 42 OFFCURVE",
"282 -14 OFFCURVE",
"421 -14 CURVE SMOOTH"
);
}
);
width = 650;
},
{
anchors = (
{
name = bottom;
position = "{278, 0}";
},
{
name = top;
position = "{278, 710}";
}
);
layerId = m002;
paths = (
{
closed = 1;
nodes = (
"492 -14 OFFCURVE",
"558 42 OFFCURVE",
"552 148 CURVE SMOOTH",
"542 330 OFFCURVE",
"291 229 OFFCURVE",
"291 373 CURVE SMOOTH",
"291 396 OFFCURVE",
"306 426 OFFCURVE",
"335 459 CURVE SMOOTH",
"516 666 LINE",
"516 710 LINE",
"234 710 LINE SMOOTH",
"117 710 OFFCURVE",
"56 645 OFFCURVE",
"56 520 CURVE SMOOTH",
"56 0 LINE",
"105 0 LINE",
"105 520 LINE SMOOTH",
"105 616 OFFCURVE",
"149 666 OFFCURVE",
"234 666 CURVE SMOOTH",
"465 666 LINE",
"478 691 LINE",
"286 474 LINE SMOOTH",
"256 440 OFFCURVE",
"241 406 OFFCURVE",
"241 373 CURVE SMOOTH",
"241 183 OFFCURVE",
"493 282 OFFCURVE",
"503 148 CURVE SMOOTH",
"509 68 OFFCURVE",
"459 26 OFFCURVE",
"377 26 CURVE SMOOTH",
"295 26 OFFCURVE",
"252 73 OFFCURVE",
"252 164 CURVE",
"202 164 LINE",
"202 47 OFFCURVE",
"262 -14 OFFCURVE",
"377 -14 CURVE SMOOTH"
);
}
);
width = 581;
},
{
anchors = (
{
name = bottom;
position = "{388, 0}";
},
{
name = top;
position = "{388, 710}";
}
);
layerId = "5BCD9238-7200-4447-A55E-E4A4B2A2A7AE";
paths = (
{
closed = 1;
nodes = (
"634 -14 OFFCURVE",
"712 51 OFFCURVE",
"709 180 CURVE SMOOTH",
"704 385 OFFCURVE",
"421 298 OFFCURVE",
"421 362 CURVE SMOOTH",
"421 389 OFFCURVE",
"426 394 OFFCURVE",
"505 472 CURVE SMOOTH",
"622 587 LINE",
"622 710 LINE",
"307 710 LINE SMOOTH",
"140 710 OFFCURVE",
"55 623 OFFCURVE",
"55 450 CURVE SMOOTH",
"55 0 LINE",
"215 0 LINE",
"215 387 LINE SMOOTH",
"215 565 OFFCURVE",
"223 574 OFFCURVE",
"379 574 CURVE SMOOTH",
"524 574 LINE",
"472 621 LINE",
"380 530 LINE SMOOTH",
"281 432 OFFCURVE",
"279 403 OFFCURVE",
"279 365 CURVE SMOOTH",
"279 139 OFFCURVE",
"574 250 OFFCURVE",
"574 168 CURVE SMOOTH",
"574 135 OFFCURVE",
"533 111 OFFCURVE",
"479 111 CURVE SMOOTH",
"414 111 OFFCURVE",
"376 135 OFFCURVE",
"376 174 CURVE",
"242 174 LINE",
"242 51 OFFCURVE",
"324 -14 OFFCURVE",
"479 -14 CURVE SMOOTH"
);
}
);
width = 736;
}
);
leftKerningGroup = H;
leftMetricsKey = "=l+10";
rightKerningGroup = Germandbls;
rightMetricsKey = o;
unicode = 1E9E;
},
{
glyphname = T;
lastChange = "2023-10-25 08:06:41 +0000";
layers = (
{
anchors = (
{
name = bottom;
position = "{293, 0}";
},
{
name = center;
position = "{293, 355}";
},
{
name = top;
position = "{293, 710}";
}
);
hints = (
{
horizontal = 1;
origin = "{0, 5}";
target = "{0, 6}";
type = TTStem;
stem = -1;
options = 4;
},
{
horizontal = 1;
origin = "{0, 9}";
type = Anchor;
},
{
horizontal = 1;
origin = "{0, 6}";
target = "{0, 3}";
type = Align;
options = 4;
}
);
layerId = "A40D6D23-B1DA-4472-8F2A-1C08CC11B4FE";
paths = (
{
closed = 1;
nodes = (
"340 0 LINE",
"340 667 LINE",
"296 622 LINE",
"565 622 LINE",
"565 710 LINE",
"20 710 LINE",
"20 622 LINE",
"290 622 LINE",
"246 667 LINE",
"246 0 LINE"
);
}
);
width = 585;
},
{
anchors = (
{
name = bottom;
position = "{268, 0}";
},
{
name = center;
position = "{274, 355}";
},
{
name = top;
position = "{274, 710}";
}
);
layerId = m002;
paths = (
{
closed = 1;
nodes = (
"298 0 LINE",
"298 707 LINE",
"277 664 LINE",
"533 664 LINE",
"533 710 LINE",
"15 710 LINE",
"15 664 LINE",
"271 664 LINE",
"249 707 LINE",
"249 0 LINE"
);
}
);
width = 548;
},
{
anchors = (
{
name = bottom;
position = "{330, 0}";
},
{
name = center;
position = "{322, 355}";
},
{
name = top;
position = "{322, 710}";
}
);
layerId = "5BCD9238-7200-4447-A55E-E4A4B2A2A7AE";
paths = (
{
closed = 1;
nodes = (
"402 0 LINE",
"402 614 LINE",
"325 566 LINE",
"624 566 LINE",
"624 710 LINE",
"17 710 LINE",
"17 566 LINE",
"319 566 LINE",
"242 614 LINE",
"242 0 LINE"
);
}
);
width = 641;
}
);
leftKerningGroup = T;
rightKerningGroup = T;
unicode = 0054;
},
{
glyphname = Tcommaaccent;
lastChange = "2023-10-20 17:55:12 +0000";
layers = (
{
components = (
{
name = T;
}
);
layerId = "A40D6D23-B1DA-4472-8F2A-1C08CC11B4FE";
paths = (
{
closed = 1;
nodes = (
"284 -251 LINE",
"341 -78 LINE",
"254 -78 LINE",
"217 -251 LINE"
);
}
);
width = 585;
},
{
components = (
{
name = T;
}
);
layerId = m002;
paths = (
{
closed = 1;
nodes = (
"243 -251 LINE",
"300 -78 LINE",
"253 -78 LINE",
"216 -251 LINE"
);
}
);
width = 548;
},
{
components = (
{
name = T;
}
);
layerId = "5BCD9238-7200-4447-A55E-E4A4B2A2A7AE";
paths = (
{
closed = 1;
nodes = (
"334 -251 LINE",
"391 -78 LINE",
"246 -78 LINE",
"209 -251 LINE"
);
}
);
width = 641;
}
);
leftKerningGroup = T;
leftMetricsKey = T;
rightKerningGroup = T;
rightMetricsKey = T;
unicode = 021A;
},
{
glyphname = U;
lastChange = "2023-10-25 08:06:23 +0000";
layers = (
{
anchors = (
{
name = bottom;
position = "{324, 0}";
},
{
name = ogonek;
position = "{581, 10}";
},
{
name = top;
position = "{324, 710}";
},
{
name = topright;
position = "{629, 710}";
}
);
hints = (
{
horizontal = 1;
origin = "{0, 13}";
type = Anchor;
},
{
horizontal = 1;
origin = "{0, 17}";
target = "{0, 8}";
type = TTStem;
stem = -1;
options = 4;
},
{
horizontal = 1;
origin = "{0, 13}";
target = "{0, 4}";
type = Align;
options = 4;
}
);
layerId = "A40D6D23-B1DA-4472-8F2A-1C08CC11B4FE";
paths = (
{
closed = 1;
nodes = (
"500 -14 OFFCURVE",
"592 77 OFFCURVE",
"592 250 CURVE",
"592 710 LINE",
"497 710 LINE",
"497 269 LINE",
"497 140 OFFCURVE",
"438 73 OFFCURVE",
"324 73 CURVE",
"210 73 OFFCURVE",
"150 140 OFFCURVE",
"150 269 CURVE",
"150 710 LINE",
"55 710 LINE",
"55 250 LINE",
"55 77 OFFCURVE",
"147 -14 OFFCURVE",
"324 -14 CURVE"
);
}
);
width = 647;
},
{
anchors = (
{
name = bottom;
position = "{297, 0}";
},
{
name = ogonek;
position = "{554, 10}";
},
{
name = top;
position = "{297, 710}";
},
{
name = topright;
position = "{602, 710}";
}
);
layerId = m002;
paths = (
{
closed = 1;
nodes = (
"458 -14 OFFCURVE",
"542 77 OFFCURVE",
"542 252 CURVE",
"542 710 LINE",
"493 710 LINE",
"493 259 LINE",
"493 106 OFFCURVE",
"426 26 OFFCURVE",
"297 26 CURVE",
"168 26 OFFCURVE",
"100 106 OFFCURVE",
"100 259 CURVE",
"100 710 LINE",
"51 710 LINE",
"51 252 LINE",
"51 77 OFFCURVE",
"135 -14 OFFCURVE",
"297 -14 CURVE"
);
}
);
width = 593;
},
{
anchors = (
{
name = bottom;
position = "{334, 0}";
},
{
name = ogonek;
position = "{591, 10}";
},
{
name = top;
position = "{339, 710}";
},
{
name = topright;
position = "{639, 710}";
}
);
layerId = "5BCD9238-7200-4447-A55E-E4A4B2A2A7AE";
paths = (
{
closed = 1;
nodes = (
"521 -14 OFFCURVE",
"628 83 OFFCURVE",
"628 247 CURVE SMOOTH",
"628 710 LINE",
"463 710 LINE",
"463 282 LINE SMOOTH",
"463 190 OFFCURVE",
"417 135 OFFCURVE",
"339 135 CURVE SMOOTH",
"261 135 OFFCURVE",
"215 190 OFFCURVE",
"215 282 CURVE SMOOTH",
"215 710 LINE",
"50 710 LINE",
"50 247 LINE SMOOTH",
"50 83 OFFCURVE",
"157 -14 OFFCURVE",
"339 -14 CURVE SMOOTH"
);
}
);
width = 678;
}
);
leftKerningGroup = U;
leftMetricsKey = "=l+5";
rightKerningGroup = U;
rightMetricsKey = "=l+5";
unicode = 0055;
},
{
glyphname = V;
lastChange = "2023-10-23 16:45:39 +0000";
layers = (
{
anchors = (
{
name = bottom;
position = "{321, 0}";
},
{
name = top;
position = "{321, 710}";
}
);
hints = (
{
horizontal = 1;
place = "{0, 121}";
type = TTStem;
stem = -1;
options = 4;
},
{
horizontal = 1;
origin = "{0, 1}";
target = "{0, 2}";
type = TTStem;
stem = -1;
options = 4;
},
{
horizontal = 1;
origin = "{1, 3}";
type = Anchor;
},
{
horizontal = 1;
origin = "{1, 1}";
target = "{1, 2}";
type = TTStem;
stem = -1;
options = 4;
}
);
layerId = "A40D6D23-B1DA-4472-8F2A-1C08CC11B4FE";
paths = (
{
closed = 1;
nodes = (
"375 0 LINE",
"635 710 LINE",
"525 710 LINE",
"279 0 LINE"
);
},
{
closed = 1;
nodes = (
"363 0 LINE",
"117 710 LINE",
"7 710 LINE",
"267 0 LINE"
);
}
);
width = 642;
},
{
anchors = (
{
name = bottom;
position = "{294, 0}";
},
{
name = top;
position = "{294, 710}";
}
);
layerId = m002;
paths = (
{
closed = 1;
nodes = (
"321 0 LINE",
"581 710 LINE",
"526 710 LINE",
"273 0 LINE"
);
},
{
closed = 1;
nodes = (
"315 0 LINE",
"62 710 LINE",
"7 710 LINE",
"267 0 LINE"
);
}
);
width = 588;
},
{
anchors = (
{
name = bottom;
position = "{357, 0}";
},
{
name = top;
position = "{357, 710}";
}
);
layerId = "5BCD9238-7200-4447-A55E-E4A4B2A2A7AE";
paths = (
{
closed = 1;
nodes = (
"447 0 LINE",
"707 710 LINE",
"524 710 LINE",
"287 0 LINE"
);
},
{
closed = 1;
nodes = (
"427 0 LINE",
"191 710 LINE",
"7 710 LINE",
"267 0 LINE"
);
}
);
width = 714;
}
);
leftKerningGroup = V;
leftMetricsKey = v;
rightKerningGroup = V;
rightMetricsKey = v;
unicode = 0056;
},
{
glyphname = W;
lastChange = "2023-10-23 10:00:27 +0000";
layers = (
{
anchors = (
{
name = bottom;
position = "{475, 0}";
},
{
name = top;
position = "{475, 710}";
}
);
hints = (
{
horizontal = 1;
origin = "{0, 12}";
type = Anchor;
},
{
horizontal = 1;
origin = "{0, 12}";
target = "{0, 2}";
type = Align;
options = 4;
},
{
horizontal = 1;
origin = "{0, 11}";
type = Anchor;
},
{
horizontal = 1;
origin = "{0, 11}";
target = "{0, 8}";
type = Align;
options = 4;
},
{
horizontal = 1;
origin = "{0, 11}";
target = "{0, 5}";
type = Align;
options = 4;
}
);
layerId = "A40D6D23-B1DA-4472-8F2A-1C08CC11B4FE";
paths = (
{
closed = 1;
nodes = (
"330 0 LINE",
"474 569 LINE",
"616 0 LINE",
"729 0 LINE",
"937 710 LINE",
"831 710 LINE",
"673 140 LINE",
"534 710 LINE",
"412 710 LINE",
"274 142 LINE",
"117 710 LINE",
"10 710 LINE",
"218 0 LINE"
);
}
);
width = 947;
},
{
anchors = (
{
name = bottom;
position = "{442, 0}";
},
{
name = top;
position = "{442, 710}";
}
);
layerId = m002;
paths = (
{
closed = 1;
nodes = (
"264 0 LINE",
"442 634 LINE",
"619 0 LINE",
"673 0 LINE",
"873 710 LINE",
"818 710 LINE",
"646 64 LINE",
"474 710 LINE",
"409 710 LINE",
"237 64 LINE",
"65 710 LINE",
"10 710 LINE",
"210 0 LINE"
);
}
);
width = 883;
},
{
anchors = (
{
name = bottom;
position = "{519, 0}";
},
{
name = top;
position = "{519, 710}";
}
);
layerId = "5BCD9238-7200-4447-A55E-E4A4B2A2A7AE";
paths = (
{
closed = 1;
nodes = (
"400 0 LINE",
"517 452 LINE",
"631 0 LINE",
"795 0 LINE",
"1023 710 LINE",
"844 710 LINE",
"714 253 LINE",
"610 710 LINE",
"421 710 LINE",
"319 257 LINE",
"191 710 LINE",
"10 710 LINE",
"238 0 LINE"
);
}
);
width = 1033;
}
);
leftKerningGroup = V;
leftMetricsKey = "=v+3";
rightKerningGroup = V;
rightMetricsKey = "=v+3";
unicode = 0057;
},
{
glyphname = X;
lastChange = "2023-10-23 10:01:32 +0000";
layers = (
{
anchors = (
{
name = bottom;
position = "{320, 0}";
},
{
name = top;
position = "{320, 710}";
}
);
hints = (
{
horizontal = 1;
origin = "{0, 9}";
type = Anchor;
},
{
horizontal = 1;
origin = "{0, 11}";
type = Anchor;
},
{
horizontal = 1;
origin = "{0, 11}";
target = "{0, 2}";
type = Align;
options = 4;
},
{
horizontal = 1;
origin = "{0, 9}";
target = "{0, 6}";
type = Align;
options = 4;
}
);
layerId = "A40D6D23-B1DA-4472-8F2A-1C08CC11B4FE";
paths = (
{
closed = 1;
nodes = (
"130 0 LINE",
"319 284 LINE",
"512 0 LINE",
"633 0 LINE",
"383 365 LINE",
"628 710 LINE",
"502 710 LINE",
"322 442 LINE",
"146 710 LINE",
"25 710 LINE",
"262 365 LINE",
"7 0 LINE"
);
}
);
width = 640;
},
{
anchors = (
{
name = bottom;
position = "{287, 0}";
},
{
name = top;
position = "{287, 710}";
}
);
layerId = m002;
paths = (
{
closed = 1;
nodes = (
"68 0 LINE",
"287 315 LINE",
"507 0 LINE",
"568 0 LINE",
"317 363 LINE",
"560 710 LINE",
"501 710 LINE",
"291 410 LINE",
"83 710 LINE",
"25 710 LINE",
"261 365 LINE",
"7 0 LINE"
);
}
);
width = 575;
},
{
anchors = (
{
name = bottom;
position = "{364, 0}";
},
{
name = top;
position = "{364, 710}";
}
);
layerId = "5BCD9238-7200-4447-A55E-E4A4B2A2A7AE";
paths = (
{
closed = 1;
nodes = (
"212 0 LINE",
"360 240 LINE",
"509 0 LINE",
"723 0 LINE",
"475 368 LINE",
"712 710 LINE",
"507 710 LINE",
"370 487 LINE",
"236 710 LINE",
"25 710 LINE",
"254 365 LINE",
"7 0 LINE"
);
}
);
width = 730;
}
);
leftKerningGroup = X;
leftMetricsKey = v;
rightKerningGroup = X;
rightMetricsKey = v;
unicode = 0058;
},
{
glyphname = Y;
lastChange = "2023-10-23 10:01:55 +0000";
layers = (
{
anchors = (
{
name = bottom;
position = "{322, 0}";
},
{
name = top;
position = "{322, 710}";
},
{
name = topleft;
position = "{20, 710}";
}
);
hints = (
{
horizontal = 1;
origin = "{0, 11}";
type = Anchor;
},
{
horizontal = 1;
origin = "{0, 8}";
type = Anchor;
},
{
horizontal = 1;
origin = "{0, 8}";
target = "{0, 4}";
type = Align;
options = 4;
}
);
layerId = "A40D6D23-B1DA-4472-8F2A-1C08CC11B4FE";
paths = (
{
closed = 1;
nodes = (
"371 0 LINE",
"371 315 LINE",
"348 231 LINE",
"637 710 LINE",
"519 710 LINE",
"300 327 LINE",
"344 327 LINE",
"125 710 LINE",
"7 710 LINE",
"296 231 LINE",
"273 315 LINE",
"273 0 LINE"
);
}
);
width = 644;
},
{
anchors = (
{
name = bottom;
position = "{292, 0}";
},
{
name = top;
position = "{292, 710}";
},
{
name = topleft;
position = "{-10, 710}";
}
);
layerId = m002;
paths = (
{
closed = 1;
nodes = (
"316 0 LINE",
"316 315 LINE",
"288 231 LINE",
"577 710 LINE",
"519 710 LINE",
"290 327 LINE",
"294 327 LINE",
"65 710 LINE",
"7 710 LINE",
"296 231 LINE",
"268 315 LINE",
"268 0 LINE"
);
}
);
width = 584;
},
{
anchors = (
{
name = bottom;
position = "{359, 0}";
},
{
name = top;
position = "{359, 710}";
},
{
name = topleft;
position = "{57, 710}";
}
);
layerId = "5BCD9238-7200-4447-A55E-E4A4B2A2A7AE";
paths = (
{
closed = 1;
nodes = (
"440 0 LINE",
"440 315 LINE",
"422 231 LINE",
"711 710 LINE",
"516 710 LINE",
"311 327 LINE",
"408 327 LINE",
"202 710 LINE",
"7 710 LINE",
"296 231 LINE",
"279 315 LINE",
"279 0 LINE"
);
}
);
width = 718;
}
);
leftKerningGroup = Y;
leftMetricsKey = v;
rightKerningGroup = Y;
rightMetricsKey = v;
unicode = 0059;
},
{
glyphname = Z;
lastChange = "2023-10-23 16:45:39 +0000";
layers = (
{
anchors = (
{
name = bottom;
position = "{301, 0}";
},
{
name = center;
position = "{301, 355}";
},
{
name = top;
position = "{301, 710}";
}
);
hints = (
{
horizontal = 1;
origin = "{0, 11}";
target = "{0, 2}";
type = TTStem;
stem = -1;
options = 4;
},
{
horizontal = 1;
origin = "{0, 6}";
target = "{0, 7}";
type = TTStem;
stem = -1;
options = 4;
}
);
layerId = "A40D6D23-B1DA-4472-8F2A-1C08CC11B4FE";
paths = (
{
closed = 1;
nodes = (
"571 0 LINE",
"571 89 LINE",
"110 89 LINE",
"124 53 LINE",
"571 625 LINE",
"571 710 LINE",
"50 710 LINE",
"50 621 LINE",
"494 621 LINE",
"479 656 LINE",
"30 85 LINE",
"30 0 LINE"
);
}
);
width = 601;
},
{
anchors = (
{
name = bottom;
position = "{291, 0}";
},
{
name = center;
position = "{291, 355}";
},
{
name = top;
position = "{291, 710}";
}
);
layerId = m002;
paths = (
{
closed = 1;
nodes = (
"551 0 LINE",
"551 46 LINE",
"70 46 LINE",
"69 16 LINE",
"551 667 LINE",
"551 710 LINE",
"50 710 LINE",
"50 664 LINE",
"514 664 LINE",
"512 693 LINE",
"30 43 LINE",
"30 0 LINE"
);
}
);
width = 581;
},
{
anchors = (
{
name = bottom;
position = "{312, 0}";
},
{
name = center;
position = "{312, 355}";
},
{
name = top;
position = "{312, 710}";
}
);
layerId = "5BCD9238-7200-4447-A55E-E4A4B2A2A7AE";
paths = (
{
closed = 1;
nodes = (
"595 0 LINE",
"595 145 LINE",
"161 145 LINE",
"202 102 LINE",
"595 569 LINE",
"595 710 LINE",
"47 710 LINE",
"47 565 LINE",
"465 565 LINE",
"428 607 LINE",
"27 141 LINE",
"27 0 LINE"
);
}
);
width = 622;
}
);
leftKerningGroup = Z;
leftMetricsKey = "=z+5";
rightKerningGroup = Z;
rightMetricsKey = "=z+5";
unicode = 005A;
},
{
glyphname = J.ss01;
lastChange = "2023-10-23 16:45:39 +0000";
layers = (
{
anchors = (
{
name = bottom;
position = "{225, 0}";
},
{
name = top;
position = "{225, 710}";
}
);
hints = (
{
horizontal = 1;
origin = "{0, 11}";
target = "{0, 10}";
type = TTStem;
stem = -1;
options = 4;
},
{
horizontal = 1;
origin = "{0, 5}";
type = Anchor;
}
);
layerId = "A40D6D23-B1DA-4472-8F2A-1C08CC11B4FE";
paths = (
{
closed = 1;
nodes = (
"163 -6 LINE SMOOTH",
"343 -6 OFFCURVE",
"383 39 OFFCURVE",
"383 214 CURVE SMOOTH",
"383 710 LINE",
"288 710 LINE",
"288 229 LINE SMOOTH",
"288 105 OFFCURVE",
"253 89 OFFCURVE",
"153 89 CURVE SMOOTH",
"30 89 LINE",
"30 -6 LINE"
);
}
);
width = 438;
},
{
anchors = (
{
name = bottom;
position = "{195, 0}";
},
{
name = top;
position = "{195, 710}";
}
);
layerId = m002;
paths = (
{
closed = 1;
nodes = (
"146 -6 LINE SMOOTH",
"285 -6 OFFCURVE",
"333 51 OFFCURVE",
"333 215 CURVE SMOOTH",
"333 710 LINE",
"284 710 LINE",
"284 219 LINE SMOOTH",
"284 86 OFFCURVE",
"248 40 OFFCURVE",
"143 40 CURVE SMOOTH",
"30 40 LINE",
"30 -6 LINE"
);
}
);
width = 384;
},
{
anchors = (
{
name = bottom;
position = "{225, 0}";
},
{
name = top;
position = "{225, 710}";
}
);
layerId = "5BCD9238-7200-4447-A55E-E4A4B2A2A7AE";
paths = (
{
closed = 1;
nodes = (
"176 -6 LINE SMOOTH",
"364 -6 OFFCURVE",
"411 38 OFFCURVE",
"411 213 CURVE SMOOTH",
"411 710 LINE",
"251 710 LINE",
"251 252 LINE SMOOTH",
"251 173 OFFCURVE",
"230 154 OFFCURVE",
"146 154 CURVE SMOOTH",
"30 154 LINE",
"30 -6 LINE"
);
}
);
width = 461;
}
);
leftKerningGroup = J.ss01;
rightKerningGroup = H;
rightMetricsKey = U;
},
{
glyphname = R.ss01;
lastChange = "2023-10-25 10:13:54 +0000";
layers = (
{
anchors = (
{
name = bottom;
position = "{310, 0}";
},
{
name = top;
position = "{310, 710}";
}
);
guideLines = (
{
angle = 270;
position = "{566, 238}";
}
);
hints = (
{
horizontal = 1;
origin = "{0, 20}";
type = Anchor;
},
{
horizontal = 1;
origin = "{0, 19}";
target = "{1, 1}";
type = TTStem;
stem = -1;
options = 4;
},
{
horizontal = 1;
origin = "{0, 2}";
target = "{1, 9}";
type = TTStem;
stem = -1;
options = 4;
},
{
horizontal = 1;
origin = "{0, 20}";
target = "{1, 1}";
other1 = "{0, 2}";
type = Interpolate;
options = 4;
},
{
horizontal = 1;
origin = "{0, 20}";
target = "{0, 7}";
type = Align;
options = 4;
}
);
layerId = "A40D6D23-B1DA-4472-8F2A-1C08CC11B4FE";
paths = (
{
closed = 1;
nodes = (
"152 0 LINE",
"152 335 LINE",
"107 290 LINE",
"262 290 LINE SMOOTH",
"459 290 OFFCURVE",
"469 274 OFFCURVE",
"469 145 CURVE SMOOTH",
"469 0 LINE",
"565 0 LINE",
"565 238 LINE SMOOTH",
"565 307 OFFCURVE",
"521 335 OFFCURVE",
"466 345 CURVE",
"527 372 OFFCURVE",
"571 420 OFFCURVE",
"571 499 CURVE SMOOTH",
"571 644 OFFCURVE",
"495 710 OFFCURVE",
"308 710 CURVE SMOOTH",
"57 710 LINE",
"57 0 LINE"
);
},
{
closed = 1;
nodes = (
"152 669 LINE",
"107 624 LINE",
"308 624 LINE SMOOTH",
"423 624 OFFCURVE",
"474 581 OFFCURVE",
"474 499 CURVE SMOOTH",
"474 418 OFFCURVE",
"423 376 OFFCURVE",
"308 376 CURVE SMOOTH",
"107 376 LINE",
"152 331 LINE"
);
}
);
width = 600;
},
{
anchors = (
{
name = bottom;
position = "{306, 0}";
},
{
name = top;
position = "{306, 710}";
}
);
layerId = m002;
paths = (
{
closed = 1;
nodes = (
"102 0 LINE",
"102 321 LINE",
"57 306 LINE",
"247 306 LINE SMOOTH",
"444 306 OFFCURVE",
"444 274 OFFCURVE",
"444 145 CURVE",
"444 0 LINE",
"493 0 LINE",
"493 198 LINE",
"493 290 OFFCURVE",
"454 322 OFFCURVE",
"412 333 CURVE",
"474 363 OFFCURVE",
"504 420 OFFCURVE",
"504 507 CURVE SMOOTH",
"504 646 OFFCURVE",
"429 710 OFFCURVE",
"264 710 CURVE SMOOTH",
"53 710 LINE",
"53 0 LINE"
);
},
{
closed = 1;
nodes = (
"102 690 LINE",
"67 666 LINE",
"264 666 LINE SMOOTH",
"394 666 OFFCURVE",
"454 616 OFFCURVE",
"454 506 CURVE SMOOTH",
"454 399 OFFCURVE",
"394 351 OFFCURVE",
"264 351 CURVE SMOOTH",
"67 351 LINE",
"102 337 LINE"
);
}
);
width = 533;
},
{
anchors = (
{
name = bottom;
position = "{305, 0}";
},
{
name = top;
position = "{305, 710}";
}
);
guideLines = (
{
angle = 270;
position = "{595, 245}";
}
);
layerId = "5BCD9238-7200-4447-A55E-E4A4B2A2A7AE";
paths = (
{
closed = 1;
nodes = (
"212 0 LINE",
"212 354 LINE",
"167 269 LINE",
"285 269 LINE SMOOTH",
"434 269 OFFCURVE",
"441 267 OFFCURVE",
"441 145 CURVE",
"441 0 LINE",
"601 0 LINE",
"601 235 LINE",
"601 284 OFFCURVE",
"575 330 OFFCURVE",
"489 345 CURVE",
"562 357 OFFCURVE",
"614 417 OFFCURVE",
"614 489 CURVE SMOOTH",
"614 650 OFFCURVE",
"537 710 OFFCURVE",
"330 710 CURVE SMOOTH",
"52 710 LINE",
"52 0 LINE"
);
},
{
closed = 1;
nodes = (
"212 641 LINE",
"153 570 LINE",
"330 570 LINE SMOOTH",
"421 570 OFFCURVE",
"454 548 OFFCURVE",
"454 489 CURVE SMOOTH",
"454 430 OFFCURVE",
"422 409 OFFCURVE",
"330 409 CURVE SMOOTH",
"153 409 LINE",
"212 323 LINE"
);
}
);
width = 641;
}
);
leftKerningGroup = H;
leftMetricsKey = H;
rightKerningGroup = R;
rightMetricsKey = o;
},
{
glyphname = W_W;
lastChange = "2023-10-23 10:05:12 +0000";
layers = (
{
anchors = (
{
name = bottom;
position = "{1414, 0}";
},
{
name = top;
position = "{1414, 710}";
}
);
guideLines = (
{
position = "{702, 556}";
},
{
position = "{904, 163}";
}
);
hints = (
{
horizontal = 1;
origin = "{0, 24}";
type = Anchor;
},
{
horizontal = 1;
origin = "{0, 23}";
type = Anchor;
},
{
horizontal = 1;
origin = "{0, 24}";
target = "{0, 2}";
type = Align;
options = 4;
},
{
horizontal = 1;
origin = "{0, 24}";
target = "{0, 5}";
type = Align;
options = 4;
},
{
horizontal = 1;
origin = "{0, 24}";
target = "{0, 8}";
type = Align;
options = 4;
},
{
horizontal = 1;
origin = "{0, 23}";
target = "{0, 20}";
type = Align;
options = 4;
},
{
horizontal = 1;
origin = "{0, 23}";
target = "{0, 17}";
type = Align;
options = 4;
},
{
horizontal = 1;
origin = "{0, 23}";
target = "{0, 14}";
type = Align;
options = 4;
},
{
horizontal = 1;
origin = "{0, 23}";
target = "{0, 11}";
type = Align;
options = 4;
}
);
layerId = "A40D6D23-B1DA-4472-8F2A-1C08CC11B4FE";
paths = (
{
closed = 1;
nodes = (
"322 0 LINE",
"473 558 LINE",
"624 0 LINE",
"719 0 LINE",
"888 558 LINE",
"1060 0 LINE",
"1153 0 LINE",
"1304 558 LINE",
"1455 0 LINE",
"1556 0 LINE",
"1768 710 LINE",
"1661 710 LINE",
"1506 161 LINE",
"1363 710 LINE",
"1247 710 LINE",
"1101 161 LINE",
"948 710 LINE",
"829 710 LINE",
"675 161 LINE",
"532 710 LINE",
"414 710 LINE",
"272 161 LINE",
"118 710 LINE",
"10 710 LINE",
"222 0 LINE"
);
}
);
width = 1778;
},
{
anchors = (
{
name = bottom;
position = "{1394, 0}";
},
{
name = top;
position = "{1394, 710}";
}
);
guideLines = (
{
position = "{681, 556}";
},
{
position = "{883, 163}";
}
);
layerId = m002;
paths = (
{
closed = 1;
nodes = (
"264 0 LINE",
"442 634 LINE",
"619 0 LINE",
"673 0 LINE",
"851 634 LINE",
"1028 0 LINE",
"1082 0 LINE",
"1260 634 LINE",
"1447 0 LINE",
"1501 0 LINE",
"1701 710 LINE",
"1646 710 LINE",
"1474 64 LINE",
"1292 710 LINE",
"1227 710 LINE",
"1055 64 LINE",
"883 710 LINE",
"818 710 LINE",
"646 64 LINE",
"474 710 LINE",
"409 710 LINE",
"237 64 LINE",
"65 710 LINE",
"10 710 LINE",
"210 0 LINE"
);
}
);
width = 1711;
},
{
anchors = (
{
name = bottom;
position = "{1414, 0}";
},
{
name = top;
position = "{1414, 710}";
}
);
guideLines = (
{
position = "{701, 556}";
},
{
position = "{903, 163}";
}
);
layerId = "5BCD9238-7200-4447-A55E-E4A4B2A2A7AE";
paths = (
{
closed = 1;
nodes = (
"400 0 LINE",
"517 452 LINE",
"631 0 LINE",
"795 0 LINE",
"910 452 LINE",
"1024 0 LINE",
"1188 0 LINE",
"1303 452 LINE",
"1417 0 LINE",
"1581 0 LINE",
"1809 710 LINE",
"1630 710 LINE",
"1500 253 LINE",
"1396 710 LINE",
"1207 710 LINE",
"1106 259 LINE",
"1003 710 LINE",
"814 710 LINE",
"713 259 LINE",
"610 710 LINE",
"421 710 LINE",
"319 257 LINE",
"191 710 LINE",
"10 710 LINE",
"238 0 LINE"
);
}
);
width = 1819;
}
);
leftKerningGroup = V;
leftMetricsKey = W;
rightKerningGroup = V;
rightMetricsKey = W;
},
{
glyphname = W_W_W;
lastChange = "2023-10-23 10:05:31 +0000";
layers = (
{
anchors = (
{
name = bottom;
position = "{1830, 0}";
},
{
name = top;
position = "{1830, 710}";
}
);
hints = (
{
horizontal = 1;
origin = "{0, 30}";
type = Anchor;
},
{
horizontal = 1;
origin = "{0, 30}";
target = "{0, 2}";
type = Align;
options = 4;
},
{
horizontal = 1;
origin = "{0, 30}";
target = "{0, 5}";
type = Align;
options = 4;
},
{
horizontal = 1;
origin = "{0, 30}";
target = "{0, 8}";
type = Align;
options = 4;
},
{
horizontal = 1;
origin = "{0, 30}";
target = "{0, 11}";
type = Align;
options = 4;
},
{
horizontal = 1;
origin = "{0, 29}";
type = Anchor;
},
{
horizontal = 1;
origin = "{0, 29}";
target = "{0, 26}";
type = Align;
options = 4;
},
{
horizontal = 1;
origin = "{0, 29}";
target = "{0, 23}";
type = Align;
options = 4;
},
{
horizontal = 1;
origin = "{0, 29}";
target = "{0, 20}";
type = Align;
options = 4;
},
{
horizontal = 1;
origin = "{0, 29}";
target = "{0, 17}";
type = Align;
options = 4;
},
{
horizontal = 1;
origin = "{0, 29}";
target = "{0, 14}";
type = Align;
options = 4;
}
);
layerId = "A40D6D23-B1DA-4472-8F2A-1C08CC11B4FE";
paths = (
{
closed = 1;
nodes = (
"322 0 LINE",
"473 558 LINE",
"624 0 LINE",
"719 0 LINE",
"889 558 LINE",
"1040 0 LINE",
"1135 0 LINE",
"1304 558 LINE",
"1476 0 LINE",
"1569 0 LINE",
"1720 558 LINE",
"1871 0 LINE",
"1972 0 LINE",
"2184 710 LINE",
"2077 710 LINE",
"1922 162 LINE",
"1779 710 LINE",
"1663 710 LINE",
"1518 162 LINE",
"1364 710 LINE",
"1245 710 LINE",
"1091 162 LINE",
"948 710 LINE",
"830 710 LINE",
"675 162 LINE",
"532 710 LINE",
"414 710 LINE",
"272 162 LINE",
"118 710 LINE",
"10 710 LINE",
"222 0 LINE"
);
}
);
width = 2194;
},
{
anchors = (
{
name = bottom;
position = "{1820, 0}";
},
{
name = top;
position = "{1820, 710}";
}
);
layerId = m002;
paths = (
{
closed = 1;
nodes = (
"264 0 LINE",
"442 634 LINE",
"619 0 LINE",
"673 0 LINE",
"851 634 LINE",
"1028 0 LINE",
"1082 0 LINE",
"1260 634 LINE",
"1437 0 LINE",
"1491 0 LINE",
"1669 634 LINE",
"1856 0 LINE",
"1910 0 LINE",
"2110 710 LINE",
"2055 710 LINE",
"1883 64 LINE",
"1701 710 LINE",
"1636 710 LINE",
"1464 64 LINE",
"1292 710 LINE",
"1227 710 LINE",
"1045 64 LINE",
"883 710 LINE",
"818 710 LINE",
"646 64 LINE",
"474 710 LINE",
"409 710 LINE",
"237 64 LINE",
"65 710 LINE",
"10 710 LINE",
"210 0 LINE"
);
}
);
width = 2120;
},
{
anchors = (
{
name = bottom;
position = "{1830, 0}";
},
{
name = top;
position = "{1830, 710}";
}
);
layerId = "5BCD9238-7200-4447-A55E-E4A4B2A2A7AE";
paths = (
{
closed = 1;
nodes = (
"400 0 LINE",
"517 452 LINE",
"631 0 LINE",
"795 0 LINE",
"910 452 LINE",
"1024 0 LINE",
"1188 0 LINE",
"1303 452 LINE",
"1417 0 LINE",
"1581 0 LINE",
"1696 452 LINE",
"1810 0 LINE",
"1974 0 LINE",
"2202 710 LINE",
"2023 710 LINE",
"1893 253 LINE",
"1789 710 LINE",
"1600 710 LINE",
"1499 258 LINE",
"1396 710 LINE",
"1207 710 LINE",
"1106 259 LINE",
"1003 710 LINE",
"814 710 LINE",
"713 259 LINE",
"610 710 LINE",
"421 710 LINE",
"319 257 LINE",
"191 710 LINE",
"10 710 LINE",
"238 0 LINE"
);
}
);
width = 2212;
}
);
leftKerningGroup = V;
leftMetricsKey = W;
rightKerningGroup = V;
rightMetricsKey = W;
},
{
glyphname = a;
lastChange = "2023-10-24 09:30:08 +0000";
layers = (
{
anchors = (
{
name = bottom;
position = "{252, 0}";
},
{
name = ogonek;
position = "{636, 10}";
},
{
name = top;
position = "{252, 510}";
}
);
hints = (
{
horizontal = 1;
origin = "{0, 27}";
target = "{1, 12}";
type = TTStem;
stem = -1;
options = 4;
},
{
horizontal = 1;
origin = "{0, 8}";
target = "{0, 15}";
type = TTStem;
stem = -1;
options = 4;
},
{
horizontal = 1;
origin = "{1, 12}";
target = "{0, 15}";
other1 = "{0, 11}";
type = Interpolate;
options = 4;
},
{
horizontal = 1;
origin = "{1, 12}";
target = "{0, 15}";
other1 = "{0, 21}";
type = Interpolate;
options = 4;
},
{
horizontal = 1;
origin = "{0, 21}";
target = "{1, 5}";
type = TTStem;
stem = -1;
options = 4;
},
{
horizontal = 1;
origin = "{0, 3}";
type = Anchor;
}
);
layerId = "A40D6D23-B1DA-4472-8F2A-1C08CC11B4FE";
paths = (
{
closed = 1;
nodes = (
"289 -11 OFFCURVE",
"335 12 OFFCURVE",
"366 64 CURVE",
"366 0 LINE",
"456 0 LINE",
"456 371 LINE SMOOTH",
"456 477 OFFCURVE",
"392 525 OFFCURVE",
"252 525 CURVE SMOOTH",
"115 525 OFFCURVE",
"51 472 OFFCURVE",
"47 357 CURVE",
"132 357 LINE",
"135 419 OFFCURVE",
"173 448 OFFCURVE",
"252 448 CURVE SMOOTH",
"330 448 OFFCURVE",
"366 427 OFFCURVE",
"366 382 CURVE SMOOTH",
"366 335 OFFCURVE",
"305 324 OFFCURVE",
"235 312 CURVE SMOOTH",
"141 296 OFFCURVE",
"29 276 OFFCURVE",
"29 159 CURVE SMOOTH",
"29 42 OFFCURVE",
"89 -11 OFFCURVE",
"220 -11 CURVE SMOOTH"
);
},
{
closed = 1;
nodes = (
"158 60 OFFCURVE",
"120 93 OFFCURVE",
"120 150 CURVE",
"120 218 OFFCURVE",
"189 232 OFFCURVE",
"256 245 CURVE SMOOTH",
"301 254 OFFCURVE",
"344 263 OFFCURVE",
"366 287 CURVE",
"366 205 LINE SMOOTH",
"366 106 OFFCURVE",
"321 60 OFFCURVE",
"222 60 CURVE SMOOTH"
);
}
);
width = 503;
},
{
anchors = (
{
name = bottom;
position = "{242, 0}";
},
{
name = ogonek;
position = "{624, 10}";
},
{
name = top;
position = "{242, 510}";
}
);
layerId = m002;
paths = (
{
closed = 1;
nodes = (
"286 -11 OFFCURVE",
"338 15 OFFCURVE",
"368 64 CURVE",
"368 0 LINE",
"414 0 LINE",
"414 371 LINE SMOOTH",
"414 472 OFFCURVE",
"355 525 OFFCURVE",
"242 525 CURVE SMOOTH",
"118 525 OFFCURVE",
"51 467 OFFCURVE",
"47 357 CURVE",
"93 357 LINE",
"97 446 OFFCURVE",
"147 489 OFFCURVE",
"242 489 CURVE SMOOTH",
"325 489 OFFCURVE",
"368 455 OFFCURVE",
"368 384 CURVE SMOOTH",
"368 340 OFFCURVE",
"334 327 OFFCURVE",
"225 312 CURVE SMOOTH",
"88 293 OFFCURVE",
"29 239 OFFCURVE",
"29 150 CURVE SMOOTH",
"29 42 OFFCURVE",
"92 -11 OFFCURVE",
"220 -11 CURVE SMOOTH"
);
},
{
closed = 1;
nodes = (
"123 29 OFFCURVE",
"76 68 OFFCURVE",
"76 150 CURVE",
"76 214 OFFCURVE",
"120 254 OFFCURVE",
"225 269 CURVE SMOOTH",
"314 282 OFFCURVE",
"353 289 OFFCURVE",
"368 302 CURVE",
"368 205 LINE SMOOTH",
"368 89 OFFCURVE",
"317 29 OFFCURVE",
"220 29 CURVE SMOOTH"
);
}
);
width = 457;
},
{
anchors = (
{
name = bottom;
position = "{275, 0}";
},
{
name = ogonek;
position = "{660, 10}";
},
{
name = top;
position = "{275, 510}";
}
);
layerId = "5BCD9238-7200-4447-A55E-E4A4B2A2A7AE";
paths = (
{
closed = 1;
nodes = (
"276 -11 OFFCURVE",
"326 17 OFFCURVE",
"353 64 CURVE",
"353 0 LINE",
"501 0 LINE",
"501 361 LINE SMOOTH",
"501 472 OFFCURVE",
"427 525 OFFCURVE",
"273 525 CURVE SMOOTH",
"129 525 OFFCURVE",
"50 463 OFFCURVE",
"47 347 CURVE",
"196 347 LINE",
"196 381 OFFCURVE",
"229 407 OFFCURVE",
"273 407 CURVE SMOOTH",
"327 407 OFFCURVE",
"353 394 OFFCURVE",
"353 368 CURVE SMOOTH",
"353 335 OFFCURVE",
"305 329 OFFCURVE",
"246 323 CURVE SMOOTH",
"151 313 OFFCURVE",
"27 299 OFFCURVE",
"27 159 CURVE SMOOTH",
"27 48 OFFCURVE",
"93 -11 OFFCURVE",
"218 -11 CURVE SMOOTH"
);
},
{
closed = 1;
nodes = (
"210 110 OFFCURVE",
"188 124 OFFCURVE",
"188 156 CURVE",
"188 205 OFFCURVE",
"247 211 OFFCURVE",
"297 216 CURVE SMOOTH",
"320 218 OFFCURVE",
"340 221 OFFCURVE",
"353 227 CURVE",
"353 185 LINE SMOOTH",
"353 133 OFFCURVE",
"312 110 OFFCURVE",
"252 110 CURVE SMOOTH"
);
}
);
width = 544;
}
);
leftKerningGroup = a;
leftMetricsKey = o;
rightKerningGroup = n;
rightMetricsKey = n;
unicode = 0061;
},
{
glyphname = ae;
lastChange = "2023-10-24 09:25:38 +0000";
layers = (
{
anchors = (
{
name = bottom;
position = "{432, 0}";
},
{
name = top;
position = "{432, 510}";
}
);
hints = (
{
horizontal = 1;
origin = "{0, 20}";
target = "{0, 6}";
type = TTStem;
stem = -1;
options = 4;
},
{
horizontal = 1;
origin = "{2, 26}";
target = "{1, 12}";
type = TTStem;
stem = -1;
options = 4;
},
{
horizontal = 1;
origin = "{2, 7}";
target = "{2, 14}";
type = TTStem;
stem = -1;
options = 4;
},
{
horizontal = 1;
origin = "{0, 14}";
target = "{3, 2}";
type = TTStem;
stem = -1;
options = 4;
},
{
horizontal = 1;
origin = "{1, 12}";
target = "{2, 14}";
other1 = "{2, 20}";
type = Interpolate;
options = 4;
},
{
horizontal = 1;
origin = "{2, 20}";
target = "{1, 5}";
type = TTStem;
stem = -1;
options = 4;
},
{
horizontal = 1;
origin = "{1, 12}";
target = "{2, 14}";
other1 = "{2, 10}";
type = Interpolate;
options = 4;
},
{
horizontal = 1;
origin = "{0, 6}";
target = "{3, 2}";
other1 = "{3, 6}";
type = Interpolate;
options = 4;
},
{
horizontal = 1;
origin = "{3, 6}";
target = "{0, 9}";
type = TTStem;
stem = -1;
options = 4;
},
{
horizontal = 1;
origin = "{0, 6}";
target = "{3, 2}";
other1 = "{0, 10}";
type = Interpolate;
options = 4;
},
{
horizontal = 1;
origin = "{0, 6}";
target = "{0, 10}";
other1 = "{0, 3}";
type = Interpolate;
options = 4;
}
);
layerId = "A40D6D23-B1DA-4472-8F2A-1C08CC11B4FE";
paths = (
{
closed = 1;
nodes = (
"690 -14 OFFCURVE",
"800 24 OFFCURVE",
"829 156 CURVE",
"739 156 LINE",
"711 83 OFFCURVE",
"659 64 OFFCURVE",
"597 64 CURVE SMOOTH",
"499 64 OFFCURVE",
"458 126 OFFCURVE",
"453 229 CURVE",
"835 229 LINE",
"835 246 LINE SMOOTH",
"835 455 OFFCURVE",
"733 525 OFFCURVE",
"600 525 CURVE SMOOTH",
"446 525 OFFCURVE",
"372 425 OFFCURVE",
"372 256 CURVE SMOOTH",
"372 86 OFFCURVE",
"443 -14 OFFCURVE",
"596 -14 CURVE SMOOTH"
);
},
{
closed = 1;
nodes = (
"158 60 OFFCURVE",
"120 93 OFFCURVE",
"120 150 CURVE",
"120 218 OFFCURVE",
"189 232 OFFCURVE",
"256 245 CURVE SMOOTH",
"301 254 OFFCURVE",
"344 263 OFFCURVE",
"366 287 CURVE",
"366 205 LINE SMOOTH",
"366 106 OFFCURVE",
"321 60 OFFCURVE",
"222 60 CURVE SMOOTH"
);
},
{
closed = 1;
nodes = (
"342 -11 OFFCURVE",
"412 43 OFFCURVE",
"412 137 CURVE",
"442 170 LINE",
"442 371 LINE SMOOTH",
"442 477 OFFCURVE",
"392 525 OFFCURVE",
"252 525 CURVE SMOOTH",
"115 525 OFFCURVE",
"51 472 OFFCURVE",
"47 357 CURVE",
"132 357 LINE",
"135 419 OFFCURVE",
"173 448 OFFCURVE",
"252 448 CURVE SMOOTH",
"330 448 OFFCURVE",
"366 427 OFFCURVE",
"366 382 CURVE SMOOTH",
"366 335 OFFCURVE",
"305 324 OFFCURVE",
"235 312 CURVE SMOOTH",
"141 296 OFFCURVE",
"29 276 OFFCURVE",
"29 159 CURVE SMOOTH",
"29 42 OFFCURVE",
"89 -11 OFFCURVE",
"220 -11 CURVE SMOOTH"
);
},
{
closed = 1;
nodes = (
"465 395 OFFCURVE",
"509 453 OFFCURVE",
"600 453 CURVE SMOOTH",
"683 453 OFFCURVE",
"741 395 OFFCURVE",
"744 305 CURVE",
"455 305 LINE"
);
}
);
width = 864;
},
{
anchors = (
{
name = bottom;
position = "{432, 0}";
},
{
name = top;
position = "{432, 510}";
}
);
layerId = m002;
paths = (
{
closed = 1;
nodes = (
"711 -14 OFFCURVE",
"793 54 OFFCURVE",
"810 170 CURVE",
"763 170 LINE",
"748 78 OFFCURVE",
"684 23 OFFCURVE",
"590 23 CURVE SMOOTH",
"483 23 OFFCURVE",
"417 104 OFFCURVE",
"412 241 CURVE",
"815 241 LINE",
"815 279 LINE SMOOTH",
"815 434 OFFCURVE",
"731 525 OFFCURVE",
"590 525 CURVE SMOOTH",
"448 525 OFFCURVE",
"369 425 OFFCURVE",
"369 256 CURVE SMOOTH",
"369 86 OFFCURVE",
"448 -14 OFFCURVE",
"590 -14 CURVE SMOOTH"
);
},
{
closed = 1;
nodes = (
"123 29 OFFCURVE",
"76 68 OFFCURVE",
"76 150 CURVE",
"76 214 OFFCURVE",
"120 255 OFFCURVE",
"225 270 CURVE SMOOTH",
"314 283 OFFCURVE",
"353 289 OFFCURVE",
"368 302 CURVE",
"368 205 LINE SMOOTH",
"368 89 OFFCURVE",
"317 29 OFFCURVE",
"220 29 CURVE SMOOTH"
);
},
{
closed = 1;
nodes = (
"311 -11 OFFCURVE",
"402 41 OFFCURVE",
"402 143 CURVE",
"409 164 LINE",
"409 371 LINE SMOOTH",
"409 472 OFFCURVE",
"355 525 OFFCURVE",
"242 525 CURVE SMOOTH",
"118 525 OFFCURVE",
"51 467 OFFCURVE",
"47 357 CURVE",
"93 357 LINE",
"97 446 OFFCURVE",
"147 491 OFFCURVE",
"242 491 CURVE SMOOTH",
"325 491 OFFCURVE",
"368 455 OFFCURVE",
"368 384 CURVE SMOOTH",
"368 340 OFFCURVE",
"334 327 OFFCURVE",
"225 312 CURVE SMOOTH",
"88 293 OFFCURVE",
"29 239 OFFCURVE",
"29 150 CURVE SMOOTH",
"29 42 OFFCURVE",
"92 -11 OFFCURVE",
"220 -11 CURVE SMOOTH"
);
},
{
closed = 1;
nodes = (
"425 412 OFFCURVE",
"491 490 OFFCURVE",
"596 490 CURVE SMOOTH",
"690 490 OFFCURVE",
"772 427 OFFCURVE",
"775 279 CURVE",
"419 279 LINE"
);
}
);
width = 844;
},
{
anchors = (
{
name = bottom;
position = "{430, 0}";
},
{
name = top;
position = "{430, 510}";
}
);
layerId = "5BCD9238-7200-4447-A55E-E4A4B2A2A7AE";
paths = (
{
closed = 1;
nodes = (
"730 -14 OFFCURVE",
"823 56 OFFCURVE",
"849 179 CURVE",
"693 179 LINE",
"675 139 OFFCURVE",
"643 116 OFFCURVE",
"597 116 CURVE SMOOTH",
"535 116 OFFCURVE",
"497 156 OFFCURVE",
"488 225 CURVE",
"856 225 LINE",
"856 257 LINE SMOOTH",
"856 425 OFFCURVE",
"757 525 OFFCURVE",
"597 525 CURVE SMOOTH",
"432 525 OFFCURVE",
"367 415 OFFCURVE",
"367 256 CURVE SMOOTH",
"367 86 OFFCURVE",
"432 -14 OFFCURVE",
"597 -14 CURVE SMOOTH"
);
},
{
closed = 1;
nodes = (
"210 110 OFFCURVE",
"188 124 OFFCURVE",
"188 156 CURVE",
"188 205 OFFCURVE",
"247 211 OFFCURVE",
"297 216 CURVE SMOOTH",
"320 218 OFFCURVE",
"340 221 OFFCURVE",
"353 227 CURVE",
"353 185 LINE SMOOTH",
"353 136 OFFCURVE",
"312 110 OFFCURVE",
"252 110 CURVE SMOOTH"
);
},
{
closed = 1;
nodes = (
"340 -11 OFFCURVE",
"389 48 OFFCURVE",
"416 126 CURVE",
"481 130 LINE",
"481 361 LINE SMOOTH",
"481 442 OFFCURVE",
"427 525 OFFCURVE",
"273 525 CURVE SMOOTH",
"129 525 OFFCURVE",
"50 463 OFFCURVE",
"47 347 CURVE",
"196 347 LINE",
"196 381 OFFCURVE",
"229 407 OFFCURVE",
"273 407 CURVE SMOOTH",
"327 407 OFFCURVE",
"353 394 OFFCURVE",
"353 368 CURVE SMOOTH",
"353 335 OFFCURVE",
"305 329 OFFCURVE",
"246 323 CURVE SMOOTH",
"151 313 OFFCURVE",
"27 299 OFFCURVE",
"27 159 CURVE SMOOTH",
"27 48 OFFCURVE",
"93 -11 OFFCURVE",
"218 -11 CURVE SMOOTH"
);
},
{
closed = 1;
nodes = (
"512 376 OFFCURVE",
"556 403 OFFCURVE",
"607 403 CURVE SMOOTH",
"657 403 OFFCURVE",
"701 376 OFFCURVE",
"707 327 CURVE",
"506 327 LINE"
);
}
);
width = 883;
}
);
leftKerningGroup = a;
leftMetricsKey = o;
rightKerningGroup = e;
rightMetricsKey = o;
unicode = 00E6;
},
{
glyphname = b;
lastChange = "2023-10-24 09:24:13 +0000";
layers = (
{
anchors = (
{
name = bottom;
position = "{277, 0}";
},
{
name = center;
position = "{277, 255}";
},
{
name = top;
position = "{277, 510}";
}
);
hints = (
{
horizontal = 1;
origin = "{0, 11}";
target = "{2, 11}";
type = TTStem;
stem = -1;
options = 4;
},
{
horizontal = 1;
origin = "{0, 5}";
target = "{2, 5}";
type = TTStem;
stem = -1;
options = 4;
},
{
horizontal = 1;
origin = "{1, 6}";
type = Anchor;
},
{
horizontal = 1;
origin = "{2, 11}";
target = "{2, 5}";
other1 = "{2, 2}";
type = Interpolate;
options = 4;
},
{
horizontal = 1;
origin = "{1, 7}";
type = Anchor;
}
);
layerId = "A40D6D23-B1DA-4472-8F2A-1C08CC11B4FE";
paths = (
{
closed = 1;
nodes = (
"431 -14 OFFCURVE",
"524 84 OFFCURVE",
"524 256 CURVE SMOOTH",
"524 425 OFFCURVE",
"445 525 OFFCURVE",
"291 525 CURVE SMOOTH",
"134 525 OFFCURVE",
"79 373 OFFCURVE",
"79 256 CURVE SMOOTH",
"79 169 OFFCURVE",
"121 -14 OFFCURVE",
"289 -14 CURVE SMOOTH"
);
},
{
closed = 1;
nodes = (
"138 0 LINE",
"138 114 LINE",
"131 129 LINE",
"131 403 LINE",
"140 414 LINE",
"140 710 LINE",
"50 710 LINE",
"50 0 LINE"
);
},
{
closed = 1;
nodes = (
"178 62 OFFCURVE",
"136 147 OFFCURVE",
"136 256 CURVE SMOOTH",
"136 364 OFFCURVE",
"180 448 OFFCURVE",
"291 448 CURVE SMOOTH",
"395 448 OFFCURVE",
"431 371 OFFCURVE",
"431 256 CURVE SMOOTH",
"431 140 OFFCURVE",
"393 62 OFFCURVE",
"289 62 CURVE SMOOTH"
);
}
);
width = 553;
},
{
anchors = (
{
name = bottom;
position = "{273, 0}";
},
{
name = center;
position = "{273, 255}";
},
{
name = top;
position = "{273, 510}";
}
);
guideLines = (
{
angle = 270;
position = "{468, 234}";
}
);
layerId = m002;
paths = (
{
closed = 1;
nodes = (
"392 -14 OFFCURVE",
"472 86 OFFCURVE",
"472 256 CURVE SMOOTH",
"472 425 OFFCURVE",
"392 525 OFFCURVE",
"257 525 CURVE SMOOTH",
"128 525 OFFCURVE",
"51 419 OFFCURVE",
"51 256 CURVE SMOOTH",
"51 92 OFFCURVE",
"128 -14 OFFCURVE",
"257 -14 CURVE SMOOTH"
);
},
{
closed = 1;
nodes = (
"91 0 LINE",
"91 136 LINE",
"87 156 LINE",
"87 402 LINE",
"92 419 LINE",
"92 712 LINE",
"46 712 LINE",
"46 0 LINE"
);
},
{
closed = 1;
nodes = (
"151 21 OFFCURVE",
"89 108 OFFCURVE",
"89 256 CURVE SMOOTH",
"89 404 OFFCURVE",
"151 491 OFFCURVE",
"257 491 CURVE SMOOTH",
"362 491 OFFCURVE",
"424 404 OFFCURVE",
"424 256 CURVE SMOOTH",
"424 108 OFFCURVE",
"362 21 OFFCURVE",
"257 21 CURVE SMOOTH"
);
}
);
width = 501;
},
{
anchors = (
{
name = bottom;
position = "{273, 0}";
},
{
name = center;
position = "{273, 255}";
},
{
name = top;
position = "{273, 510}";
}
);
layerId = "5BCD9238-7200-4447-A55E-E4A4B2A2A7AE";
paths = (
{
closed = 1;
nodes = (
"478 -14 OFFCURVE",
"565 86 OFFCURVE",
"565 256 CURVE SMOOTH",
"565 425 OFFCURVE",
"478 525 OFFCURVE",
"332 525 CURVE SMOOTH",
"209 525 OFFCURVE",
"137 425 OFFCURVE",
"137 256 CURVE SMOOTH",
"137 86 OFFCURVE",
"209 -14 OFFCURVE",
"332 -14 CURVE SMOOTH"
);
},
{
closed = 1;
nodes = (
"192 0 LINE",
"192 85 LINE",
"181 93 LINE",
"181 404 LINE",
"195 407 LINE",
"195 707 LINE",
"45 707 LINE",
"45 0 LINE"
);
},
{
closed = 1;
nodes = (
"233 116 OFFCURVE",
"191 168 OFFCURVE",
"191 256 CURVE SMOOTH",
"191 347 OFFCURVE",
"233 400 OFFCURVE",
"304 400 CURVE SMOOTH",
"374 400 OFFCURVE",
"416 347 OFFCURVE",
"416 256 CURVE SMOOTH",
"416 168 OFFCURVE",
"374 116 OFFCURVE",
"304 116 CURVE SMOOTH"
);
}
);
width = 592;
}
);
leftKerningGroup = l;
leftMetricsKey = l;
rightKerningGroup = o;
rightMetricsKey = o;
unicode = 0062;
},
{
glyphname = c;
lastChange = "2023-10-24 09:25:38 +0000";
layers = (
{
anchors = (
{
name = bottom;
position = "{262, 0}";
},
{
name = top;
position = "{265, 510}";
}
);
guideLines = (
{
position = "{275, 451}";
}
);
hints = (
{
horizontal = 1;
origin = "{0, 25}";
target = "{0, 6}";
type = TTStem;
stem = -1;
options = 4;
},
{
horizontal = 1;
origin = "{0, 19}";
target = "{0, 12}";
type = TTStem;
stem = -1;
options = 4;
},
{
horizontal = 1;
origin = "{0, 6}";
target = "{0, 12}";
other1 = "{0, 3}";
type = Interpolate;
options = 4;
},
{
horizontal = 1;
origin = "{0, 6}";
target = "{0, 12}";
other1 = "{0, 15}";
type = Interpolate;
options = 4;
}
);
layerId = "A40D6D23-B1DA-4472-8F2A-1C08CC11B4FE";
paths = (
{
closed = 1;
nodes = (
"403 -14 OFFCURVE",
"485 58 OFFCURVE",
"495 180 CURVE",
"405 180 LINE",
"396 109 OFFCURVE",
"347 66 OFFCURVE",
"274 66 CURVE SMOOTH",
"178 66 OFFCURVE",
"120 137 OFFCURVE",
"120 256 CURVE SMOOTH",
"120 379 OFFCURVE",
"178 451 OFFCURVE",
"274 451 CURVE SMOOTH",
"344 451 OFFCURVE",
"393 405 OFFCURVE",
"405 327 CURVE",
"494 327 LINE",
"485 451 OFFCURVE",
"403 525 OFFCURVE",
"274 525 CURVE SMOOTH",
"120 525 OFFCURVE",
"29 425 OFFCURVE",
"29 256 CURVE SMOOTH",
"29 86 OFFCURVE",
"120 -14 OFFCURVE",
"274 -14 CURVE SMOOTH"
);
}
);
width = 524;
},
{
anchors = (
{
name = bottom;
position = "{251, 0}";
},
{
name = top;
position = "{251, 510}";
}
);
guideLines = (
{
position = "{428, 327}";
},
{
angle = 180;
position = "{449, 180}";
}
);
layerId = m002;
paths = (
{
closed = 1;
nodes = (
"372 -14 OFFCURVE",
"454 58 OFFCURVE",
"472 180 CURVE",
"424 180 LINE",
"408 81 OFFCURVE",
"344 23 OFFCURVE",
"251 23 CURVE SMOOTH",
"142 23 OFFCURVE",
"77 110 OFFCURVE",
"77 256 CURVE SMOOTH",
"77 403 OFFCURVE",
"142 490 OFFCURVE",
"251 490 CURVE SMOOTH",
"346 490 OFFCURVE",
"411 429 OFFCURVE",
"425 327 CURVE",
"472 327 LINE",
"456 451 OFFCURVE",
"374 525 OFFCURVE",
"251 525 CURVE SMOOTH",
"111 525 OFFCURVE",
"29 425 OFFCURVE",
"29 256 CURVE SMOOTH",
"29 86 OFFCURVE",
"111 -14 OFFCURVE",
"251 -14 CURVE SMOOTH"
);
}
);
width = 501;
},
{
anchors = (
{
name = bottom;
position = "{279, 0}";
},
{
name = top;
position = "{280, 510}";
}
);
guideLines = (
{
position = "{274, 451}";
}
);
layerId = "5BCD9238-7200-4447-A55E-E4A4B2A2A7AE";
paths = (
{
closed = 1;
nodes = (
"428 -14 OFFCURVE",
"522 65 OFFCURVE",
"533 200 CURVE",
"382 200 LINE",
"373 146 OFFCURVE",
"335 114 OFFCURVE",
"280 114 CURVE SMOOTH",
"215 114 OFFCURVE",
"177 167 OFFCURVE",
"177 256 CURVE SMOOTH",
"177 345 OFFCURVE",
"215 398 OFFCURVE",
"280 398 CURVE SMOOTH",
"335 398 OFFCURVE",
"373 364 OFFCURVE",
"381 307 CURVE",
"531 307 LINE",
"520 444 OFFCURVE",
"427 525 OFFCURVE",
"280 525 CURVE SMOOTH",
"121 525 OFFCURVE",
"27 425 OFFCURVE",
"27 256 CURVE SMOOTH",
"27 86 OFFCURVE",
"121 -14 OFFCURVE",
"280 -14 CURVE SMOOTH"
);
}
);
width = 560;
}
);
leftKerningGroup = o;
leftMetricsKey = o;
rightKerningGroup = c;
rightMetricsKey = o;
unicode = 0063;
},
{
glyphname = d;
lastChange = "2023-10-24 09:25:38 +0000";
layers = (
{
anchors = (
{
name = bottom;
position = "{276, 0}";
},
{
name = center;
position = "{276, 255}";
},
{
name = top;
position = "{276, 800}";
},
{
name = topright;
position = "{535, 800}";
}
);
hints = (
{
horizontal = 1;
origin = "{0, 11}";
target = "{1, 11}";
type = TTStem;
stem = -1;
options = 4;
},
{
horizontal = 1;
origin = "{0, 5}";
target = "{1, 5}";
type = TTStem;
stem = -1;
options = 4;
},
{
horizontal = 1;
origin = "{2, 2}";
type = Anchor;
},
{
horizontal = 1;
origin = "{1, 11}";
target = "{1, 5}";
other1 = "{1, 8}";
type = Interpolate;
options = 4;
},
{
horizontal = 1;
origin = "{2, 7}";
type = Anchor;
}
);
layerId = "A40D6D23-B1DA-4472-8F2A-1C08CC11B4FE";
paths = (
{
closed = 1;
nodes = (
"432 -14 OFFCURVE",
"474 169 OFFCURVE",
"474 256 CURVE SMOOTH",
"474 373 OFFCURVE",
"419 525 OFFCURVE",
"262 525 CURVE SMOOTH",
"118 525 OFFCURVE",
"29 415 OFFCURVE",
"29 256 CURVE SMOOTH",
"29 81 OFFCURVE",
"119 -14 OFFCURVE",
"264 -14 CURVE SMOOTH"
);
},
{
closed = 1;
nodes = (
"160 63 OFFCURVE",
"121 140 OFFCURVE",
"121 256 CURVE SMOOTH",
"121 370 OFFCURVE",
"158 448 OFFCURVE",
"262 448 CURVE SMOOTH",
"373 448 OFFCURVE",
"417 364 OFFCURVE",
"417 256 CURVE SMOOTH",
"417 147 OFFCURVE",
"375 63 OFFCURVE",
"264 63 CURVE SMOOTH"
);
},
{
closed = 1;
nodes = (
"503 0 LINE",
"503 710 LINE",
"413 710 LINE",
"413 414 LINE",
"422 403 LINE",
"422 129 LINE",
"416 114 LINE",
"416 0 LINE"
);
}
);
width = 553;
},
{
anchors = (
{
name = bottom;
position = "{255, 0}";
},
{
name = center;
position = "{270, 255}";
},
{
name = top;
position = "{240, 800}";
},
{
name = topright;
position = "{499, 800}";
}
);
layerId = m002;
paths = (
{
closed = 1;
nodes = (
"373 -14 OFFCURVE",
"450 92 OFFCURVE",
"450 256 CURVE SMOOTH",
"450 419 OFFCURVE",
"373 525 OFFCURVE",
"244 525 CURVE SMOOTH",
"109 525 OFFCURVE",
"29 425 OFFCURVE",
"29 256 CURVE SMOOTH",
"29 86 OFFCURVE",
"109 -14 OFFCURVE",
"244 -14 CURVE SMOOTH"
);
},
{
closed = 1;
nodes = (
"139 21 OFFCURVE",
"77 108 OFFCURVE",
"77 256 CURVE SMOOTH",
"77 404 OFFCURVE",
"139 491 OFFCURVE",
"244 491 CURVE SMOOTH",
"350 491 OFFCURVE",
"412 404 OFFCURVE",
"412 256 CURVE SMOOTH",
"412 108 OFFCURVE",
"350 21 OFFCURVE",
"244 21 CURVE SMOOTH"
);
},
{
closed = 1;
nodes = (
"455 0 LINE",
"455 712 LINE",
"409 712 LINE",
"409 419 LINE",
"414 402 LINE",
"414 156 LINE",
"410 136 LINE",
"410 0 LINE"
);
}
);
width = 501;
},
{
anchors = (
{
name = bottom;
position = "{246, 0}";
},
{
name = center;
position = "{246, 255}";
},
{
name = top;
position = "{246, 800}";
},
{
name = topright;
position = "{573, 800}";
}
);
layerId = "5BCD9238-7200-4447-A55E-E4A4B2A2A7AE";
paths = (
{
closed = 1;
nodes = (
"383 -14 OFFCURVE",
"455 86 OFFCURVE",
"455 256 CURVE SMOOTH",
"455 425 OFFCURVE",
"383 525 OFFCURVE",
"260 525 CURVE SMOOTH",
"114 525 OFFCURVE",
"27 425 OFFCURVE",
"27 256 CURVE SMOOTH",
"27 86 OFFCURVE",
"114 -14 OFFCURVE",
"260 -14 CURVE SMOOTH"
);
},
{
closed = 1;
nodes = (
"218 116 OFFCURVE",
"176 168 OFFCURVE",
"176 256 CURVE SMOOTH",
"176 347 OFFCURVE",
"218 400 OFFCURVE",
"288 400 CURVE SMOOTH",
"359 400 OFFCURVE",
"401 347 OFFCURVE",
"401 256 CURVE SMOOTH",
"401 168 OFFCURVE",
"359 116 OFFCURVE",
"288 116 CURVE SMOOTH"
);
},
{
closed = 1;
nodes = (
"547 0 LINE",
"547 707 LINE",
"397 707 LINE",
"397 407 LINE",
"411 404 LINE",
"411 93 LINE",
"400 85 LINE",
"400 0 LINE"
);
}
);
width = 592;
}
);
leftKerningGroup = o;
leftMetricsKey = o;
rightKerningGroup = l;
rightMetricsKey = l;
unicode = 0064;
},
{
glyphname = eth;
lastChange = "2023-10-24 09:25:09 +0000";
layers = (
{
anchors = (
{
name = bottom;
position = "{297, 0}";
},
{
name = top;
position = "{297, 800}";
}
);
hints = (
{
horizontal = 1;
origin = "{0, 18}";
target = "{1, 11}";
type = TTStem;
stem = -1;
options = 4;
},
{
horizontal = 1;
origin = "{0, 12}";
target = "{1, 5}";
type = TTStem;
stem = -1;
options = 4;
},
{
horizontal = 1;
origin = "{1, 11}";
target = "{1, 5}";
other1 = "{1, 8}";
type = Interpolate;
options = 4;
}
);
layerId = "A40D6D23-B1DA-4472-8F2A-1C08CC11B4FE";
paths = (
{
closed = 1;
nodes = (
"418 -14 OFFCURVE",
"505 81 OFFCURVE",
"505 256 CURVE SMOOTH",
"505 502 OFFCURVE",
"373 658 OFFCURVE",
"192 780 CURVE",
"123 735 LINE",
"225 670 OFFCURVE",
"332 570 OFFCURVE",
"365 487 CURVE",
"340 509 OFFCURVE",
"310 525 OFFCURVE",
"242 525 CURVE SMOOTH",
"128 525 OFFCURVE",
"29 415 OFFCURVE",
"29 256 CURVE SMOOTH",
"29 81 OFFCURVE",
"119 -14 OFFCURVE",
"264 -14 CURVE SMOOTH"
);
},
{
closed = 1;
nodes = (
"160 63 OFFCURVE",
"121 140 OFFCURVE",
"121 256 CURVE SMOOTH",
"121 370 OFFCURVE",
"158 448 OFFCURVE",
"262 448 CURVE SMOOTH",
"373 448 OFFCURVE",
"417 364 OFFCURVE",
"417 256 CURVE SMOOTH",
"417 133 OFFCURVE",
"360 63 OFFCURVE",
"264 63 CURVE SMOOTH"
);
},
{
closed = 1;
nodes = (
"435 686 LINE",
"410 748 LINE",
"127 635 LINE",
"152 572 LINE"
);
}
);
width = 534;
},
{
anchors = (
{
name = bottom;
position = "{277, 0}";
},
{
name = top;
position = "{277, 800}";
}
);
layerId = m002;
paths = (
{
closed = 1;
nodes = (
"382 -14 OFFCURVE",
"463 86 OFFCURVE",
"463 256 CURVE SMOOTH",
"463 459 OFFCURVE",
"353 628 OFFCURVE",
"136 761 CURVE",
"105 735 LINE",
"225 658 OFFCURVE",
"313 572 OFFCURVE",
"367 477 CURVE",
"328 511 OFFCURVE",
"289 525 OFFCURVE",
"232 525 CURVE SMOOTH",
"108 525 OFFCURVE",
"29 421 OFFCURVE",
"29 256 CURVE SMOOTH",
"29 86 OFFCURVE",
"109 -14 OFFCURVE",
"244 -14 CURVE SMOOTH"
);
},
{
closed = 1;
nodes = (
"139 20 OFFCURVE",
"77 108 OFFCURVE",
"77 256 CURVE SMOOTH",
"77 404 OFFCURVE",
"135 491 OFFCURVE",
"232 491 CURVE SMOOTH",
"347 491 OFFCURVE",
"415 404 OFFCURVE",
"415 256 CURVE SMOOTH",
"415 108 OFFCURVE",
"351 20 OFFCURVE",
"244 20 CURVE SMOOTH"
);
},
{
closed = 1;
nodes = (
"400 694 LINE",
"387 727 LINE",
"113 616 LINE",
"126 583 LINE"
);
}
);
width = 492;
},
{
anchors = (
{
name = bottom;
position = "{318, 0}";
},
{
name = top;
position = "{318, 800}";
}
);
layerId = "5BCD9238-7200-4447-A55E-E4A4B2A2A7AE";
paths = (
{
closed = 1;
nodes = (
"453 -14 OFFCURVE",
"550 86 OFFCURVE",
"550 256 CURVE SMOOTH",
"550 493 OFFCURVE",
"458 661 OFFCURVE",
"252 800 CURVE",
"144 735 LINE",
"253 665 OFFCURVE",
"361 550 OFFCURVE",
"392 475 CURVE",
"362 507 OFFCURVE",
"320 525 OFFCURVE",
"273 525 CURVE SMOOTH",
"113 525 OFFCURVE",
"27 431 OFFCURVE",
"27 256 CURVE SMOOTH",
"27 86 OFFCURVE",
"124 -14 OFFCURVE",
"289 -14 CURVE SMOOTH"
);
},
{
closed = 1;
nodes = (
"218 116 OFFCURVE",
"176 168 OFFCURVE",
"176 256 CURVE SMOOTH",
"176 347 OFFCURVE",
"218 400 OFFCURVE",
"289 400 CURVE SMOOTH",
"359 400 OFFCURVE",
"401 347 OFFCURVE",
"401 256 CURVE SMOOTH",
"401 168 OFFCURVE",
"359 116 OFFCURVE",
"289 116 CURVE SMOOTH"
);
},
{
closed = 1;
nodes = (
"493 690 LINE",
"460 770 LINE",
"144 645 LINE",
"177 564 LINE"
);
}
);
width = 577;
}
);
leftKerningGroup = o;
leftMetricsKey = o;
rightKerningGroup = o;
rightMetricsKey = o;
unicode = 00F0;
},
{
glyphname = dcroat;
lastChange = "2023-10-24 09:25:38 +0000";
layers = (
{
components = (
{
name = d;
}
);
hints = (
{
horizontal = 1;
origin = "{0, 3}";
target = "{0, 2}";
type = TTStem;
stem = -1;
options = 4;
}
);
layerId = "A40D6D23-B1DA-4472-8F2A-1C08CC11B4FE";
paths = (
{
closed = 1;
nodes = (
"578 574 LINE",
"578 648 LINE",
"213 648 LINE",
"213 574 LINE"
);
}
);
width = 578;
},
{
components = (
{
name = d;
}
);
layerId = m002;
paths = (
{
closed = 1;
nodes = (
"559 592 LINE",
"559 630 LINE",
"234 630 LINE",
"234 592 LINE"
);
}
);
width = 559;
},
{
components = (
{
name = d;
}
);
layerId = "5BCD9238-7200-4447-A55E-E4A4B2A2A7AE";
paths = (
{
closed = 1;
nodes = (
"599 560 LINE",
"599 664 LINE",
"254 664 LINE",
"254 560 LINE"
);
}
);
width = 599;
}
);
leftKerningGroup = o;
leftMetricsKey = d;
rightKerningGroup = l;
unicode = 0111;
},
{
glyphname = e;
lastChange = "2023-11-20 11:34:47 +0000";
layers = (
{
anchors = (
{
name = bottom;
position = "{268, 0}";
},
{
name = ogonek;
position = "{508, 10}";
},
{
name = top;
position = "{268, 510}";
}
);
hints = (
{
horizontal = 1;
origin = "{0, 14}";
target = "{1, 2}";
type = TTStem;
stem = -1;
options = 4;
},
{
horizontal = 1;
origin = "{0, 20}";
target = "{0, 6}";
type = TTStem;
stem = -1;
options = 4;
},
{
horizontal = 1;
origin = "{1, 2}";
target = "{0, 6}";
other1 = "{0, 9}";
type = Interpolate;
options = 4;
},
{
horizontal = 1;
origin = "{0, 9}";
target = "{1, 6}";
type = TTStem;
stem = -1;
options = 4;
},
{
horizontal = 1;
origin = "{1, 2}";
target = "{0, 6}";
other1 = "{0, 10}";
type = Interpolate;
options = 4;
},
{
horizontal = 1;
origin = "{0, 6}";
target = "{0, 10}";
other1 = "{0, 3}";
type = Interpolate;
options = 4;
}
);
layerId = "A40D6D23-B1DA-4472-8F2A-1C08CC11B4FE";
paths = (
{
closed = 1;
nodes = (
"361 -14 OFFCURVE",
"471 24 OFFCURVE",
"500 156 CURVE",
"410 156 LINE",
"382 83 OFFCURVE",
"330 64 OFFCURVE",
"268 64 CURVE SMOOTH",
"170 64 OFFCURVE",
"129 126 OFFCURVE",
"124 229 CURVE",
"506 229 LINE",
"506 246 LINE SMOOTH",
"506 455 OFFCURVE",
"404 525 OFFCURVE",
"271 525 CURVE SMOOTH",
"117 525 OFFCURVE",
"29 425 OFFCURVE",
"29 256 CURVE SMOOTH",
"29 86 OFFCURVE",
"114 -14 OFFCURVE",
"267 -14 CURVE SMOOTH"
);
},
{
closed = 1;
nodes = (
"136 395 OFFCURVE",
"180 453 OFFCURVE",
"271 453 CURVE SMOOTH",
"354 453 OFFCURVE",
"412 395 OFFCURVE",
"415 305 CURVE",
"126 305 LINE"
);
}
);
width = 535;
},
{
anchors = (
{
name = bottom;
position = "{256, 0}";
},
{
name = ogonek;
position = "{508, 10}";
},
{
name = top;
position = "{256, 510}";
}
);
guideLines = (
{
position = "{345, 229}";
},
{
position = "{345, 305}";
},
{
position = "{345, 156}";
}
);
layerId = m002;
paths = (
{
closed = 1;
nodes = (
"376 -14 OFFCURVE",
"458 54 OFFCURVE",
"475 170 CURVE",
"428 170 LINE",
"413 78 OFFCURVE",
"349 23 OFFCURVE",
"255 23 CURVE SMOOTH",
"148 23 OFFCURVE",
"82 104 OFFCURVE",
"77 241 CURVE",
"480 241 LINE",
"480 279 LINE SMOOTH",
"480 434 OFFCURVE",
"396 525 OFFCURVE",
"255 525 CURVE SMOOTH",
"113 525 OFFCURVE",
"29 425 OFFCURVE",
"29 256 CURVE SMOOTH",
"29 86 OFFCURVE",
"113 -14 OFFCURVE",
"255 -14 CURVE SMOOTH"
);
},
{
closed = 1;
nodes = (
"84 412 OFFCURVE",
"150 490 OFFCURVE",
"255 490 CURVE SMOOTH",
"349 490 OFFCURVE",
"431 427 OFFCURVE",
"434 279 CURVE",
"78 279 LINE"
);
}
);
width = 509;
},
{
anchors = (
{
name = bottom;
position = "{285, 0}";
},
{
name = ogonek;
position = "{542, 10}";
},
{
name = top;
position = "{285, 510}";
}
);
layerId = "5BCD9238-7200-4447-A55E-E4A4B2A2A7AE";
paths = (
{
closed = 1;
nodes = (
"420 -14 OFFCURVE",
"513 56 OFFCURVE",
"539 179 CURVE",
"383 179 LINE",
"365 139 OFFCURVE",
"333 116 OFFCURVE",
"287 116 CURVE SMOOTH",
"225 116 OFFCURVE",
"187 156 OFFCURVE",
"178 225 CURVE",
"546 225 LINE",
"546 257 LINE SMOOTH",
"546 425 OFFCURVE",
"447 525 OFFCURVE",
"287 525 CURVE SMOOTH",
"122 525 OFFCURVE",
"27 425 OFFCURVE",
"27 256 CURVE SMOOTH",
"27 86 OFFCURVE",
"122 -14 OFFCURVE",
"287 -14 CURVE SMOOTH"
);
},
{
closed = 1;
nodes = (
"192 376 OFFCURVE",
"236 403 OFFCURVE",
"287 403 CURVE SMOOTH",
"337 403 OFFCURVE",
"381 376 OFFCURVE",
"387 327 CURVE",
"186 327 LINE"
);
}
);
width = 573;
}
);
leftKerningGroup = o;
leftMetricsKey = o;
rightKerningGroup = e;
rightMetricsKey = o;
unicode = 0065;
},
{
glyphname = schwa;
lastChange = "2023-10-23 16:45:39 +0000";
layers = (
{
hints = (
{
horizontal = 1;
origin = "{0, 20}";
target = "{1, 6}";
type = TTStem;
stem = -1;
options = 4;
},
{
horizontal = 1;
origin = "{1, 2}";
target = "{0, 16}";
type = TTStem;
stem = -1;
options = 4;
},
{
horizontal = 1;
origin = "{0, 5}";
target = "{0, 12}";
type = TTStem;
stem = -1;
options = 4;
},
{
horizontal = 1;
origin = "{1, 6}";
target = "{0, 12}";
other1 = "{0, 16}";
type = Interpolate;
options = 4;
},
{
horizontal = 1;
origin = "{1, 6}";
target = "{0, 12}";
other1 = "{0, 15}";
type = Interpolate;
options = 4;
},
{
horizontal = 1;
origin = "{0, 16}";
target = "{0, 12}";
other1 = "{0, 9}";
type = Interpolate;
options = 4;
}
);
layerId = "A40D6D23-B1DA-4472-8F2A-1C08CC11B4FE";
paths = (
{
closed = 1;
nodes = (
"418 -14 OFFCURVE",
"506 86 OFFCURVE",
"506 255 CURVE SMOOTH",
"506 425 OFFCURVE",
"421 525 OFFCURVE",
"268 525 CURVE SMOOTH",
"174 525 OFFCURVE",
"64 487 OFFCURVE",
"35 355 CURVE",
"125 355 LINE",
"153 428 OFFCURVE",
"205 447 OFFCURVE",
"267 447 CURVE SMOOTH",
"365 447 OFFCURVE",
"406 385 OFFCURVE",
"411 282 CURVE",
"29 282 LINE",
"29 265 LINE SMOOTH",
"29 56 OFFCURVE",
"131 -14 OFFCURVE",
"264 -14 CURVE SMOOTH"
);
},
{
closed = 1;
nodes = (
"181 58 OFFCURVE",
"123 116 OFFCURVE",
"120 206 CURVE",
"409 206 LINE",
"399 116 OFFCURVE",
"355 58 OFFCURVE",
"264 58 CURVE SMOOTH"
);
}
);
width = 535;
},
{
layerId = m002;
paths = (
{
closed = 1;
nodes = (
"396 -14 OFFCURVE",
"480 86 OFFCURVE",
"480 255 CURVE SMOOTH",
"480 425 OFFCURVE",
"396 525 OFFCURVE",
"254 525 CURVE SMOOTH",
"133 525 OFFCURVE",
"51 457 OFFCURVE",
"34 341 CURVE",
"81 341 LINE",
"96 433 OFFCURVE",
"160 488 OFFCURVE",
"254 488 CURVE SMOOTH",
"361 488 OFFCURVE",
"427 407 OFFCURVE",
"432 270 CURVE",
"29 270 LINE",
"29 232 LINE SMOOTH",
"29 77 OFFCURVE",
"113 -14 OFFCURVE",
"254 -14 CURVE SMOOTH"
);
},
{
closed = 1;
nodes = (
"160 21 OFFCURVE",
"78 84 OFFCURVE",
"75 232 CURVE",
"431 232 LINE",
"425 99 OFFCURVE",
"359 21 OFFCURVE",
"254 21 CURVE SMOOTH"
);
}
);
width = 509;
},
{
layerId = "5BCD9238-7200-4447-A55E-E4A4B2A2A7AE";
paths = (
{
closed = 1;
nodes = (
"451 -14 OFFCURVE",
"546 86 OFFCURVE",
"546 255 CURVE SMOOTH",
"546 425 OFFCURVE",
"451 525 OFFCURVE",
"286 525 CURVE SMOOTH",
"153 525 OFFCURVE",
"60 455 OFFCURVE",
"34 332 CURVE",
"190 332 LINE",
"208 372 OFFCURVE",
"240 395 OFFCURVE",
"286 395 CURVE SMOOTH",
"348 395 OFFCURVE",
"386 355 OFFCURVE",
"395 286 CURVE",
"27 286 LINE",
"27 254 LINE SMOOTH",
"27 86 OFFCURVE",
"126 -14 OFFCURVE",
"286 -14 CURVE SMOOTH"
);
},
{
closed = 1;
nodes = (
"236 108 OFFCURVE",
"192 135 OFFCURVE",
"186 184 CURVE",
"387 184 LINE",
"381 135 OFFCURVE",
"337 108 OFFCURVE",
"286 108 CURVE SMOOTH"
);
}
);
width = 573;
}
);
leftKerningGroup = e;
leftMetricsKey = o;
rightKerningGroup = o;
rightMetricsKey = o;
unicode = 0259;
},
{
glyphname = f;
lastChange = "2023-10-24 10:26:15 +0000";
layers = (
{
anchors = (
{
name = bottom;
position = "{158, 0}";
},
{
name = top;
position = "{158, 800}";
}
);
hints = (
{
horizontal = 1;
origin = "{1, 2}";
target = "{1, 3}";
type = TTStem;
stem = -1;
options = 4;
},
{
horizontal = 1;
origin = "{0, 11}";
type = Anchor;
},
{
horizontal = 1;
origin = "{1, 3}";
target = "{1, 0}";
type = Align;
options = 4;
},
{
horizontal = 1;
origin = "{0, 6}";
target = "{0, 5}";
type = TTStem;
stem = -1;
options = 4;
}
);
layerId = "A40D6D23-B1DA-4472-8F2A-1C08CC11B4FE";
paths = (
{
closed = 1;
nodes = (
"179 0 LINE",
"179 578 LINE SMOOTH",
"179 629 OFFCURVE",
"194 642 OFFCURVE",
"252 642 CURVE SMOOTH",
"296 642 LINE",
"296 724 LINE",
"213 724 LINE SMOOTH",
"138 724 OFFCURVE",
"88 674 OFFCURVE",
"88 598 CURVE SMOOTH",
"88 0 LINE"
);
},
{
closed = 1;
nodes = (
"281 435 LINE",
"281 510 LINE",
"20 510 LINE",
"20 435 LINE"
);
}
);
width = 316;
},
{
anchors = (
{
name = bottom;
position = "{133, 0}";
},
{
name = top;
position = "{133, 800}";
}
);
guideLines = (
{
position = "{154, 578}";
},
{
position = "{63, 598}";
}
);
layerId = m002;
paths = (
{
closed = 1;
nodes = (
"131 0 LINE",
"131 590 LINE SMOOTH",
"131 664 OFFCURVE",
"146 682 OFFCURVE",
"207 682 CURVE SMOOTH",
"242 682 LINE",
"242 724 LINE",
"210 724 LINE SMOOTH",
"117 724 OFFCURVE",
"85 692 OFFCURVE",
"85 598 CURVE SMOOTH",
"85 0 LINE"
);
},
{
closed = 1;
nodes = (
"229 472 LINE",
"229 510 LINE",
"18 510 LINE",
"18 472 LINE"
);
}
);
width = 257;
},
{
anchors = (
{
name = bottom;
position = "{154, 0}";
},
{
name = top;
position = "{154, 800}";
}
);
layerId = "5BCD9238-7200-4447-A55E-E4A4B2A2A7AE";
paths = (
{
closed = 1;
nodes = (
"231 0 LINE",
"231 519 LINE SMOOTH",
"231 585 OFFCURVE",
"237 591 OFFCURVE",
"300 591 CURVE SMOOTH",
"330 591 LINE",
"330 725 LINE",
"208 725 LINE SMOOTH",
"132 725 OFFCURVE",
"83 675 OFFCURVE",
"83 599 CURVE SMOOTH",
"83 0 LINE"
);
},
{
closed = 1;
nodes = (
"322 382 LINE",
"322 510 LINE",
"17 510 LINE",
"17 382 LINE"
);
}
);
width = 347;
}
);
leftKerningGroup = f;
rightKerningGroup = f;
unicode = 0066;
},
{
glyphname = g;
lastChange = "2023-10-24 09:37:42 +0000";
layers = (
{
anchors = (
{
name = bottom;
position = "{276, -200}";
},
{
name = top;
position = "{276, 510}";
}
);
hints = (
{
horizontal = 1;
origin = "{0, 19}";
target = "{0, 12}";
type = TTStem;
stem = -1;
options = 4;
},
{
horizontal = 1;
origin = "{1, 11}";
target = "{2, 11}";
type = TTStem;
stem = -1;
options = 4;
},
{
horizontal = 1;
origin = "{1, 5}";
target = "{2, 5}";
type = TTStem;
stem = -1;
options = 4;
},
{
horizontal = 1;
origin = "{0, 4}";
type = Anchor;
},
{
horizontal = 1;
origin = "{2, 11}";
target = "{2, 5}";
other1 = "{2, 8}";
type = Interpolate;
options = 4;
},
{
horizontal = 1;
origin = "{0, 12}";
target = "{1, 11}";
other1 = "{0, 15}";
type = Interpolate;
options = 4;
}
);
layerId = "A40D6D23-B1DA-4472-8F2A-1C08CC11B4FE";
paths = (
{
closed = 1;
nodes = (
"426 -215 OFFCURVE",
"503 -133 OFFCURVE",
"503 52 CURVE SMOOTH",
"503 510 LINE",
"415 510 LINE",
"415 396 LINE",
"422 381 LINE",
"422 107 LINE",
"413 96 LINE",
"413 56 LINE SMOOTH",
"413 -64 OFFCURVE",
"378 -139 OFFCURVE",
"270 -139 CURVE SMOOTH",
"215 -139 OFFCURVE",
"165 -117 OFFCURVE",
"137 -44 CURVE",
"48 -44 LINE",
"77 -176 OFFCURVE",
"175 -215 OFFCURVE",
"271 -215 CURVE SMOOTH"
);
},
{
closed = 1;
nodes = (
"414 -6 OFFCURVE",
"474 137 OFFCURVE",
"474 254 CURVE SMOOTH",
"474 341 OFFCURVE",
"432 524 OFFCURVE",
"264 524 CURVE SMOOTH",
"122 524 OFFCURVE",
"29 426 OFFCURVE",
"29 254 CURVE SMOOTH",
"29 85 OFFCURVE",
"112 -6 OFFCURVE",
"262 -6 CURVE SMOOTH"
);
},
{
closed = 1;
nodes = (
"162 71 OFFCURVE",
"121 139 OFFCURVE",
"121 254 CURVE SMOOTH",
"121 369 OFFCURVE",
"160 447 OFFCURVE",
"264 447 CURVE SMOOTH",
"375 447 OFFCURVE",
"418 363 OFFCURVE",
"418 254 CURVE SMOOTH",
"418 146 OFFCURVE",
"369 71 OFFCURVE",
"262 71 CURVE SMOOTH"
);
}
);
width = 553;
},
{
anchors = (
{
name = bottom;
position = "{258, -200}";
},
{
name = top;
position = "{253, 510}";
}
);
guideLines = (
{
angle = 180;
position = "{93, -44}";
},
{
position = "{262, -6}";
},
{
angle = 90;
position = "{48, -44}";
}
);
layerId = m002;
paths = (
{
closed = 1;
nodes = (
"392 -215 OFFCURVE",
"455 -136 OFFCURVE",
"455 35 CURVE SMOOTH",
"455 510 LINE",
"409 510 LINE",
"409 419 LINE",
"416 402 LINE",
"416 156 LINE",
"412 136 LINE",
"412 35 LINE SMOOTH",
"412 -112 OFFCURVE",
"363 -180 OFFCURVE",
"255 -180 CURVE SMOOTH",
"160 -180 OFFCURVE",
"104 -132 OFFCURVE",
"93 -39 CURVE",
"49 -39 LINE",
"60 -155 OFFCURVE",
"130 -215 OFFCURVE",
"255 -215 CURVE SMOOTH"
);
},
{
closed = 1;
nodes = (
"373 -14 OFFCURVE",
"450 92 OFFCURVE",
"450 256 CURVE SMOOTH",
"450 419 OFFCURVE",
"373 525 OFFCURVE",
"244 525 CURVE SMOOTH",
"109 525 OFFCURVE",
"29 425 OFFCURVE",
"29 256 CURVE SMOOTH",
"29 86 OFFCURVE",
"103 -14 OFFCURVE",
"244 -14 CURVE SMOOTH"
);
},
{
closed = 1;
nodes = (
"139 21 OFFCURVE",
"77 108 OFFCURVE",
"77 256 CURVE SMOOTH",
"77 404 OFFCURVE",
"139 491 OFFCURVE",
"244 491 CURVE SMOOTH",
"350 491 OFFCURVE",
"412 404 OFFCURVE",
"412 256 CURVE SMOOTH",
"412 108 OFFCURVE",
"350 21 OFFCURVE",
"244 21 CURVE SMOOTH"
);
}
);
width = 501;
},
{
anchors = (
{
name = bottom;
position = "{260, -200}";
},
{
name = top;
position = "{275, 510}";
}
);
layerId = "5BCD9238-7200-4447-A55E-E4A4B2A2A7AE";
paths = (
{
closed = 1;
nodes = (
"461 -215 OFFCURVE",
"547 -134 OFFCURVE",
"547 20 CURVE SMOOTH",
"547 510 LINE",
"397 510 LINE",
"397 407 LINE",
"411 404 LINE",
"411 93 LINE",
"400 85 LINE",
"400 40 LINE SMOOTH",
"400 -46 OFFCURVE",
"365 -91 OFFCURVE",
"297 -91 CURVE SMOOTH",
"238 -91 OFFCURVE",
"203 -69 OFFCURVE",
"193 -28 CURVE",
"42 -28 LINE",
"51 -151 OFFCURVE",
"139 -215 OFFCURVE",
"297 -215 CURVE SMOOTH"
);
},
{
closed = 1;
nodes = (
"383 -6 OFFCURVE",
"455 86 OFFCURVE",
"455 256 CURVE SMOOTH",
"455 425 OFFCURVE",
"383 525 OFFCURVE",
"260 525 CURVE SMOOTH",
"114 525 OFFCURVE",
"27 425 OFFCURVE",
"27 256 CURVE SMOOTH",
"27 86 OFFCURVE",
"114 -6 OFFCURVE",
"260 -6 CURVE SMOOTH"
);
},
{
closed = 1;
nodes = (
"218 124 OFFCURVE",
"176 168 OFFCURVE",
"176 256 CURVE SMOOTH",
"176 347 OFFCURVE",
"218 400 OFFCURVE",
"288 400 CURVE SMOOTH",
"359 400 OFFCURVE",
"401 347 OFFCURVE",
"401 256 CURVE SMOOTH",
"401 168 OFFCURVE",
"359 124 OFFCURVE",
"288 124 CURVE SMOOTH"
);
}
);
width = 592;
}
);
leftKerningGroup = g;
leftMetricsKey = o;
rightKerningGroup = g;
rightMetricsKey = l;
unicode = 0067;
},
{
glyphname = h;
lastChange = "2023-10-24 09:38:23 +0000";
layers = (
{
anchors = (
{
name = bottom;
position = "{257, 0}";
},
{
name = center;
position = "{257, 400}";
},
{
name = top;
position = "{257, 800}";
}
);
hints = (
{
horizontal = 1;
origin = "{0, 4}";
target = "{0, 11}";
type = TTStem;
stem = -1;
options = 4;
},
{
horizontal = 1;
origin = "{1, 2}";
type = Anchor;
},
{
horizontal = 1;
origin = "{1, 3}";
type = Anchor;
},
{
horizontal = 1;
origin = "{1, 3}";
target = "{0, 15}";
type = Align;
options = 4;
}
);
layerId = "A40D6D23-B1DA-4472-8F2A-1C08CC11B4FE";
paths = (
{
closed = 1;
nodes = (
"466 0 LINE",
"466 340 LINE SMOOTH",
"466 455 OFFCURVE",
"397 525 OFFCURVE",
"292 525 CURVE SMOOTH",
"198 525 OFFCURVE",
"98 466 OFFCURVE",
"98 299 CURVE",
"140 276 LINE",
"140 387 OFFCURVE",
"179 453 OFFCURVE",
"264 453 CURVE SMOOTH",
"344 453 OFFCURVE",
"375 406 OFFCURVE",
"375 310 CURVE SMOOTH",
"375 0 LINE"
);
},
{
closed = 1;
nodes = (
"140 0 LINE",
"140 712 LINE",
"50 712 LINE",
"50 0 LINE"
);
}
);
width = 513;
},
{
anchors = (
{
name = bottom;
position = "{236, 0}";
},
{
name = center;
position = "{236, 400}";
},
{
name = top;
position = "{236, 800}";
}
);
layerId = m002;
paths = (
{
closed = 1;
nodes = (
"421 0 LINE",
"421 319 LINE SMOOTH",
"421 454 OFFCURVE",
"360 525 OFFCURVE",
"258 525 CURVE SMOOTH",
"135 525 OFFCURVE",
"60 430 OFFCURVE",
"60 268 CURVE",
"92 265 LINE",
"92 403 OFFCURVE",
"155 485 OFFCURVE",
"253 485 CURVE SMOOTH",
"331 485 OFFCURVE",
"374 430 OFFCURVE",
"374 309 CURVE SMOOTH",
"374 0 LINE"
);
},
{
closed = 1;
nodes = (
"92 0 LINE",
"92 712 LINE",
"46 712 LINE",
"46 0 LINE"
);
}
);
width = 464;
},
{
anchors = (
{
name = bottom;
position = "{254, 0}";
},
{
name = center;
position = "{254, 400}";
},
{
name = top;
position = "{254, 800}";
}
);
layerId = "5BCD9238-7200-4447-A55E-E4A4B2A2A7AE";
paths = (
{
closed = 1;
nodes = (
"515 0 LINE",
"515 356 LINE SMOOTH",
"515 459 OFFCURVE",
"446 525 OFFCURVE",
"337 525 CURVE SMOOTH",
"234 525 OFFCURVE",
"158 442 OFFCURVE",
"158 328 CURVE",
"193 275 LINE",
"193 360 OFFCURVE",
"221 397 OFFCURVE",
"283 397 CURVE SMOOTH",
"335 397 OFFCURVE",
"366 360 OFFCURVE",
"366 296 CURVE SMOOTH",
"366 0 LINE"
);
},
{
closed = 1;
nodes = (
"193 0 LINE",
"193 710 LINE",
"45 710 LINE",
"45 0 LINE"
);
}
);
width = 558;
}
);
leftKerningGroup = l;
leftMetricsKey = l;
rightKerningGroup = n;
rightMetricsKey = n;
unicode = 0068;
},
{
glyphname = hbar;
lastChange = "2023-10-24 09:39:01 +0000";
layers = (
{
components = (
{
name = h;
transform = "{1, 0, 0, 1, 20, 0}";
}
);
hints = (
{
horizontal = 1;
origin = "{0, 3}";
type = Anchor;
},
{
horizontal = 1;
origin = "{0, 3}";
target = "{0, 0}";
type = Align;
options = 4;
}
);
layerId = "A40D6D23-B1DA-4472-8F2A-1C08CC11B4FE";
paths = (
{
closed = 1;
nodes = (
"365 574 LINE",
"365 648 LINE",
"0 648 LINE",
"0 574 LINE"
);
}
);
width = 533;
},
{
components = (
{
name = h;
transform = "{1, 0, 0, 1, 59, 0}";
}
);
layerId = m002;
paths = (
{
closed = 1;
nodes = (
"325 592 LINE",
"325 630 LINE",
"0 630 LINE",
"0 592 LINE"
);
}
);
width = 523;
},
{
components = (
{
name = h;
transform = "{1, 0, 0, 1, 19, 0}";
}
);
layerId = "5BCD9238-7200-4447-A55E-E4A4B2A2A7AE";
paths = (
{
closed = 1;
nodes = (
"365 560 LINE",
"365 664 LINE",
"0 664 LINE",
"0 560 LINE"
);
}
);
width = 577;
}
);
leftKerningGroup = h;
rightKerningGroup = n;
rightMetricsKey = n;
unicode = 0127;
},
{
glyphname = i;
lastChange = "2023-10-24 10:26:15 +0000";
layers = (
{
anchors = (
{
name = bottom;
position = "{93, 0}";
}
);
components = (
{
name = idotless;
transform = "{1, 0, 0, 1, 4, 0}";
}
);
hints = (
{
horizontal = 1;
origin = "{0, 3}";
target = "{0, 2}";
type = TTStem;
stem = -1;
options = 4;
}
);
layerId = "A40D6D23-B1DA-4472-8F2A-1C08CC11B4FE";
paths = (
{
closed = 1;
nodes = (
"136 608 LINE",
"136 708 LINE",
"50 708 LINE",
"50 608 LINE"
);
}
);
width = 182;
},
{
anchors = (
{
name = bottom;
position = "{99, 0}";
}
);
components = (
{
name = idotless;
transform = "{1, 0, 0, 1, 8, 0}";
}
);
layerId = m002;
paths = (
{
closed = 1;
nodes = (
"84 608 LINE",
"84 708 LINE",
"42 708 LINE",
"42 608 LINE"
);
}
);
width = 134;
},
{
anchors = (
{
name = bottom;
position = "{86, 0}";
}
);
components = (
{
name = idotless;
transform = "{1, 0, 0, 1, 4, 0}";
}
);
layerId = "5BCD9238-7200-4447-A55E-E4A4B2A2A7AE";
paths = (
{
closed = 1;
nodes = (
"184 588 LINE",
"184 708 LINE",
"42 708 LINE",
"42 588 LINE"
);
}
);
width = 230;
}
);
leftKerningGroup = i;
leftMetricsKey = "=l-4";
rightKerningGroup = i;
rightMetricsKey = "=l-4";
unicode = 0069;
},
{
glyphname = idotless;
lastChange = "2023-10-24 09:39:37 +0000";
layers = (
{
anchors = (
{
name = bottom;
position = "{87, 0}";
},
{
name = ogonek;
position = "{312, 10}";
},
{
name = top;
position = "{87, 510}";
}
);
hints = (
{
horizontal = 1;
origin = "{0, 2}";
type = Anchor;
},
{
horizontal = 1;
origin = "{0, 3}";
type = Anchor;
}
);
layerId = "A40D6D23-B1DA-4472-8F2A-1C08CC11B4FE";
paths = (
{
closed = 1;
nodes = (
"132 0 LINE",
"132 510 LINE",
"42 510 LINE",
"42 0 LINE"
);
}
);
width = 174;
},
{
anchors = (
{
name = bottom;
position = "{61, 0}";
},
{
name = ogonek;
position = "{294, 10}";
},
{
name = top;
position = "{61, 510}";
}
);
layerId = m002;
paths = (
{
closed = 1;
nodes = (
"84 0 LINE",
"84 510 LINE",
"38 510 LINE",
"38 0 LINE"
);
}
);
width = 122;
},
{
anchors = (
{
name = bottom;
position = "{111, 0}";
},
{
name = ogonek;
position = "{344, 10}";
},
{
name = top;
position = "{111, 510}";
}
);
layerId = "5BCD9238-7200-4447-A55E-E4A4B2A2A7AE";
paths = (
{
closed = 1;
nodes = (
"185 0 LINE",
"185 510 LINE",
"37 510 LINE",
"37 0 LINE"
);
}
);
width = 222;
}
);
leftKerningGroup = i;
leftMetricsKey = "=l-8";
rightKerningGroup = i;
rightMetricsKey = "=l-8";
unicode = 0131;
},
{
glyphname = j;
lastChange = "2023-10-24 10:26:15 +0000";
layers = (
{
components = (
{
name = jdotless;
}
);
hints = (
{
horizontal = 1;
origin = "{0, 3}";
target = "{0, 2}";
type = TTStem;
stem = -1;
options = 4;
}
);
layerId = "A40D6D23-B1DA-4472-8F2A-1C08CC11B4FE";
paths = (
{
closed = 1;
nodes = (
"161 608 LINE",
"161 708 LINE",
"75 708 LINE",
"75 608 LINE"
);
}
);
width = 209;
},
{
components = (
{
name = jdotless;
transform = "{1, 0, 0, 1, -4, 0}";
}
);
layerId = m002;
paths = (
{
closed = 1;
nodes = (
"130 608 LINE",
"130 708 LINE",
"88 708 LINE",
"88 608 LINE"
);
}
);
width = 172;
},
{
components = (
{
name = jdotless;
transform = "{1, 0, 0, 1, -12, 0}";
}
);
layerId = "5BCD9238-7200-4447-A55E-E4A4B2A2A7AE";
paths = (
{
closed = 1;
nodes = (
"210 588 LINE",
"210 708 LINE",
"68 708 LINE",
"68 588 LINE"
);
}
);
width = 251;
}
);
leftKerningGroup = j;
rightKerningGroup = j;
rightMetricsKey = i;
unicode = 006A;
},
{
glyphname = jdotless;
lastChange = "2023-10-24 09:40:21 +0000";
layers = (
{
anchors = (
{
name = bottom;
position = "{104, -200}";
},
{
name = top;
position = "{104, 510}";
}
);
hints = (
{
horizontal = 1;
origin = "{0, 11}";
target = "{0, 10}";
type = TTStem;
stem = -1;
options = 4;
},
{
horizontal = 1;
origin = "{0, 5}";
type = Anchor;
}
);
layerId = "A40D6D23-B1DA-4472-8F2A-1C08CC11B4FE";
paths = (
{
closed = 1;
nodes = (
"29 -195 LINE SMOOTH",
"113 -195 OFFCURVE",
"163 -144 OFFCURVE",
"163 -59 CURVE SMOOTH",
"163 510 LINE",
"73 510 LINE",
"73 -34 LINE SMOOTH",
"73 -95 OFFCURVE",
"56 -113 OFFCURVE",
"0 -113 CURVE SMOOTH",
"-33 -113 LINE",
"-33 -195 LINE"
);
}
);
width = 209;
},
{
anchors = (
{
name = bottom;
position = "{91, -200}";
},
{
name = top;
position = "{91, 510}";
}
);
guideLines = (
{
angle = 270;
position = "{-46, -157}";
}
);
layerId = m002;
paths = (
{
closed = 1;
nodes = (
"-3 -214 LINE SMOOTH",
"90 -214 OFFCURVE",
"122 -182 OFFCURVE",
"122 -88 CURVE SMOOTH",
"122 510 LINE",
"76 510 LINE",
"76 -80 LINE SMOOTH",
"76 -154 OFFCURVE",
"61 -172 OFFCURVE",
"0 -172 CURVE SMOOTH",
"-35 -172 LINE",
"-35 -214 LINE"
);
}
);
width = 164;
},
{
anchors = (
{
name = bottom;
position = "{93, -200}";
},
{
name = top;
position = "{120, 510}";
}
);
layerId = "5BCD9238-7200-4447-A55E-E4A4B2A2A7AE";
paths = (
{
closed = 1;
nodes = (
"87 -196 LINE SMOOTH",
"163 -196 OFFCURVE",
"212 -146 OFFCURVE",
"212 -70 CURVE SMOOTH",
"212 510 LINE",
"64 510 LINE",
"64 10 LINE SMOOTH",
"64 -56 OFFCURVE",
"58 -62 OFFCURVE",
"-5 -62 CURVE SMOOTH",
"-35 -62 LINE",
"-35 -196 LINE"
);
}
);
width = 253;
}
);
leftKerningGroup = j;
rightKerningGroup = j;
rightMetricsKey = i;
unicode = 0237;
},
{
glyphname = k;
lastChange = "2023-10-24 09:42:10 +0000";
layers = (
{
anchors = (
{
name = bottom;
position = "{247, 0}";
},
{
name = top;
position = "{247, 800}";
}
);
hints = (
{
horizontal = 1;
origin = "{1, 3}";
target = "{1, 2}";
type = TTStem;
stem = -1;
options = 4;
},
{
horizontal = 1;
origin = "{2, 2}";
type = Anchor;
},
{
horizontal = 1;
origin = "{2, 3}";
type = Anchor;
},
{
horizontal = 1;
origin = "{2, 3}";
target = "{0, 3}";
type = Align;
options = 4;
},
{
horizontal = 1;
origin = "{2, 3}";
target = "{2, 2}";
other1 = "{1, 3}";
type = Interpolate;
options = 4;
},
{
horizontal = 1;
origin = "{3, 2}";
type = Anchor;
}
);
layerId = "A40D6D23-B1DA-4472-8F2A-1C08CC11B4FE";
paths = (
{
closed = 1;
nodes = (
"489 0 LINE",
"266 282 LINE",
"155 282 LINE",
"377 0 LINE"
);
},
{
closed = 1;
nodes = (
"276 223 LINE",
"276 308 LINE",
"50 308 LINE",
"50 223 LINE"
);
},
{
closed = 1;
nodes = (
"140 0 LINE",
"140 712 LINE",
"50 712 LINE",
"50 0 LINE"
);
},
{
closed = 1;
nodes = (
"273 266 LINE",
"465 510 LINE",
"357 510 LINE",
"165 266 LINE"
);
}
);
width = 496;
},
{
anchors = (
{
name = bottom;
position = "{223, 0}";
},
{
name = top;
position = "{223, 800}";
}
);
layerId = m002;
paths = (
{
closed = 1;
nodes = (
"437 0 LINE",
"214 282 LINE",
"158 282 LINE",
"380 0 LINE"
);
},
{
closed = 1;
nodes = (
"222 245 LINE",
"222 287 LINE",
"56 287 LINE",
"56 245 LINE"
);
},
{
closed = 1;
nodes = (
"92 0 LINE",
"92 712 LINE",
"46 712 LINE",
"46 0 LINE"
);
},
{
closed = 1;
nodes = (
"223 266 LINE",
"415 510 LINE",
"359 510 LINE",
"167 266 LINE"
);
}
);
width = 444;
},
{
anchors = (
{
name = bottom;
position = "{268, 0}";
},
{
name = top;
position = "{268, 800}";
}
);
layerId = "5BCD9238-7200-4447-A55E-E4A4B2A2A7AE";
paths = (
{
closed = 1;
nodes = (
"557 0 LINE",
"344 275 LINE",
"159 275 LINE",
"371 0 LINE"
);
},
{
closed = 1;
nodes = (
"337 195 LINE",
"337 335 LINE",
"45 335 LINE",
"45 195 LINE"
);
},
{
closed = 1;
nodes = (
"193 0 LINE",
"193 712 LINE",
"45 712 LINE",
"45 0 LINE"
);
},
{
closed = 1;
nodes = (
"349 266 LINE",
"531 510 LINE",
"352 510 LINE",
"170 266 LINE"
);
}
);
width = 564;
}
);
leftKerningGroup = l;
leftMetricsKey = l;
rightKerningGroup = k;
rightMetricsKey = v;
unicode = 006B;
},
{
glyphname = l;
lastChange = "2023-10-24 09:42:20 +0000";
layers = (
{
anchors = (
{
name = bottom;
position = "{85, 0}";
},
{
name = center;
position = "{95, 400}";
},
{
name = top;
position = "{95, 712}";
},
{
name = topright;
position = "{191, 800}";
}
);
hints = (
{
horizontal = 1;
origin = "{0, 2}";
type = Anchor;
},
{
horizontal = 1;
origin = "{0, 3}";
type = Anchor;
}
);
layerId = "A40D6D23-B1DA-4472-8F2A-1C08CC11B4FE";
paths = (
{
closed = 1;
nodes = (
"139 0 LINE",
"139 712 LINE",
"50 712 LINE",
"50 0 LINE"
);
}
);
width = 189;
},
{
anchors = (
{
name = bottom;
position = "{53, 0}";
},
{
name = center;
position = "{70, 400}";
},
{
name = top;
position = "{70, 712}";
},
{
name = topright;
position = "{166, 800}";
}
);
layerId = m002;
paths = (
{
closed = 1;
nodes = (
"92 0 LINE",
"92 712 LINE",
"46 712 LINE",
"46 0 LINE"
);
}
);
width = 138;
},
{
anchors = (
{
name = bottom;
position = "{91, 0}";
},
{
name = center;
position = "{119, 400}";
},
{
name = top;
position = "{119, 712}";
},
{
name = topright;
position = "{215, 800}";
}
);
layerId = "5BCD9238-7200-4447-A55E-E4A4B2A2A7AE";
paths = (
{
closed = 1;
nodes = (
"193 0 LINE",
"193 712 LINE",
"45 712 LINE",
"45 0 LINE"
);
}
);
width = 238;
}
);
leftKerningGroup = l;
rightKerningGroup = l;
unicode = 006C;
},
{
glyphname = lslash;
lastChange = "2023-10-24 10:26:15 +0000";
layers = (
{
components = (
{
name = I;
transform = "{1, 0, 0, 1, 52, 0}";
}
);
hints = (
{
horizontal = 1;
origin = "{0, 3}";
target = "{0, 1}";
type = TTStem;
stem = -1;
options = 4;
}
);
layerId = "A40D6D23-B1DA-4472-8F2A-1C08CC11B4FE";
paths = (
{
closed = 1;
nodes = (
"324 353 LINE",
"324 441 LINE",
"0 326 LINE",
"0 238 LINE"
);
}
);
width = 324;
},
{
components = (
{
name = I;
transform = "{1, 0, 0, 1, 48, 0}";
}
);
layerId = m002;
paths = (
{
closed = 1;
nodes = (
"254 363 LINE",
"254 403 LINE",
"0 313 LINE",
"0 273 LINE"
);
}
);
width = 254;
},
{
components = (
{
name = I;
transform = "{1, 0, 0, 1, 22, 0}";
}
);
layerId = "5BCD9238-7200-4447-A55E-E4A4B2A2A7AE";
paths = (
{
closed = 1;
nodes = (
"309 343 LINE",
"309 471 LINE",
"0 361 LINE",
"0 233 LINE"
);
}
);
width = 309;
}
);
leftKerningGroup = lslash;
rightKerningGroup = lslash;
unicode = 0142;
},
{
glyphname = m;
lastChange = "2023-10-24 09:43:28 +0000";
layers = (
{
anchors = (
{
name = bottom;
position = "{410, 0}";
},
{
name = top;
position = "{410, 510}";
}
);
hints = (
{
horizontal = 1;
origin = "{1, 4}";
type = Anchor;
},
{
horizontal = 1;
origin = "{1, 5}";
type = Anchor;
},
{
horizontal = 1;
origin = "{2, 4}";
target = "{2, 11}";
type = TTStem;
stem = -1;
options = 4;
},
{
horizontal = 1;
origin = "{1, 5}";
target = "{2, 15}";
type = Align;
options = 4;
},
{
horizontal = 1;
origin = "{1, 5}";
target = "{0, 15}";
type = Align;
options = 4;
},
{
horizontal = 1;
origin = "{2, 11}";
target = "{0, 11}";
type = Align;
options = 4;
}
);
layerId = "A40D6D23-B1DA-4472-8F2A-1C08CC11B4FE";
paths = (
{
closed = 1;
nodes = (
"772 0 LINE",
"772 339 LINE SMOOTH",
"772 461 OFFCURVE",
"702 525 OFFCURVE",
"597 525 CURVE SMOOTH",
"503 525 OFFCURVE",
"413 485 OFFCURVE",
"413 318 CURVE",
"456 275 LINE",
"456 386 OFFCURVE",
"484 453 OFFCURVE",
"569 453 CURVE SMOOTH",
"649 453 OFFCURVE",
"680 405 OFFCURVE",
"680 309 CURVE SMOOTH",
"680 0 LINE"
);
},
{
closed = 1;
nodes = (
"139 0 LINE",
"139 397 LINE",
"136 412 LINE",
"136 510 LINE",
"49 510 LINE",
"49 0 LINE"
);
},
{
closed = 1;
nodes = (
"456 0 LINE",
"456 339 LINE SMOOTH",
"456 454 OFFCURVE",
"376 525 OFFCURVE",
"281 525 CURVE SMOOTH",
"187 525 OFFCURVE",
"97 465 OFFCURVE",
"97 298 CURVE",
"139 275 LINE",
"139 386 OFFCURVE",
"168 453 OFFCURVE",
"253 453 CURVE SMOOTH",
"333 453 OFFCURVE",
"364 405 OFFCURVE",
"364 309 CURVE SMOOTH",
"364 0 LINE"
);
}
);
width = 819;
},
{
anchors = (
{
name = bottom;
position = "{419, 0}";
},
{
name = top;
position = "{419, 510}";
}
);
guideLines = (
{
position = "{116, 425}";
}
);
layerId = m002;
paths = (
{
closed = 1;
nodes = (
"709 1 LINE",
"709 320 LINE SMOOTH",
"709 455 OFFCURVE",
"658 526 OFFCURVE",
"556 526 CURVE SMOOTH",
"433 526 OFFCURVE",
"368 451 OFFCURVE",
"368 269 CURVE",
"400 266 LINE",
"400 404 OFFCURVE",
"453 486 OFFCURVE",
"551 486 CURVE SMOOTH",
"629 486 OFFCURVE",
"662 431 OFFCURVE",
"662 310 CURVE SMOOTH",
"662 1 LINE"
);
},
{
closed = 1;
nodes = (
"91 0 LINE",
"91 387 LINE",
"88 402 LINE",
"88 510 LINE",
"45 510 LINE",
"45 0 LINE"
);
},
{
closed = 1;
nodes = (
"400 0 LINE",
"400 319 LINE SMOOTH",
"400 454 OFFCURVE",
"349 525 OFFCURVE",
"247 525 CURVE SMOOTH",
"124 525 OFFCURVE",
"59 430 OFFCURVE",
"59 268 CURVE",
"91 265 LINE",
"91 403 OFFCURVE",
"144 485 OFFCURVE",
"242 485 CURVE SMOOTH",
"320 485 OFFCURVE",
"353 430 OFFCURVE",
"353 309 CURVE SMOOTH",
"353 0 LINE"
);
}
);
width = 752;
},
{
anchors = (
{
name = bottom;
position = "{408, 0}";
},
{
name = top;
position = "{408, 510}";
}
);
layerId = "5BCD9238-7200-4447-A55E-E4A4B2A2A7AE";
paths = (
{
closed = 1;
nodes = (
"817 0 LINE",
"817 356 LINE SMOOTH",
"817 461 OFFCURVE",
"751 525 OFFCURVE",
"644 525 CURVE SMOOTH",
"542 525 OFFCURVE",
"470 463 OFFCURVE",
"470 328 CURVE",
"505 275 LINE",
"505 362 OFFCURVE",
"529 397 OFFCURVE",
"590 397 CURVE SMOOTH",
"641 397 OFFCURVE",
"668 362 OFFCURVE",
"668 296 CURVE SMOOTH",
"668 0 LINE"
);
},
{
closed = 1;
nodes = (
"193 0 LINE",
"193 410 LINE",
"190 425 LINE",
"190 510 LINE",
"45 510 LINE",
"45 0 LINE"
);
},
{
closed = 1;
nodes = (
"505 0 LINE",
"505 356 LINE SMOOTH",
"505 461 OFFCURVE",
"439 525 OFFCURVE",
"332 525 CURVE SMOOTH",
"230 525 OFFCURVE",
"158 443 OFFCURVE",
"158 328 CURVE",
"193 275 LINE",
"193 362 OFFCURVE",
"217 397 OFFCURVE",
"278 397 CURVE SMOOTH",
"329 397 OFFCURVE",
"356 362 OFFCURVE",
"356 296 CURVE SMOOTH",
"356 0 LINE"
);
}
);
width = 860;
}
);
leftKerningGroup = n;
leftMetricsKey = n;
rightKerningGroup = n;
rightMetricsKey = n;
unicode = 006D;
},
{
glyphname = n;
lastChange = "2023-10-23 16:45:39 +0000";
layers = (
{
anchors = (
{
name = bottom;
position = "{257, 0}";
},
{
name = top;
position = "{257, 510}";
}
);
hints = (
{
horizontal = 1;
origin = "{0, 4}";
target = "{0, 11}";
type = TTStem;
stem = -1;
options = 4;
},
{
horizontal = 1;
origin = "{1, 5}";
type = Anchor;
},
{
horizontal = 1;
origin = "{1, 5}";
target = "{0, 15}";
type = Align;
options = 4;
},
{
horizontal = 1;
origin = "{1, 4}";
type = Anchor;
}
);
layerId = "A40D6D23-B1DA-4472-8F2A-1C08CC11B4FE";
paths = (
{
closed = 1;
nodes = (
"466 0 LINE",
"466 339 LINE SMOOTH",
"466 454 OFFCURVE",
"396 525 OFFCURVE",
"291 525 CURVE SMOOTH",
"197 525 OFFCURVE",
"97 465 OFFCURVE",
"97 298 CURVE",
"139 275 LINE",
"139 386 OFFCURVE",
"178 453 OFFCURVE",
"263 453 CURVE SMOOTH",
"343 453 OFFCURVE",
"374 407 OFFCURVE",
"374 309 CURVE SMOOTH",
"374 0 LINE"
);
},
{
closed = 1;
nodes = (
"139 0 LINE",
"139 397 LINE",
"136 412 LINE",
"136 510 LINE",
"49 510 LINE",
"49 0 LINE"
);
}
);
width = 513;
},
{
anchors = (
{
name = bottom;
position = "{229, 0}";
},
{
name = top;
position = "{229, 510}";
}
);
layerId = m002;
paths = (
{
closed = 1;
nodes = (
"420 0 LINE",
"420 319 LINE SMOOTH",
"420 454 OFFCURVE",
"359 525 OFFCURVE",
"257 525 CURVE SMOOTH",
"134 525 OFFCURVE",
"59 430 OFFCURVE",
"59 268 CURVE",
"91 265 LINE",
"91 403 OFFCURVE",
"154 485 OFFCURVE",
"252 485 CURVE SMOOTH",
"330 485 OFFCURVE",
"373 430 OFFCURVE",
"373 309 CURVE SMOOTH",
"373 0 LINE"
);
},
{
closed = 1;
nodes = (
"91 0 LINE",
"91 387 LINE",
"88 402 LINE",
"88 510 LINE",
"45 510 LINE",
"45 0 LINE"
);
}
);
width = 463;
},
{
anchors = (
{
name = bottom;
position = "{263, 0}";
},
{
name = top;
position = "{283, 510}";
}
);
layerId = "5BCD9238-7200-4447-A55E-E4A4B2A2A7AE";
paths = (
{
closed = 1;
nodes = (
"515 0 LINE",
"515 356 LINE SMOOTH",
"515 459 OFFCURVE",
"446 525 OFFCURVE",
"337 525 CURVE SMOOTH",
"234 525 OFFCURVE",
"158 442 OFFCURVE",
"158 328 CURVE",
"193 275 LINE",
"193 360 OFFCURVE",
"221 397 OFFCURVE",
"283 397 CURVE SMOOTH",
"335 397 OFFCURVE",
"366 360 OFFCURVE",
"366 296 CURVE SMOOTH",
"366 0 LINE"
);
},
{
closed = 1;
nodes = (
"193 0 LINE",
"193 410 LINE",
"190 425 LINE",
"190 510 LINE",
"45 510 LINE",
"45 0 LINE"
);
}
);
width = 558;
}
);
leftKerningGroup = n;
rightKerningGroup = n;
unicode = 006E;
},
{
glyphname = o;
lastChange = "2023-10-24 09:43:58 +0000";
layers = (
{
anchors = (
{
name = bottom;
position = "{275, 0}";
},
{
name = center;
position = "{275, 255}";
},
{
name = ogonek;
position = "{497, 10}";
},
{
name = top;
position = "{275, 510}";
},
{
name = topright;
position = "{532, 510}";
}
);
hints = (
{
horizontal = 1;
origin = "{0, 5}";
target = "{1, 5}";
type = TTStem;
stem = -1;
options = 4;
},
{
horizontal = 1;
origin = "{0, 11}";
target = "{1, 11}";
type = TTStem;
stem = -1;
options = 4;
}
);
layerId = "A40D6D23-B1DA-4472-8F2A-1C08CC11B4FE";
paths = (
{
closed = 1;
nodes = (
"429 -14 OFFCURVE",
"520 86 OFFCURVE",
"520 256 CURVE SMOOTH",
"520 425 OFFCURVE",
"429 525 OFFCURVE",
"275 525 CURVE SMOOTH",
"120 525 OFFCURVE",
"29 425 OFFCURVE",
"29 256 CURVE SMOOTH",
"29 86 OFFCURVE",
"120 -14 OFFCURVE",
"275 -14 CURVE SMOOTH"
);
},
{
closed = 1;
nodes = (
"179 60 OFFCURVE",
"122 133 OFFCURVE",
"122 256 CURVE SMOOTH",
"122 380 OFFCURVE",
"179 453 OFFCURVE",
"275 453 CURVE SMOOTH",
"371 453 OFFCURVE",
"427 380 OFFCURVE",
"427 256 CURVE SMOOTH",
"427 133 OFFCURVE",
"371 60 OFFCURVE",
"275 60 CURVE SMOOTH"
);
}
);
width = 549;
},
{
anchors = (
{
name = bottom;
position = "{257, 0}";
},
{
name = center;
position = "{257, 255}";
},
{
name = ogonek;
position = "{479, 10}";
},
{
name = top;
position = "{257, 510}";
},
{
name = topright;
position = "{514, 510}";
}
);
layerId = m002;
paths = (
{
closed = 1;
nodes = (
"400 -14 OFFCURVE",
"484 86 OFFCURVE",
"484 256 CURVE SMOOTH",
"484 425 OFFCURVE",
"400 525 OFFCURVE",
"257 525 CURVE SMOOTH",
"114 525 OFFCURVE",
"29 425 OFFCURVE",
"29 256 CURVE SMOOTH",
"29 86 OFFCURVE",
"114 -14 OFFCURVE",
"257 -14 CURVE SMOOTH"
);
},
{
closed = 1;
nodes = (
"144 21 OFFCURVE",
"77 108 OFFCURVE",
"77 256 CURVE SMOOTH",
"77 403 OFFCURVE",
"144 490 OFFCURVE",
"257 490 CURVE SMOOTH",
"370 490 OFFCURVE",
"436 403 OFFCURVE",
"436 256 CURVE SMOOTH",
"436 108 OFFCURVE",
"370 21 OFFCURVE",
"257 21 CURVE SMOOTH"
);
}
);
width = 513;
},
{
anchors = (
{
name = bottom;
position = "{289, 0}";
},
{
name = center;
position = "{289, 255}";
},
{
name = ogonek;
position = "{511, 10}";
},
{
name = top;
position = "{289, 510}";
},
{
name = topright;
position = "{546, 510}";
}
);
layerId = "5BCD9238-7200-4447-A55E-E4A4B2A2A7AE";
paths = (
{
closed = 1;
nodes = (
"453 -14 OFFCURVE",
"550 86 OFFCURVE",
"550 256 CURVE SMOOTH",
"550 425 OFFCURVE",
"453 525 OFFCURVE",
"289 525 CURVE SMOOTH",
"124 525 OFFCURVE",
"27 425 OFFCURVE",
"27 256 CURVE SMOOTH",
"27 86 OFFCURVE",
"124 -14 OFFCURVE",
"289 -14 CURVE SMOOTH"
);
},
{
closed = 1;
nodes = (
"218 116 OFFCURVE",
"176 168 OFFCURVE",
"176 256 CURVE SMOOTH",
"176 347 OFFCURVE",
"218 400 OFFCURVE",
"289 400 CURVE SMOOTH",
"359 400 OFFCURVE",
"401 347 OFFCURVE",
"401 256 CURVE SMOOTH",
"401 168 OFFCURVE",
"359 116 OFFCURVE",
"289 116 CURVE SMOOTH"
);
}
);
width = 577;
}
);
leftKerningGroup = o;
rightKerningGroup = o;
unicode = 006F;
},
{
glyphname = oslash;
lastChange = "2023-10-24 10:26:15 +0000";
layers = (
{
anchors = (
{
name = top;
position = "{278, 510}";
}
);
components = (
{
name = o;
}
);
hints = (
{
horizontal = 1;
origin = "{0, 0}";
target = "{0, 1}";
type = TTStem;
stem = -1;
options = 4;
},
{
horizontal = 1;
origin = "{0, 2}";
target = "{0, 3}";
type = TTStem;
stem = -1;
options = 4;
}
);
layerId = "A40D6D23-B1DA-4472-8F2A-1C08CC11B4FE";
paths = (
{
closed = 1;
nodes = (
"480 510 LINE",
"429 543 LINE",
"74 0 LINE",
"127 -34 LINE"
);
}
);
width = 549;
},
{
anchors = (
{
name = top;
position = "{279, 510}";
}
);
components = (
{
name = o;
}
);
layerId = m002;
paths = (
{
closed = 1;
nodes = (
"452 516 LINE",
"422 535 LINE",
"65 -7 LINE",
"98 -28 LINE"
);
}
);
width = 513;
},
{
anchors = (
{
name = top;
position = "{279, 510}";
}
);
components = (
{
name = o;
}
);
layerId = "5BCD9238-7200-4447-A55E-E4A4B2A2A7AE";
paths = (
{
closed = 1;
nodes = (
"508 504 LINE",
"425 558 LINE",
"70 15 LINE",
"155 -40 LINE"
);
}
);
width = 577;
}
);
leftKerningGroup = o;
leftMetricsKey = o;
rightKerningGroup = o;
rightMetricsKey = o;
unicode = 00F8;
},
{
glyphname = oe;
lastChange = "2023-10-24 09:46:53 +0000";
layers = (
{
anchors = (
{
name = bottom;
position = "{464, 0}";
},
{
name = top;
position = "{464, 510}";
}
);
hints = (
{
horizontal = 1;
origin = "{0, 5}";
target = "{1, 5}";
type = TTStem;
stem = -1;
options = 4;
},
{
horizontal = 1;
origin = "{0, 11}";
target = "{1, 11}";
type = TTStem;
stem = -1;
options = 4;
},
{
horizontal = 1;
origin = "{2, 20}";
target = "{2, 6}";
type = TTStem;
stem = -1;
options = 4;
},
{
horizontal = 1;
origin = "{2, 14}";
target = "{3, 2}";
type = TTStem;
stem = -1;
options = 4;
},
{
horizontal = 1;
origin = "{2, 6}";
target = "{3, 2}";
other1 = "{2, 9}";
type = Interpolate;
options = 4;
},
{
horizontal = 1;
origin = "{2, 9}";
target = "{3, 6}";
type = TTStem;
stem = -1;
options = 4;
},
{
horizontal = 1;
origin = "{2, 6}";
target = "{3, 2}";
other1 = "{2, 10}";
type = Interpolate;
options = 4;
},
{
horizontal = 1;
origin = "{2, 6}";
target = "{2, 10}";
other1 = "{2, 3}";
type = Interpolate;
options = 4;
}
);
layerId = "A40D6D23-B1DA-4472-8F2A-1C08CC11B4FE";
paths = (
{
closed = 1;
nodes = (
"429 -14 OFFCURVE",
"505 86 OFFCURVE",
"505 256 CURVE SMOOTH",
"505 425 OFFCURVE",
"429 525 OFFCURVE",
"275 525 CURVE SMOOTH",
"120 525 OFFCURVE",
"29 425 OFFCURVE",
"29 256 CURVE SMOOTH",
"29 86 OFFCURVE",
"120 -14 OFFCURVE",
"275 -14 CURVE SMOOTH"
);
},
{
closed = 1;
nodes = (
"179 60 OFFCURVE",
"122 133 OFFCURVE",
"122 256 CURVE SMOOTH",
"122 380 OFFCURVE",
"179 453 OFFCURVE",
"275 453 CURVE SMOOTH",
"371 453 OFFCURVE",
"427 380 OFFCURVE",
"427 256 CURVE SMOOTH",
"427 133 OFFCURVE",
"371 60 OFFCURVE",
"275 60 CURVE SMOOTH"
);
},
{
closed = 1;
nodes = (
"754 -14 OFFCURVE",
"864 24 OFFCURVE",
"893 156 CURVE",
"803 156 LINE",
"775 83 OFFCURVE",
"723 64 OFFCURVE",
"661 64 CURVE SMOOTH",
"563 64 OFFCURVE",
"522 126 OFFCURVE",
"517 229 CURVE",
"899 229 LINE",
"899 246 LINE SMOOTH",
"899 455 OFFCURVE",
"797 525 OFFCURVE",
"664 525 CURVE SMOOTH",
"510 525 OFFCURVE",
"437 425 OFFCURVE",
"437 256 CURVE SMOOTH",
"437 86 OFFCURVE",
"507 -14 OFFCURVE",
"660 -14 CURVE SMOOTH"
);
},
{
closed = 1;
nodes = (
"529 395 OFFCURVE",
"573 453 OFFCURVE",
"664 453 CURVE SMOOTH",
"747 453 OFFCURVE",
"805 395 OFFCURVE",
"808 305 CURVE",
"519 305 LINE"
);
}
);
width = 928;
},
{
anchors = (
{
name = bottom;
position = "{464, 0}";
},
{
name = top;
position = "{464, 510}";
}
);
layerId = m002;
paths = (
{
closed = 1;
nodes = (
"390 -14 OFFCURVE",
"477 86 OFFCURVE",
"477 256 CURVE SMOOTH",
"477 425 OFFCURVE",
"400 525 OFFCURVE",
"257 525 CURVE SMOOTH",
"114 525 OFFCURVE",
"29 425 OFFCURVE",
"29 256 CURVE SMOOTH",
"29 86 OFFCURVE",
"104 -14 OFFCURVE",
"247 -14 CURVE SMOOTH"
);
},
{
closed = 1;
nodes = (
"144 21 OFFCURVE",
"77 109 OFFCURVE",
"77 256 CURVE SMOOTH",
"77 404 OFFCURVE",
"144 492 OFFCURVE",
"257 492 CURVE SMOOTH",
"369 492 OFFCURVE",
"436 404 OFFCURVE",
"436 256 CURVE SMOOTH",
"436 109 OFFCURVE",
"369 21 OFFCURVE",
"257 21 CURVE SMOOTH"
);
},
{
closed = 1;
nodes = (
"783 -14 OFFCURVE",
"865 54 OFFCURVE",
"882 170 CURVE",
"835 170 LINE",
"820 78 OFFCURVE",
"756 23 OFFCURVE",
"662 23 CURVE SMOOTH",
"555 23 OFFCURVE",
"489 104 OFFCURVE",
"484 241 CURVE",
"887 241 LINE",
"887 279 LINE SMOOTH",
"887 434 OFFCURVE",
"803 525 OFFCURVE",
"662 525 CURVE SMOOTH",
"520 525 OFFCURVE",
"443 425 OFFCURVE",
"443 256 CURVE SMOOTH",
"443 86 OFFCURVE",
"520 -14 OFFCURVE",
"662 -14 CURVE SMOOTH"
);
},
{
closed = 1;
nodes = (
"491 412 OFFCURVE",
"557 490 OFFCURVE",
"662 490 CURVE SMOOTH",
"756 490 OFFCURVE",
"838 427 OFFCURVE",
"841 279 CURVE",
"485 279 LINE"
);
}
);
width = 916;
},
{
anchors = (
{
name = bottom;
position = "{462, 0}";
},
{
name = top;
position = "{462, 510}";
}
);
layerId = "5BCD9238-7200-4447-A55E-E4A4B2A2A7AE";
paths = (
{
closed = 1;
nodes = (
"453 -14 OFFCURVE",
"530 96 OFFCURVE",
"530 256 CURVE SMOOTH",
"530 415 OFFCURVE",
"453 525 OFFCURVE",
"289 525 CURVE SMOOTH",
"124 525 OFFCURVE",
"27 425 OFFCURVE",
"27 256 CURVE SMOOTH",
"27 86 OFFCURVE",
"124 -14 OFFCURVE",
"289 -14 CURVE SMOOTH"
);
},
{
closed = 1;
nodes = (
"218 116 OFFCURVE",
"176 168 OFFCURVE",
"176 256 CURVE SMOOTH",
"176 347 OFFCURVE",
"218 400 OFFCURVE",
"289 400 CURVE SMOOTH",
"359 400 OFFCURVE",
"401 347 OFFCURVE",
"401 256 CURVE SMOOTH",
"401 168 OFFCURVE",
"359 116 OFFCURVE",
"289 116 CURVE SMOOTH"
);
},
{
closed = 1;
nodes = (
"781 -14 OFFCURVE",
"874 56 OFFCURVE",
"900 179 CURVE",
"744 179 LINE",
"726 139 OFFCURVE",
"694 116 OFFCURVE",
"648 116 CURVE SMOOTH",
"586 116 OFFCURVE",
"548 156 OFFCURVE",
"539 225 CURVE",
"907 225 LINE",
"907 257 LINE SMOOTH",
"907 425 OFFCURVE",
"808 525 OFFCURVE",
"648 525 CURVE SMOOTH",
"483 525 OFFCURVE",
"408 415 OFFCURVE",
"408 256 CURVE SMOOTH",
"408 96 OFFCURVE",
"483 -14 OFFCURVE",
"648 -14 CURVE SMOOTH"
);
},
{
closed = 1;
nodes = (
"567 376 OFFCURVE",
"611 403 OFFCURVE",
"662 403 CURVE SMOOTH",
"712 403 OFFCURVE",
"756 376 OFFCURVE",
"762 327 CURVE",
"561 327 LINE"
);
}
);
width = 934;
}
);
leftKerningGroup = o;
leftMetricsKey = o;
rightKerningGroup = e;
rightMetricsKey = o;
unicode = 0153;
},
{
glyphname = p;
lastChange = "2023-10-24 09:51:40 +0000";
layers = (
{
anchors = (
{
name = bottom;
position = "{277, 0}";
},
{
name = top;
position = "{277, 510}";
}
);
hints = (
{
horizontal = 1;
origin = "{0, 11}";
target = "{2, 11}";
type = TTStem;
stem = -1;
options = 4;
},
{
horizontal = 1;
origin = "{0, 5}";
target = "{2, 5}";
type = TTStem;
stem = -1;
options = 4;
},
{
horizontal = 1;
origin = "{1, 7}";
type = Anchor;
},
{
horizontal = 1;
origin = "{1, 6}";
type = Anchor;
},
{
horizontal = 1;
origin = "{2, 11}";
target = "{2, 5}";
other1 = "{2, 2}";
type = Interpolate;
options = 4;
}
);
layerId = "A40D6D23-B1DA-4472-8F2A-1C08CC11B4FE";
paths = (
{
closed = 1;
nodes = (
"440 -15 OFFCURVE",
"524 90 OFFCURVE",
"524 254 CURVE SMOOTH",
"524 429 OFFCURVE",
"434 524 OFFCURVE",
"289 524 CURVE SMOOTH",
"121 524 OFFCURVE",
"79 341 OFFCURVE",
"79 254 CURVE SMOOTH",
"79 137 OFFCURVE",
"134 -15 OFFCURVE",
"291 -15 CURVE SMOOTH"
);
},
{
closed = 1;
nodes = (
"140 -200 LINE",
"140 96 LINE",
"131 107 LINE",
"131 381 LINE",
"137 396 LINE",
"137 510 LINE",
"50 510 LINE",
"50 -200 LINE"
);
},
{
closed = 1;
nodes = (
"180 62 OFFCURVE",
"136 146 OFFCURVE",
"136 254 CURVE SMOOTH",
"136 363 OFFCURVE",
"178 447 OFFCURVE",
"289 447 CURVE SMOOTH",
"393 447 OFFCURVE",
"432 370 OFFCURVE",
"432 254 CURVE SMOOTH",
"432 140 OFFCURVE",
"395 62 OFFCURVE",
"291 62 CURVE SMOOTH"
);
}
);
width = 553;
},
{
anchors = (
{
name = bottom;
position = "{273, 0}";
},
{
name = top;
position = "{273, 510}";
}
);
layerId = m002;
paths = (
{
closed = 1;
nodes = (
"392 -14 OFFCURVE",
"472 86 OFFCURVE",
"472 256 CURVE SMOOTH",
"472 425 OFFCURVE",
"392 525 OFFCURVE",
"257 525 CURVE SMOOTH",
"128 525 OFFCURVE",
"51 419 OFFCURVE",
"51 256 CURVE SMOOTH",
"51 92 OFFCURVE",
"128 -14 OFFCURVE",
"257 -14 CURVE SMOOTH"
);
},
{
closed = 1;
nodes = (
"92 -200 LINE",
"92 136 LINE",
"87 156 LINE",
"87 402 LINE",
"91 419 LINE",
"91 510 LINE",
"46 510 LINE",
"46 -200 LINE"
);
},
{
closed = 1;
nodes = (
"151 21 OFFCURVE",
"89 108 OFFCURVE",
"89 256 CURVE SMOOTH",
"89 404 OFFCURVE",
"151 491 OFFCURVE",
"257 491 CURVE SMOOTH",
"362 491 OFFCURVE",
"424 404 OFFCURVE",
"424 256 CURVE SMOOTH",
"424 108 OFFCURVE",
"362 21 OFFCURVE",
"257 21 CURVE SMOOTH"
);
}
);
width = 501;
},
{
anchors = (
{
name = bottom;
position = "{267, 0}";
},
{
name = top;
position = "{267, 510}";
}
);
layerId = "5BCD9238-7200-4447-A55E-E4A4B2A2A7AE";
paths = (
{
closed = 1;
nodes = (
"478 -15 OFFCURVE",
"565 85 OFFCURVE",
"565 254 CURVE SMOOTH",
"565 424 OFFCURVE",
"478 524 OFFCURVE",
"332 524 CURVE SMOOTH",
"209 524 OFFCURVE",
"137 424 OFFCURVE",
"137 254 CURVE SMOOTH",
"137 85 OFFCURVE",
"209 -15 OFFCURVE",
"332 -15 CURVE SMOOTH"
);
},
{
closed = 1;
nodes = (
"195 -197 LINE",
"195 103 LINE",
"181 106 LINE",
"181 417 LINE",
"192 425 LINE",
"192 510 LINE",
"45 510 LINE",
"45 -197 LINE"
);
},
{
closed = 1;
nodes = (
"233 110 OFFCURVE",
"191 163 OFFCURVE",
"191 254 CURVE SMOOTH",
"191 342 OFFCURVE",
"233 394 OFFCURVE",
"304 394 CURVE SMOOTH",
"374 394 OFFCURVE",
"416 342 OFFCURVE",
"416 254 CURVE SMOOTH",
"416 163 OFFCURVE",
"374 110 OFFCURVE",
"304 110 CURVE SMOOTH"
);
}
);
width = 592;
}
);
leftKerningGroup = n;
leftMetricsKey = l;
rightKerningGroup = o;
rightMetricsKey = o;
unicode = 0070;
},
{
glyphname = thorn;
lastChange = "2023-10-24 09:52:03 +0000";
layers = (
{
anchors = (
{
name = bottom;
position = "{277, 0}";
},
{
name = top;
position = "{277, 510}";
}
);
hints = (
{
horizontal = 1;
origin = "{1, 6}";
type = Anchor;
},
{
horizontal = 1;
origin = "{1, 7}";
type = Anchor;
},
{
horizontal = 1;
origin = "{0, 11}";
target = "{2, 11}";
type = TTStem;
stem = -1;
options = 4;
},
{
horizontal = 1;
origin = "{0, 5}";
target = "{2, 5}";
type = TTStem;
stem = -1;
options = 4;
},
{
horizontal = 1;
origin = "{2, 11}";
target = "{2, 5}";
other1 = "{2, 2}";
type = Interpolate;
options = 4;
}
);
layerId = "A40D6D23-B1DA-4472-8F2A-1C08CC11B4FE";
paths = (
{
closed = 1;
nodes = (
"440 -15 OFFCURVE",
"524 90 OFFCURVE",
"524 254 CURVE SMOOTH",
"524 429 OFFCURVE",
"434 524 OFFCURVE",
"289 524 CURVE SMOOTH",
"121 524 OFFCURVE",
"79 341 OFFCURVE",
"79 254 CURVE SMOOTH",
"79 137 OFFCURVE",
"134 -15 OFFCURVE",
"291 -15 CURVE SMOOTH"
);
},
{
closed = 1;
nodes = (
"140 -200 LINE",
"140 96 LINE",
"131 107 LINE",
"131 381 LINE",
"140 396 LINE",
"140 710 LINE",
"50 710 LINE",
"50 -200 LINE"
);
},
{
closed = 1;
nodes = (
"180 62 OFFCURVE",
"136 146 OFFCURVE",
"136 254 CURVE SMOOTH",
"136 363 OFFCURVE",
"178 447 OFFCURVE",
"289 447 CURVE SMOOTH",
"393 447 OFFCURVE",
"432 370 OFFCURVE",
"432 254 CURVE SMOOTH",
"432 140 OFFCURVE",
"395 62 OFFCURVE",
"291 62 CURVE SMOOTH"
);
}
);
width = 553;
},
{
anchors = (
{
name = bottom;
position = "{273, 0}";
},
{
name = top;
position = "{273, 510}";
}
);
layerId = m002;
paths = (
{
closed = 1;
nodes = (
"392 -14 OFFCURVE",
"472 86 OFFCURVE",
"472 256 CURVE SMOOTH",
"472 425 OFFCURVE",
"392 525 OFFCURVE",
"257 525 CURVE SMOOTH",
"128 525 OFFCURVE",
"51 419 OFFCURVE",
"51 256 CURVE SMOOTH",
"51 92 OFFCURVE",
"128 -14 OFFCURVE",
"257 -14 CURVE SMOOTH"
);
},
{
closed = 1;
nodes = (
"91 -200 LINE",
"91 136 LINE",
"87 156 LINE",
"87 402 LINE",
"92 419 LINE",
"92 710 LINE",
"46 710 LINE",
"46 -200 LINE"
);
},
{
closed = 1;
nodes = (
"151 21 OFFCURVE",
"89 108 OFFCURVE",
"89 256 CURVE SMOOTH",
"89 404 OFFCURVE",
"151 491 OFFCURVE",
"257 491 CURVE SMOOTH",
"362 491 OFFCURVE",
"424 404 OFFCURVE",
"424 256 CURVE SMOOTH",
"424 108 OFFCURVE",
"362 21 OFFCURVE",
"257 21 CURVE SMOOTH"
);
}
);
width = 501;
},
{
anchors = (
{
name = bottom;
position = "{272, 0}";
},
{
name = top;
position = "{272, 510}";
}
);
layerId = "5BCD9238-7200-4447-A55E-E4A4B2A2A7AE";
paths = (
{
closed = 1;
nodes = (
"478 -15 OFFCURVE",
"565 85 OFFCURVE",
"565 254 CURVE SMOOTH",
"565 424 OFFCURVE",
"478 524 OFFCURVE",
"332 524 CURVE SMOOTH",
"209 524 OFFCURVE",
"137 424 OFFCURVE",
"137 254 CURVE SMOOTH",
"137 85 OFFCURVE",
"209 -15 OFFCURVE",
"332 -15 CURVE SMOOTH"
);
},
{
closed = 1;
nodes = (
"195 -197 LINE",
"195 103 LINE",
"181 106 LINE",
"181 417 LINE",
"192 425 LINE",
"192 710 LINE",
"45 710 LINE",
"45 -197 LINE"
);
},
{
closed = 1;
nodes = (
"233 110 OFFCURVE",
"191 163 OFFCURVE",
"191 254 CURVE SMOOTH",
"191 342 OFFCURVE",
"233 394 OFFCURVE",
"304 394 CURVE SMOOTH",
"374 394 OFFCURVE",
"416 342 OFFCURVE",
"416 254 CURVE SMOOTH",
"416 163 OFFCURVE",
"374 110 OFFCURVE",
"304 110 CURVE SMOOTH"
);
}
);
width = 592;
}
);
leftKerningGroup = l;
leftMetricsKey = l;
rightKerningGroup = o;
rightMetricsKey = o;
unicode = 00FE;
},
{
glyphname = q;
lastChange = "2023-10-24 09:52:33 +0000";
layers = (
{
anchors = (
{
name = bottom;
position = "{276, 0}";
},
{
name = top;
position = "{276, 510}";
}
);
hints = (
{
horizontal = 1;
origin = "{0, 5}";
target = "{1, 5}";
type = TTStem;
stem = -1;
options = 4;
},
{
horizontal = 1;
origin = "{0, 11}";
target = "{1, 11}";
type = TTStem;
stem = -1;
options = 4;
},
{
horizontal = 1;
origin = "{2, 2}";
type = Anchor;
},
{
horizontal = 1;
origin = "{2, 7}";
type = Anchor;
}
);
layerId = "A40D6D23-B1DA-4472-8F2A-1C08CC11B4FE";
paths = (
{
closed = 1;
nodes = (
"419 -15 OFFCURVE",
"474 137 OFFCURVE",
"474 254 CURVE SMOOTH",
"474 341 OFFCURVE",
"432 524 OFFCURVE",
"264 524 CURVE SMOOTH",
"122 524 OFFCURVE",
"29 426 OFFCURVE",
"29 254 CURVE SMOOTH",
"29 85 OFFCURVE",
"108 -15 OFFCURVE",
"262 -15 CURVE SMOOTH"
);
},
{
closed = 1;
nodes = (
"159 62 OFFCURVE",
"121 139 OFFCURVE",
"121 254 CURVE SMOOTH",
"121 369 OFFCURVE",
"160 447 OFFCURVE",
"264 447 CURVE SMOOTH",
"375 447 OFFCURVE",
"418 363 OFFCURVE",
"418 254 CURVE SMOOTH",
"418 146 OFFCURVE",
"373 62 OFFCURVE",
"262 62 CURVE SMOOTH"
);
},
{
closed = 1;
nodes = (
"503 -195 LINE",
"503 510 LINE",
"415 510 LINE",
"415 396 LINE",
"422 381 LINE",
"422 107 LINE",
"413 96 LINE",
"413 -195 LINE"
);
}
);
width = 553;
},
{
anchors = (
{
name = bottom;
position = "{276, 0}";
},
{
name = top;
position = "{276, 510}";
}
);
layerId = m002;
paths = (
{
closed = 1;
nodes = (
"373 -14 OFFCURVE",
"450 92 OFFCURVE",
"450 256 CURVE SMOOTH",
"450 419 OFFCURVE",
"373 525 OFFCURVE",
"244 525 CURVE SMOOTH",
"109 525 OFFCURVE",
"29 425 OFFCURVE",
"29 256 CURVE SMOOTH",
"29 86 OFFCURVE",
"109 -14 OFFCURVE",
"244 -14 CURVE SMOOTH"
);
},
{
closed = 1;
nodes = (
"139 21 OFFCURVE",
"77 108 OFFCURVE",
"77 256 CURVE SMOOTH",
"77 404 OFFCURVE",
"139 491 OFFCURVE",
"244 491 CURVE SMOOTH",
"350 491 OFFCURVE",
"412 404 OFFCURVE",
"412 256 CURVE SMOOTH",
"412 108 OFFCURVE",
"350 21 OFFCURVE",
"244 21 CURVE SMOOTH"
);
},
{
closed = 1;
nodes = (
"455 -200 LINE",
"455 510 LINE",
"410 510 LINE",
"410 419 LINE",
"414 402 LINE",
"414 156 LINE",
"409 136 LINE",
"409 -200 LINE"
);
}
);
width = 501;
},
{
anchors = (
{
name = bottom;
position = "{246, 0}";
},
{
name = top;
position = "{246, 510}";
}
);
layerId = "5BCD9238-7200-4447-A55E-E4A4B2A2A7AE";
paths = (
{
closed = 1;
nodes = (
"383 -15 OFFCURVE",
"455 85 OFFCURVE",
"455 254 CURVE SMOOTH",
"455 424 OFFCURVE",
"383 524 OFFCURVE",
"260 524 CURVE SMOOTH",
"114 524 OFFCURVE",
"27 424 OFFCURVE",
"27 254 CURVE SMOOTH",
"27 85 OFFCURVE",
"114 -15 OFFCURVE",
"260 -15 CURVE SMOOTH"
);
},
{
closed = 1;
nodes = (
"218 110 OFFCURVE",
"176 163 OFFCURVE",
"176 254 CURVE SMOOTH",
"176 342 OFFCURVE",
"218 394 OFFCURVE",
"288 394 CURVE SMOOTH",
"359 394 OFFCURVE",
"401 342 OFFCURVE",
"401 254 CURVE SMOOTH",
"401 163 OFFCURVE",
"359 110 OFFCURVE",
"288 110 CURVE SMOOTH"
);
},
{
closed = 1;
nodes = (
"547 -197 LINE",
"547 510 LINE",
"400 510 LINE",
"400 425 LINE",
"411 417 LINE",
"411 106 LINE",
"397 103 LINE",
"397 -197 LINE"
);
}
);
width = 592;
}
);
leftKerningGroup = o;
leftMetricsKey = o;
rightKerningGroup = n;
rightMetricsKey = l;
unicode = 0071;
},
{
glyphname = r;
lastChange = "2023-10-24 09:53:56 +0000";
layers = (
{
anchors = (
{
name = bottom;
position = "{84, 0}";
},
{
name = top;
position = "{164, 510}";
}
);
guideLines = (
{
position = "{147, 412}";
}
);
hints = (
{
horizontal = 1;
origin = "{0, 3}";
target = "{0, 2}";
type = TTStem;
stem = -1;
options = 4;
},
{
horizontal = 1;
origin = "{1, 4}";
type = Anchor;
},
{
horizontal = 1;
origin = "{1, 5}";
type = Anchor;
}
);
layerId = "A40D6D23-B1DA-4472-8F2A-1C08CC11B4FE";
paths = (
{
closed = 1;
nodes = (
"139 374 OFFCURVE",
"226 423 OFFCURVE",
"320 423 CURVE",
"320 520 LINE",
"216 520 OFFCURVE",
"109 447 OFFCURVE",
"109 280 CURVE",
"139 263 LINE"
);
},
{
closed = 1;
nodes = (
"139 0 LINE",
"139 349 LINE",
"136 388 LINE",
"136 510 LINE",
"49 510 LINE",
"49 0 LINE"
);
}
);
width = 336;
},
{
anchors = (
{
name = bottom;
position = "{63, 0}";
},
{
name = top;
position = "{143, 510}";
}
);
layerId = m002;
paths = (
{
closed = 1;
nodes = (
"91 392 OFFCURVE",
"158 473 OFFCURVE",
"267 473 CURVE",
"267 519 LINE",
"137 519 OFFCURVE",
"62 422 OFFCURVE",
"62 244 CURVE",
"91 245 LINE"
);
},
{
closed = 1;
nodes = (
"91 0 LINE",
"91 367 LINE",
"88 382 LINE",
"88 510 LINE",
"45 510 LINE",
"45 0 LINE"
);
}
);
width = 282;
},
{
anchors = (
{
name = bottom;
position = "{102, 0}";
},
{
name = top;
position = "{182, 510}";
}
);
guideLines = (
{
position = "{113, 412}";
}
);
layerId = "5BCD9238-7200-4447-A55E-E4A4B2A2A7AE";
paths = (
{
closed = 1;
nodes = (
"193 363 OFFCURVE",
"285 380 OFFCURVE",
"376 380 CURVE",
"376 521 LINE",
"248 521 OFFCURVE",
"162 456 OFFCURVE",
"162 328 CURVE",
"193 250 LINE"
);
},
{
closed = 1;
nodes = (
"193 0 LINE",
"193 397 LINE",
"190 412 LINE",
"190 510 LINE",
"45 510 LINE",
"45 0 LINE"
);
}
);
width = 391;
}
);
leftKerningGroup = n;
leftMetricsKey = n;
rightKerningGroup = r;
unicode = 0072;
},
{
glyphname = s;
lastChange = "2023-12-04 09:43:45 +0000";
layers = (
{
anchors = (
{
name = bottom;
position = "{254, 0}";
},
{
name = top;
position = "{254, 510}";
}
);
hints = (
{
horizontal = 1;
origin = "{0, 37}";
target = "{0, 30}";
type = TTStem;
stem = -1;
options = 4;
},
{
horizontal = 1;
origin = "{0, 18}";
target = "{0, 11}";
type = TTStem;
stem = -1;
options = 4;
},
{
horizontal = 1;
origin = "{0, 30}";
target = "{0, 11}";
other1 = "{0, 5}";
type = Interpolate;
options = 4;
},
{
horizontal = 1;
origin = "{0, 11}";
target = "{0, 5}";
other1 = "{0, 14}";
type = Interpolate;
options = 4;
}
);
layerId = "A40D6D23-B1DA-4472-8F2A-1C08CC11B4FE";
paths = (
{
closed = 1;
nodes = (
"385 -14 OFFCURVE",
"476 41 OFFCURVE",
"476 154 CURVE SMOOTH",
"476 268 OFFCURVE",
"361 287 OFFCURVE",
"263 303 CURVE SMOOTH",
"190 315 OFFCURVE",
"127 326 OFFCURVE",
"127 372 CURVE SMOOTH",
"127 420 OFFCURVE",
"176 448 OFFCURVE",
"258 448 CURVE SMOOTH",
"326 448 OFFCURVE",
"367 415 OFFCURVE",
"370 359 CURVE",
"457 359 LINE",
"454 463 OFFCURVE",
"380 525 OFFCURVE",
"258 525 CURVE SMOOTH",
"122 525 OFFCURVE",
"41 463 OFFCURVE",
"41 359 CURVE SMOOTH",
"41 251 OFFCURVE",
"152 232 OFFCURVE",
"249 216 CURVE SMOOTH",
"324 204 OFFCURVE",
"390 193 OFFCURVE",
"390 143 CURVE",
"390 95 OFFCURVE",
"339 67 OFFCURVE",
"254 67 CURVE SMOOTH",
"172 67 OFFCURVE",
"123 100 OFFCURVE",
"120 157 CURVE",
"32 157 LINE",
"35 50 OFFCURVE",
"116 -14 OFFCURVE",
"254 -14 CURVE SMOOTH"
);
}
);
width = 508;
},
{
anchors = (
{
name = bottom;
position = "{229, 0}";
},
{
name = top;
position = "{224, 510}";
}
);
layerId = m002;
paths = (
{
closed = 1;
nodes = (
"347 -14 OFFCURVE",
"426 49 OFFCURVE",
"426 143 CURVE SMOOTH",
"426 230 OFFCURVE",
"373 267 OFFCURVE",
"226 283 CURVE SMOOTH",
"119 295 OFFCURVE",
"86 324 OFFCURVE",
"86 380 CURVE SMOOTH",
"86 445 OFFCURVE",
"140 486 OFFCURVE",
"224 486 CURVE SMOOTH",
"303 486 OFFCURVE",
"359 434 OFFCURVE",
"363 359 CURVE",
"407 359 LINE",
"404 457 OFFCURVE",
"329 525 OFFCURVE",
"224 525 CURVE SMOOTH",
"114 525 OFFCURVE",
"41 466 OFFCURVE",
"41 376 CURVE SMOOTH",
"41 293 OFFCURVE",
"96 250 OFFCURVE",
"219 238 CURVE SMOOTH",
"347 225 OFFCURVE",
"379 198 OFFCURVE",
"379 138 CURVE",
"379 69 OFFCURVE",
"320 25 OFFCURVE",
"229 25 CURVE SMOOTH",
"142 25 OFFCURVE",
"81 81 OFFCURVE",
"77 164 CURVE",
"32 164 LINE",
"35 57 OFFCURVE",
"114 -14 OFFCURVE",
"229 -14 CURVE SMOOTH"
);
}
);
width = 458;
},
{
anchors = (
{
name = bottom;
position = "{282, 0}";
},
{
name = top;
position = "{288, 510}";
}
);
layerId = "5BCD9238-7200-4447-A55E-E4A4B2A2A7AE";
paths = (
{
closed = 1;
nodes = (
"451 -14 OFFCURVE",
"542 49 OFFCURVE",
"542 159 CURVE SMOOTH",
"542 259 OFFCURVE",
"475 303 OFFCURVE",
"294 325 CURVE SMOOTH",
"216 334 OFFCURVE",
"190 344 OFFCURVE",
"190 361 CURVE SMOOTH",
"190 390 OFFCURVE",
"222 406 OFFCURVE",
"279 406 CURVE SMOOTH",
"334 406 OFFCURVE",
"370 380 OFFCURVE",
"370 342 CURVE",
"526 342 LINE",
"523 456 OFFCURVE",
"430 525 OFFCURVE",
"279 525 CURVE SMOOTH",
"120 525 OFFCURVE",
"30 460 OFFCURVE",
"30 346 CURVE SMOOTH",
"30 254 OFFCURVE",
"89 217 OFFCURVE",
"269 193 CURVE SMOOTH",
"356 181 OFFCURVE",
"385 171 OFFCURVE",
"385 150 CURVE",
"385 121 OFFCURVE",
"352 105 OFFCURVE",
"289 105 CURVE SMOOTH",
"229 105 OFFCURVE",
"187 134 OFFCURVE",
"184 178 CURVE",
"28 178 LINE",
"31 59 OFFCURVE",
"132 -14 OFFCURVE",
"289 -14 CURVE SMOOTH"
);
}
);
width = 570;
}
);
leftKerningGroup = s;
rightKerningGroup = s;
unicode = 0073;
},
{
glyphname = saltillo;
lastChange = "2023-10-24 10:26:15 +0000";
layers = (
{
guideLines = (
{
position = "{468, 462}";
}
);
hints = (
{
horizontal = 1;
origin = "{0, 3}";
target = "{0, 2}";
type = TTStem;
stem = -1;
options = 4;
}
);
layerId = "A40D6D23-B1DA-4472-8F2A-1C08CC11B4FE";
paths = (
{
closed = 1;
nodes = (
"245 462 LINE",
"245 730 LINE",
"150 730 LINE",
"150 462 LINE"
);
}
);
width = 395;
},
{
guideLines = (
{
position = "{445, 462}";
}
);
layerId = m002;
paths = (
{
closed = 1;
nodes = (
"200 462 LINE",
"200 730 LINE",
"152 730 LINE",
"152 462 LINE"
);
}
);
width = 352;
},
{
guideLines = (
{
position = "{497, 462}";
}
);
layerId = "5BCD9238-7200-4447-A55E-E4A4B2A2A7AE";
paths = (
{
closed = 1;
nodes = (
"305 462 LINE",
"305 730 LINE",
"150 730 LINE",
"150 462 LINE"
);
}
);
width = 455;
}
);
leftKerningGroup = saltillo;
rightKerningGroup = saltillo;
unicode = A78C;
},
{
glyphname = scommaaccent;
lastChange = "2023-10-20 17:55:12 +0000";
layers = (
{
components = (
{
name = s;
}
);
layerId = "A40D6D23-B1DA-4472-8F2A-1C08CC11B4FE";
paths = (
{
closed = 1;
nodes = (
"244 -251 LINE",
"301 -78 LINE",
"214 -78 LINE",
"177 -251 LINE"
);
}
);
width = 508;
},
{
components = (
{
name = s;
}
);
layerId = m002;
paths = (
{
closed = 1;
nodes = (
"223 -251 LINE",
"280 -78 LINE",
"233 -78 LINE",
"196 -251 LINE"
);
}
);
width = 458;
},
{
components = (
{
name = s;
}
);
layerId = "5BCD9238-7200-4447-A55E-E4A4B2A2A7AE";
paths = (
{
closed = 1;
nodes = (
"304 -251 LINE",
"361 -78 LINE",
"216 -78 LINE",
"179 -251 LINE"
);
}
);
width = 570;
}
);
leftKerningGroup = s;
leftMetricsKey = s;
rightKerningGroup = s;
rightMetricsKey = s;
unicode = 0219;
},
{
glyphname = germandbls;
lastChange = "2023-10-24 10:03:56 +0000";
layers = (
{
anchors = (
{
name = bottom;
position = "{288, 0}";
},
{
name = top;
position = "{288, 800}";
}
);
hints = (
{
horizontal = 1;
origin = "{0, 12}";
target = "{0, 11}";
type = TTStem;
stem = -1;
options = 4;
},
{
horizontal = 1;
origin = "{0, 4}";
target = "{0, 34}";
type = TTStem;
stem = -1;
options = 4;
},
{
horizontal = 1;
origin = "{0, 38}";
type = Anchor;
},
{
horizontal = 1;
origin = "{0, 21}";
target = "{0, 20}";
type = TTStem;
stem = -1;
options = 4;
},
{
horizontal = 1;
origin = "{0, 20}";
target = "{0, 4}";
other1 = "{0, 12}";
type = Interpolate;
options = 4;
}
);
layerId = "A40D6D23-B1DA-4472-8F2A-1C08CC11B4FE";
paths = (
{
closed = 1;
nodes = (
"140 0 LINE",
"140 497 LINE SMOOTH",
"140 601 OFFCURVE",
"185 653 OFFCURVE",
"275 653 CURVE SMOOTH",
"365 653 OFFCURVE",
"410 615 OFFCURVE",
"410 537 CURVE SMOOTH",
"410 455 OFFCURVE",
"370 415 OFFCURVE",
"290 415 CURVE SMOOTH",
"237 415 LINE",
"237 337 LINE",
"288 337 LINE SMOOTH",
"397 337 OFFCURVE",
"450 295 OFFCURVE",
"450 209 CURVE SMOOTH",
"450 121 OFFCURVE",
"398 78 OFFCURVE",
"290 78 CURVE SMOOTH",
"237 78 LINE",
"237 0 LINE",
"290 0 LINE SMOOTH",
"460 0 OFFCURVE",
"545 69 OFFCURVE",
"545 209 CURVE SMOOTH",
"545 290 OFFCURVE",
"503 345 OFFCURVE",
"417 375 CURVE",
"473 398 OFFCURVE",
"501 452 OFFCURVE",
"501 537 CURVE SMOOTH",
"501 663 OFFCURVE",
"426 725 OFFCURVE",
"275 725 CURVE SMOOTH",
"125 725 OFFCURVE",
"50 649 OFFCURVE",
"50 497 CURVE SMOOTH",
"50 0 LINE"
);
}
);
width = 574;
},
{
anchors = (
{
name = bottom;
position = "{262, 0}";
},
{
name = top;
position = "{262, 800}";
}
);
layerId = m002;
paths = (
{
closed = 1;
nodes = (
"93 0 LINE",
"93 495 LINE SMOOTH",
"93 622 OFFCURVE",
"147 688 OFFCURVE",
"251 688 CURVE SMOOTH",
"354 688 OFFCURVE",
"407 636 OFFCURVE",
"407 537 CURVE SMOOTH",
"407 444 OFFCURVE",
"358 395 OFFCURVE",
"264 395 CURVE SMOOTH",
"211 395 LINE",
"211 357 LINE",
"262 357 LINE SMOOTH",
"386 357 OFFCURVE",
"451 306 OFFCURVE",
"451 209 CURVE SMOOTH",
"451 97 OFFCURVE",
"387 38 OFFCURVE",
"264 38 CURVE SMOOTH",
"211 38 LINE",
"211 0 LINE",
"264 0 LINE SMOOTH",
"418 0 OFFCURVE",
"499 72 OFFCURVE",
"499 209 CURVE SMOOTH",
"499 294 OFFCURVE",
"454 352 OFFCURVE",
"373 381 CURVE",
"425 402 OFFCURVE",
"455 456 OFFCURVE",
"455 537 CURVE SMOOTH",
"455 661 OFFCURVE",
"384 725 OFFCURVE",
"248 725 CURVE SMOOTH",
"115 725 OFFCURVE",
"46 648 OFFCURVE",
"46 499 CURVE SMOOTH",
"46 0 LINE"
);
}
);
width = 528;
},
{
anchors = (
{
name = bottom;
position = "{313, 0}";
},
{
name = top;
position = "{313, 800}";
}
);
layerId = "5BCD9238-7200-4447-A55E-E4A4B2A2A7AE";
paths = (
{
closed = 1;
nodes = (
"193 0 LINE",
"193 500 LINE SMOOTH",
"193 567 OFFCURVE",
"226 598 OFFCURVE",
"297 598 CURVE SMOOTH",
"370 598 OFFCURVE",
"404 574 OFFCURVE",
"404 521 CURVE SMOOTH",
"404 467 OFFCURVE",
"376 442 OFFCURVE",
"315 442 CURVE SMOOTH",
"262 442 LINE",
"262 310 LINE",
"313 310 LINE SMOOTH",
"401 310 OFFCURVE",
"441 281 OFFCURVE",
"441 219 CURVE SMOOTH",
"441 159 OFFCURVE",
"401 131 OFFCURVE",
"315 131 CURVE SMOOTH",
"262 131 LINE",
"262 0 LINE",
"315 0 LINE SMOOTH",
"504 0 OFFCURVE",
"591 69 OFFCURVE",
"591 219 CURVE SMOOTH",
"591 292 OFFCURVE",
"552 338 OFFCURVE",
"466 367 CURVE",
"525 392 OFFCURVE",
"552 440 OFFCURVE",
"552 521 CURVE SMOOTH",
"552 661 OFFCURVE",
"473 725 OFFCURVE",
"301 725 CURVE SMOOTH",
"125 725 OFFCURVE",
"45 652 OFFCURVE",
"45 494 CURVE SMOOTH",
"45 0 LINE"
);
}
);
width = 618;
}
);
leftKerningGroup = l;
leftMetricsKey = l;
rightKerningGroup = germandbls;
rightMetricsKey = p;
unicode = 00DF;
},
{
glyphname = t;
lastChange = "2023-10-24 10:05:12 +0000";
layers = (
{
anchors = (
{
name = bottom;
position = "{211, 0}";
},
{
name = center;
position = "{161, 255}";
},
{
name = top;
position = "{161, 510}";
},
{
name = topright;
position = "{221, 870}";
}
);
hints = (
{
horizontal = 1;
origin = "{0, 0}";
target = "{0, 1}";
type = TTStem;
stem = -1;
options = 4;
},
{
horizontal = 1;
origin = "{0, 7}";
type = Anchor;
},
{
horizontal = 1;
origin = "{1, 2}";
target = "{1, 3}";
type = TTStem;
stem = -1;
options = 4;
},
{
horizontal = 1;
origin = "{1, 2}";
target = "{1, 1}";
type = Align;
options = 4;
},
{
horizontal = 1;
origin = "{1, 3}";
target = "{1, 0}";
type = Align;
options = 4;
}
);
layerId = "A40D6D23-B1DA-4472-8F2A-1C08CC11B4FE";
paths = (
{
closed = 1;
nodes = (
"296 -2 LINE",
"296 80 LINE",
"253 80 LINE SMOOTH",
"199 80 OFFCURVE",
"180 97 OFFCURVE",
"180 146 CURVE SMOOTH",
"180 641 LINE",
"89 641 LINE",
"89 126 LINE SMOOTH",
"89 38 OFFCURVE",
"128 -2 OFFCURVE",
"214 -2 CURVE SMOOTH"
);
},
{
closed = 1;
nodes = (
"283 434 LINE",
"283 510 LINE",
"20 510 LINE",
"20 434 LINE"
);
}
);
width = 321;
},
{
anchors = (
{
name = bottom;
position = "{188, 0}";
},
{
name = center;
position = "{113, 255}";
},
{
name = top;
position = "{113, 510}";
},
{
name = topright;
position = "{173, 870}";
}
);
layerId = m002;
paths = (
{
closed = 1;
nodes = (
"242 0 LINE",
"242 42 LINE",
"207 42 LINE SMOOTH",
"146 42 OFFCURVE",
"131 60 OFFCURVE",
"131 134 CURVE SMOOTH",
"131 641 LINE",
"85 641 LINE",
"85 126 LINE SMOOTH",
"85 32 OFFCURVE",
"117 0 OFFCURVE",
"210 0 CURVE SMOOTH"
);
},
{
closed = 1;
nodes = (
"235 472 LINE",
"235 510 LINE",
"22 510 LINE",
"22 472 LINE"
);
}
);
width = 269;
},
{
anchors = (
{
name = bottom;
position = "{231, 0}";
},
{
name = center;
position = "{214, 255}";
},
{
name = top;
position = "{214, 510}";
},
{
name = topright;
position = "{274, 870}";
}
);
layerId = "5BCD9238-7200-4447-A55E-E4A4B2A2A7AE";
paths = (
{
closed = 1;
nodes = (
"330 0 LINE",
"330 134 LINE",
"300 134 LINE SMOOTH",
"237 134 OFFCURVE",
"231 140 OFFCURVE",
"231 206 CURVE SMOOTH",
"231 641 LINE",
"83 641 LINE",
"83 126 LINE SMOOTH",
"83 50 OFFCURVE",
"132 0 OFFCURVE",
"208 0 CURVE SMOOTH"
);
},
{
closed = 1;
nodes = (
"322 382 LINE",
"322 510 LINE",
"17 510 LINE",
"17 382 LINE"
);
}
);
width = 350;
}
);
leftKerningGroup = t;
rightKerningGroup = t;
unicode = 0074;
},
{
glyphname = tcommaaccent;
lastChange = "2023-10-20 17:55:12 +0000";
layers = (
{
components = (
{
name = t;
}
);
layerId = "A40D6D23-B1DA-4472-8F2A-1C08CC11B4FE";
paths = (
{
closed = 1;
nodes = (
"152 -251 LINE",
"209 -78 LINE",
"122 -78 LINE",
"85 -251 LINE"
);
}
);
width = 321;
},
{
components = (
{
name = t;
}
);
layerId = m002;
paths = (
{
closed = 1;
nodes = (
"133 -251 LINE",
"190 -78 LINE",
"143 -78 LINE",
"106 -251 LINE"
);
}
);
width = 269;
},
{
components = (
{
name = t;
}
);
layerId = "5BCD9238-7200-4447-A55E-E4A4B2A2A7AE";
paths = (
{
closed = 1;
nodes = (
"211 -251 LINE",
"268 -78 LINE",
"123 -78 LINE",
"86 -251 LINE"
);
}
);
width = 350;
}
);
leftKerningGroup = t;
leftMetricsKey = t;
rightKerningGroup = t;
rightMetricsKey = t;
unicode = 021B;
},
{
glyphname = u;
lastChange = "2023-10-24 10:06:21 +0000";
layers = (
{
anchors = (
{
name = bottom;
position = "{251, 0}";
},
{
name = ogonek;
position = "{633, 10}";
},
{
name = top;
position = "{251, 510}";
},
{
name = topright;
position = "{484, 510}";
}
);
hints = (
{
horizontal = 1;
origin = "{0, 11}";
type = Anchor;
},
{
horizontal = 1;
origin = "{0, 11}";
target = "{1, 2}";
type = Align;
options = 4;
},
{
horizontal = 1;
origin = "{0, 15}";
target = "{0, 6}";
type = TTStem;
stem = -1;
options = 4;
},
{
horizontal = 1;
origin = "{1, 0}";
type = Anchor;
}
);
layerId = "A40D6D23-B1DA-4472-8F2A-1C08CC11B4FE";
paths = (
{
closed = 1;
nodes = (
"321 -13 OFFCURVE",
"404 46 OFFCURVE",
"404 213 CURVE",
"362 236 LINE",
"362 125 OFFCURVE",
"333 58 OFFCURVE",
"241 58 CURVE SMOOTH",
"152 58 OFFCURVE",
"136 108 OFFCURVE",
"136 210 CURVE SMOOTH",
"136 511 LINE",
"45 511 LINE",
"45 179 LINE SMOOTH",
"45 53 OFFCURVE",
"99 -13 OFFCURVE",
"213 -13 CURVE SMOOTH"
);
},
{
closed = 1;
nodes = (
"452 0 LINE",
"452 511 LINE",
"362 511 LINE",
"362 114 LINE",
"366 99 LINE",
"366 0 LINE"
);
}
);
width = 502;
},
{
anchors = (
{
name = bottom;
position = "{227, 0}";
},
{
name = ogonek;
position = "{626, 10}";
},
{
name = top;
position = "{227, 510}";
},
{
name = topright;
position = "{475, 510}";
}
);
layerId = m002;
paths = (
{
closed = 1;
nodes = (
"327 -14 OFFCURVE",
"402 80 OFFCURVE",
"402 242 CURVE",
"370 245 LINE",
"370 107 OFFCURVE",
"307 26 OFFCURVE",
"209 26 CURVE SMOOTH",
"126 26 OFFCURVE",
"88 79 OFFCURVE",
"88 200 CURVE SMOOTH",
"88 510 LINE",
"41 510 LINE",
"41 191 LINE SMOOTH",
"41 50 OFFCURVE",
"92 -14 OFFCURVE",
"204 -14 CURVE SMOOTH"
);
},
{
closed = 1;
nodes = (
"416 0 LINE",
"416 510 LINE",
"370 510 LINE",
"370 123 LINE",
"373 108 LINE",
"373 0 LINE"
);
}
);
width = 462;
},
{
anchors = (
{
name = bottom;
position = "{278, 0}";
},
{
name = ogonek;
position = "{669, 25}";
},
{
name = top;
position = "{278, 510}";
},
{
name = topright;
position = "{511, 510}";
}
);
layerId = "5BCD9238-7200-4447-A55E-E4A4B2A2A7AE";
paths = (
{
closed = 1;
nodes = (
"321 0 OFFCURVE",
"397 83 OFFCURVE",
"397 197 CURVE",
"362 250 LINE",
"362 165 OFFCURVE",
"334 128 OFFCURVE",
"272 128 CURVE SMOOTH",
"220 128 OFFCURVE",
"189 165 OFFCURVE",
"189 229 CURVE SMOOTH",
"189 510 LINE",
"40 510 LINE",
"40 189 LINE SMOOTH",
"40 70 OFFCURVE",
"106 0 OFFCURVE",
"218 0 CURVE SMOOTH"
);
},
{
closed = 1;
nodes = (
"510 15 LINE",
"510 510 LINE",
"362 510 LINE",
"362 115 LINE",
"365 100 LINE",
"365 15 LINE"
);
}
);
width = 555;
}
);
leftKerningGroup = u;
leftMetricsKey = "=l-5";
rightKerningGroup = u;
rightMetricsKey = l;
unicode = 0075;
},
{
glyphname = v;
lastChange = "2023-11-20 17:29:40 +0000";
layers = (
{
anchors = (
{
name = bottom;
position = "{248, 0}";
},
{
name = top;
position = "{248, 510}";
}
);
hints = (
{
horizontal = 1;
origin = "{0, 2}";
type = Anchor;
},
{
horizontal = 1;
origin = "{0, 2}";
target = "{1, 2}";
type = Align;
options = 4;
},
{
horizontal = 1;
origin = "{0, 3}";
target = "{0, 1, 1, 3}";
type = TTStem;
stem = -1;
options = 4;
},
{
horizontal = 1;
origin = "{0, 2}";
target = "{0, 1}";
type = Align;
options = 4;
},
{
horizontal = 1;
origin = "{0, 3}";
type = Anchor;
},
{
horizontal = 1;
origin = "{0, 3}";
target = "{1, 0}";
type = Align;
options = 4;
}
);
layerId = "A40D6D23-B1DA-4472-8F2A-1C08CC11B4FE";
paths = (
{
closed = 1;
nodes = (
"285 0 LINE",
"104 510 LINE",
"7 510 LINE",
"194 0 LINE"
);
},
{
closed = 1;
nodes = (
"302 0 LINE",
"489 510 LINE",
"394 510 LINE",
"213 0 LINE"
);
}
);
width = 496;
},
{
anchors = (
{
name = bottom;
position = "{222, 0}";
},
{
name = top;
position = "{222, 510}";
}
);
layerId = m002;
paths = (
{
closed = 1;
nodes = (
"240 0 LINE",
"59 510 LINE",
"7 510 LINE",
"194 0 LINE"
);
},
{
closed = 1;
nodes = (
"251 0 LINE",
"438 510 LINE",
"387 510 LINE",
"206 0 LINE"
);
}
);
width = 445;
},
{
anchors = (
{
name = bottom;
position = "{285, 0}";
},
{
name = top;
position = "{285, 510}";
}
);
layerId = "5BCD9238-7200-4447-A55E-E4A4B2A2A7AE";
paths = (
{
closed = 1;
nodes = (
"348 0 LINE",
"167 510 LINE",
"7 510 LINE",
"194 0 LINE"
);
},
{
closed = 1;
nodes = (
"374 0 LINE",
"561 510 LINE",
"405 510 LINE",
"224 0 LINE"
);
}
);
width = 568;
}
);
leftKerningGroup = v;
rightKerningGroup = v;
unicode = 0076;
},
{
glyphname = w;
lastChange = "2023-11-20 17:32:07 +0000";
layers = (
{
anchors = (
{
name = bottom;
position = "{371, 0}";
},
{
name = top;
position = "{371, 510}";
}
);
hints = (
{
horizontal = 1;
origin = "{0, 2}";
type = Anchor;
},
{
horizontal = 1;
origin = "{0, 2}";
target = "{1, 2}";
type = Align;
options = 4;
},
{
horizontal = 1;
origin = "{0, 2}";
target = "{3, 2}";
type = Align;
options = 4;
},
{
horizontal = 1;
origin = "{0, 3}";
type = Anchor;
},
{
horizontal = 1;
origin = "{0, 3}";
target = "{2, 3}";
type = Align;
options = 4;
},
{
horizontal = 1;
origin = "{0, 3}";
target = "{0, 1, 1, 3}";
type = TTStem;
stem = -1;
options = 4;
},
{
horizontal = 1;
origin = "{2, 3}";
target = "{2, 1, 3, 3}";
type = TTStem;
stem = -1;
options = 4;
},
{
horizontal = 1;
origin = "{0, 2}";
target = "{0, 1}";
type = Align;
options = 4;
},
{
horizontal = 1;
origin = "{0, 3}";
target = "{1, 0}";
type = Align;
options = 4;
},
{
horizontal = 1;
origin = "{2, 3}";
target = "{3, 0}";
type = Align;
options = 4;
}
);
layerId = "A40D6D23-B1DA-4472-8F2A-1C08CC11B4FE";
paths = (
{
closed = 1;
nodes = (
"249 0 LINE",
"104 510 LINE",
"10 510 LINE",
"162 0 LINE"
);
},
{
closed = 1;
nodes = (
"262 0 LINE",
"402 510 LINE",
"317 510 LINE",
"182 0 LINE"
);
},
{
closed = 1;
nodes = (
"561 0 LINE",
"426 510 LINE",
"339 510 LINE",
"479 0 LINE"
);
},
{
closed = 1;
nodes = (
"579 0 LINE",
"731 510 LINE",
"639 510 LINE",
"494 0 LINE"
);
}
);
width = 741;
},
{
anchors = (
{
name = bottom;
position = "{348, 0}";
},
{
name = top;
position = "{352, 510}";
}
);
layerId = m002;
paths = (
{
closed = 1;
nodes = (
"208 0 LINE",
"62 510 LINE",
"10 510 LINE",
"162 0 LINE"
);
},
{
closed = 1;
nodes = (
"218 0 LINE",
"370 510 LINE",
"320 510 LINE",
"174 0 LINE"
);
},
{
closed = 1;
nodes = (
"529 0 LINE",
"383 510 LINE",
"332 510 LINE",
"484 0 LINE"
);
},
{
closed = 1;
nodes = (
"540 0 LINE",
"692 510 LINE",
"641 510 LINE",
"495 0 LINE"
);
}
);
width = 702;
},
{
anchors = (
{
name = bottom;
position = "{412, 0}";
},
{
name = top;
position = "{407, 510}";
}
);
layerId = "5BCD9238-7200-4447-A55E-E4A4B2A2A7AE";
paths = (
{
closed = 1;
nodes = (
"304 0 LINE",
"165 510 LINE",
"10 510 LINE",
"162 0 LINE"
);
},
{
closed = 1;
nodes = (
"331 0 LINE",
"455 510 LINE",
"323 510 LINE",
"205 0 LINE"
);
},
{
closed = 1;
nodes = (
"612 0 LINE",
"494 510 LINE",
"359 510 LINE",
"483 0 LINE"
);
},
{
closed = 1;
nodes = (
"655 0 LINE",
"807 510 LINE",
"652 510 LINE",
"513 0 LINE"
);
}
);
width = 817;
}
);
leftKerningGroup = v;
leftMetricsKey = "=v+3";
rightKerningGroup = v;
rightMetricsKey = "=v+3";
unicode = 0077;
},
{
glyphname = x;
lastChange = "2023-10-24 10:09:31 +0000";
layers = (
{
anchors = (
{
name = bottom;
position = "{250, 0}";
},
{
name = top;
position = "{250, 510}";
}
);
hints = (
{
horizontal = 1;
origin = "{1, 4}";
type = Anchor;
},
{
horizontal = 1;
origin = "{1, 4}";
target = "{0, 4}";
type = Align;
options = 4;
},
{
horizontal = 1;
origin = "{0, 7}";
type = Anchor;
},
{
horizontal = 1;
origin = "{0, 7}";
target = "{1, 5}";
type = Align;
options = 4;
}
);
layerId = "A40D6D23-B1DA-4472-8F2A-1C08CC11B4FE";
paths = (
{
closed = 1;
nodes = (
"117 0 LINE",
"253 201 LINE",
"299 255 LINE",
"477 510 LINE",
"371 510 LINE",
"247 322 LINE",
"201 268 LINE",
"10 0 LINE"
);
},
{
closed = 1;
nodes = (
"489 0 LINE",
"291 282 LINE",
"276 297 LINE",
"132 510 LINE",
"24 510 LINE",
"380 0 LINE"
);
}
);
width = 499;
},
{
anchors = (
{
name = bottom;
position = "{227, 0}";
},
{
name = top;
position = "{227, 510}";
}
);
layerId = m002;
paths = (
{
closed = 1;
nodes = (
"70 0 LINE",
"233 241 LINE",
"253 255 LINE",
"431 510 LINE",
"372 510 LINE",
"220 280 LINE",
"201 268 LINE",
"10 0 LINE"
);
},
{
closed = 1;
nodes = (
"441 0 LINE",
"243 282 LINE",
"233 290 LINE",
"84 510 LINE",
"27 510 LINE",
"383 0 LINE"
);
}
);
width = 451;
},
{
anchors = (
{
name = bottom;
position = "{276, 0}";
},
{
name = top;
position = "{276, 510}";
}
);
layerId = "5BCD9238-7200-4447-A55E-E4A4B2A2A7AE";
paths = (
{
closed = 1;
nodes = (
"181 0 LINE",
"281 148 LINE",
"363 255 LINE",
"541 510 LINE",
"372 510 LINE",
"286 378 LINE",
"202 268 LINE",
"11 0 LINE"
);
},
{
closed = 1;
nodes = (
"543 0 LINE",
"345 282 LINE",
"330 297 LINE",
"186 510 LINE",
"10 510 LINE",
"366 0 LINE"
);
}
);
width = 553;
}
);
leftKerningGroup = x;
leftMetricsKey = "=v+3";
rightKerningGroup = x;
rightMetricsKey = "=v+3";
unicode = 0078;
},
{
glyphname = y;
lastChange = "2023-10-24 10:10:19 +0000";
layers = (
{
anchors = (
{
name = bottom;
position = "{247, 0}";
},
{
name = top;
position = "{247, 510}";
}
);
hints = (
{
horizontal = 1;
origin = "{0, 15}";
target = "{0, 14}";
type = TTStem;
stem = -1;
options = 4;
},
{
horizontal = 1;
origin = "{0, 8}";
type = Anchor;
},
{
horizontal = 1;
origin = "{0, 8}";
target = "{0, 5}";
type = Align;
options = 4;
}
);
layerId = "A40D6D23-B1DA-4472-8F2A-1C08CC11B4FE";
paths = (
{
closed = 1;
nodes = (
"122 -204 LINE SMOOTH",
"207 -204 OFFCURVE",
"232 -170 OFFCURVE",
"275 -73 CURVE",
"486 510 LINE",
"389 510 LINE",
"247 97 LINE",
"103 510 LINE",
"7 510 LINE",
"202 -24 LINE",
"196 -42 LINE SMOOTH",
"169 -122 OFFCURVE",
"158 -125 OFFCURVE",
"77 -125 CURVE SMOOTH",
"51 -125 LINE",
"51 -204 LINE"
);
}
);
width = 493;
},
{
anchors = (
{
name = bottom;
position = "{223, 0}";
},
{
name = top;
position = "{223, 510}";
}
);
layerId = m002;
paths = (
{
closed = 1;
nodes = (
"76 -205 LINE SMOOTH",
"156 -205 OFFCURVE",
"191 -164 OFFCURVE",
"251 0 CURVE SMOOTH",
"438 510 LINE",
"387 510 LINE",
"223 48 LINE",
"59 510 LINE",
"7 510 LINE",
"199 -15 LINE",
"194 -28 LINE",
"153 -134 OFFCURVE",
"131 -163 OFFCURVE",
"76 -163 CURVE SMOOTH",
"34 -163 LINE",
"34 -205 LINE"
);
}
);
width = 445;
},
{
anchors = (
{
name = bottom;
position = "{283, 0}";
},
{
name = top;
position = "{283, 510}";
}
);
guideLines = (
{
angle = 249.444;
position = "{193, 0}";
}
);
layerId = "5BCD9238-7200-4447-A55E-E4A4B2A2A7AE";
paths = (
{
closed = 1;
nodes = (
"129 -203 LINE SMOOTH",
"280 -203 OFFCURVE",
"307 -181 OFFCURVE",
"367 -18 CURVE SMOOTH",
"561 510 LINE",
"406 510 LINE",
"286 175 LINE",
"166 510 LINE",
"7 510 LINE",
"194 0 LINE",
"190 -10 LINE SMOOTH",
"169 -62 OFFCURVE",
"165 -69 OFFCURVE",
"63 -69 CURVE SMOOTH",
"58 -69 LINE",
"58 -203 LINE"
);
}
);
width = 568;
}
);
leftKerningGroup = y;
leftMetricsKey = v;
rightKerningGroup = y;
rightMetricsKey = v;
unicode = 0079;
},
{
glyphname = z;
lastChange = "2023-10-24 10:12:08 +0000";
layers = (
{
anchors = (
{
name = bottom;
position = "{233, 0}";
},
{
name = center;
position = "{233, 255}";
},
{
name = top;
position = "{233, 510}";
}
);
hints = (
{
horizontal = 1;
origin = "{0, 11}";
target = "{0, 2}";
type = TTStem;
stem = -1;
options = 4;
},
{
horizontal = 1;
origin = "{0, 6}";
target = "{0, 7}";
type = TTStem;
stem = -1;
options = 4;
}
);
layerId = "A40D6D23-B1DA-4472-8F2A-1C08CC11B4FE";
paths = (
{
closed = 1;
nodes = (
"441 0 LINE",
"441 83 LINE",
"93 83 LINE",
"109 49 LINE",
"437 431 LINE",
"437 510 LINE",
"34 510 LINE",
"34 427 LINE",
"369 427 LINE",
"353 461 LINE",
"25 79 LINE",
"25 0 LINE"
);
}
);
width = 466;
},
{
anchors = (
{
name = bottom;
position = "{218, 0}";
},
{
name = center;
position = "{218, 255}";
},
{
name = top;
position = "{218, 510}";
}
);
layerId = m002;
paths = (
{
closed = 1;
nodes = (
"411 0 LINE",
"411 42 LINE",
"68 42 LINE",
"79 42 LINE",
"407 471 LINE",
"407 510 LINE",
"34 510 LINE",
"34 468 LINE",
"361 468 LINE",
"353 468 LINE",
"25 39 LINE",
"25 0 LINE"
);
}
);
width = 436;
},
{
anchors = (
{
name = bottom;
position = "{250, 0}";
},
{
name = center;
position = "{250, 255}";
},
{
name = top;
position = "{250, 510}";
}
);
layerId = "5BCD9238-7200-4447-A55E-E4A4B2A2A7AE";
paths = (
{
closed = 1;
nodes = (
"478 0 LINE",
"478 136 LINE",
"90 136 LINE",
"146 57 LINE",
"474 378 LINE",
"474 510 LINE",
"31 510 LINE",
"31 374 LINE",
"406 374 LINE",
"350 453 LINE",
"22 132 LINE",
"22 0 LINE"
);
}
);
width = 500;
}
);
leftKerningGroup = z;
rightKerningGroup = z;
unicode = 007A;
},
{
glyphname = a.ss01;
lastChange = "2023-10-24 10:13:31 +0000";
layers = (
{
anchors = (
{
name = bottom;
position = "{275, 0}";
},
{
name = ogonek;
position = "{497, 10}";
},
{
name = top;
position = "{275, 510}";
}
);
hints = (
{
horizontal = 1;
origin = "{0, 11}";
target = "{1, 11}";
type = TTStem;
stem = -1;
options = 4;
},
{
horizontal = 1;
origin = "{0, 5}";
target = "{1, 5}";
type = TTStem;
stem = -1;
options = 4;
},
{
horizontal = 1;
origin = "{2, 2}";
type = Anchor;
},
{
horizontal = 1;
origin = "{2, 7}";
type = Anchor;
}
);
layerId = "A40D6D23-B1DA-4472-8F2A-1C08CC11B4FE";
paths = (
{
closed = 1;
nodes = (
"432 -14 OFFCURVE",
"474 169 OFFCURVE",
"474 256 CURVE SMOOTH",
"474 373 OFFCURVE",
"419 525 OFFCURVE",
"262 525 CURVE SMOOTH",
"118 525 OFFCURVE",
"29 415 OFFCURVE",
"29 256 CURVE SMOOTH",
"29 81 OFFCURVE",
"119 -14 OFFCURVE",
"264 -14 CURVE SMOOTH"
);
},
{
closed = 1;
nodes = (
"160 63 OFFCURVE",
"121 140 OFFCURVE",
"121 256 CURVE SMOOTH",
"121 370 OFFCURVE",
"158 448 OFFCURVE",
"262 448 CURVE SMOOTH",
"373 448 OFFCURVE",
"417 364 OFFCURVE",
"417 256 CURVE SMOOTH",
"417 147 OFFCURVE",
"375 63 OFFCURVE",
"264 63 CURVE SMOOTH"
);
},
{
closed = 1;
nodes = (
"503 0 LINE",
"503 510 LINE",
"413 510 LINE",
"413 414 LINE",
"422 403 LINE",
"422 129 LINE",
"416 114 LINE",
"416 0 LINE"
);
}
);
width = 550;
},
{
anchors = (
{
name = bottom;
position = "{275, 0}";
},
{
name = ogonek;
position = "{497, 10}";
},
{
name = top;
position = "{275, 510}";
}
);
layerId = m002;
paths = (
{
closed = 1;
nodes = (
"373 -14 OFFCURVE",
"450 92 OFFCURVE",
"450 256 CURVE SMOOTH",
"450 419 OFFCURVE",
"373 525 OFFCURVE",
"244 525 CURVE SMOOTH",
"109 525 OFFCURVE",
"29 425 OFFCURVE",
"29 256 CURVE SMOOTH",
"29 86 OFFCURVE",
"109 -14 OFFCURVE",
"244 -14 CURVE SMOOTH"
);
},
{
closed = 1;
nodes = (
"139 21 OFFCURVE",
"77 108 OFFCURVE",
"77 256 CURVE SMOOTH",
"77 404 OFFCURVE",
"139 491 OFFCURVE",
"244 491 CURVE SMOOTH",
"350 491 OFFCURVE",
"412 404 OFFCURVE",
"412 256 CURVE SMOOTH",
"412 108 OFFCURVE",
"350 21 OFFCURVE",
"244 21 CURVE SMOOTH"
);
},
{
closed = 1;
nodes = (
"455 0 LINE",
"455 510 LINE",
"409 510 LINE",
"409 419 LINE",
"414 402 LINE",
"414 156 LINE",
"410 136 LINE",
"410 0 LINE"
);
}
);
width = 498;
},
{
anchors = (
{
name = bottom;
position = "{276, 0}";
},
{
name = ogonek;
position = "{498, 10}";
},
{
name = top;
position = "{276, 510}";
}
);
layerId = "5BCD9238-7200-4447-A55E-E4A4B2A2A7AE";
paths = (
{
closed = 1;
nodes = (
"383 -14 OFFCURVE",
"455 86 OFFCURVE",
"455 256 CURVE SMOOTH",
"455 425 OFFCURVE",
"383 525 OFFCURVE",
"260 525 CURVE SMOOTH",
"114 525 OFFCURVE",
"27 425 OFFCURVE",
"27 256 CURVE SMOOTH",
"27 86 OFFCURVE",
"114 -14 OFFCURVE",
"260 -14 CURVE SMOOTH"
);
},
{
closed = 1;
nodes = (
"218 116 OFFCURVE",
"176 168 OFFCURVE",
"176 256 CURVE SMOOTH",
"176 347 OFFCURVE",
"218 400 OFFCURVE",
"288 400 CURVE SMOOTH",
"359 400 OFFCURVE",
"401 347 OFFCURVE",
"401 256 CURVE SMOOTH",
"401 168 OFFCURVE",
"359 116 OFFCURVE",
"288 116 CURVE SMOOTH"
);
},
{
closed = 1;
nodes = (
"547 0 LINE",
"547 510 LINE",
"397 510 LINE",
"397 407 LINE",
"411 404 LINE",
"411 93 LINE",
"400 85 LINE",
"400 0 LINE"
);
}
);
width = 590;
}
);
leftKerningGroup = o;
leftMetricsKey = o;
rightKerningGroup = n;
rightMetricsKey = n;
},
{
glyphname = y.ss01;
lastChange = "2023-10-24 10:13:44 +0000";
layers = (
{
anchors = (
{
name = bottom;
position = "{247, 0}";
},
{
name = top;
position = "{247, 510}";
}
);
hints = (
{
horizontal = 1;
origin = "{0, 7}";
type = Anchor;
},
{
horizontal = 1;
origin = "{0, 5}";
type = Anchor;
},
{
horizontal = 1;
origin = "{0, 5}";
target = "{0, 2}";
type = Align;
options = 4;
}
);
layerId = "A40D6D23-B1DA-4472-8F2A-1C08CC11B4FE";
paths = (
{
closed = 1;
nodes = (
"229 -200 LINE",
"486 510 LINE",
"389 510 LINE",
"247 97 LINE",
"103 510 LINE",
"7 510 LINE",
"202 -23 LINE",
"141 -200 LINE"
);
}
);
width = 493;
},
{
anchors = (
{
name = bottom;
position = "{247, 0}";
},
{
name = top;
position = "{247, 510}";
}
);
layerId = m002;
paths = (
{
closed = 1;
nodes = (
"179 -200 LINE",
"438 510 LINE",
"387 510 LINE",
"223 48 LINE",
"59 510 LINE",
"7 510 LINE",
"198 -15 LINE",
"131 -200 LINE"
);
}
);
width = 445;
},
{
anchors = (
{
name = bottom;
position = "{284, 0}";
},
{
name = top;
position = "{284, 510}";
}
);
layerId = "5BCD9238-7200-4447-A55E-E4A4B2A2A7AE";
paths = (
{
closed = 1;
nodes = (
"300 -200 LINE",
"561 510 LINE",
"406 510 LINE",
"286 175 LINE",
"166 510 LINE",
"7 510 LINE",
"204 -20 LINE",
"138 -200 LINE"
);
}
);
width = 568;
}
);
leftKerningGroup = y;
leftMetricsKey = v;
rightKerningGroup = y;
rightMetricsKey = v;
},
